<?xml version="1.0" encoding="UTF-8"?><svg xmlns="http://www.w3.org/2000/svg" viewBox="0 0 102.38 127.24"><defs><style>.cls-1{mix-blend-mode:multiply;}.cls-1,.cls-2{fill:#c80021;}.cls-1,.cls-2,.cls-3,.cls-4,.cls-5{stroke-width:0px;}.cls-6{isolation:isolate;}.cls-3{fill:#fff;}.cls-4{fill:#00252e;}.cls-5{fill:#001920;}</style></defs><g class="cls-6"><g id="Layer_2"><g id="Layer_2-2"><path class="cls-5" d="m52.21,127.24C23.91,127.24,0,104.27,0,77.07c0-13.21,5.73-26.51,15.71-36.5,5.16-5.16,11.35-9.29,17.97-11.99v-2c0-3.21,1.04-6.34,2.95-8.91-.06-.53-.09-1.06-.09-1.58,0-8.07,6.57-14.64,14.64-14.64s14.64,6.57,14.64,14.64c0,.52-.03,1.05-.09,1.58,1.91,2.57,2.95,5.7,2.95,8.91v1.29c19.91,7.45,33.69,27.45,33.69,49.2,0,27.67-22.51,50.17-50.17,50.17Z"/><path class="cls-4" d="m67.97,25.77v-2.83c0-3.16-1.16-6.05-3.06-8.28.13-.72.2-1.45.2-2.2,0-6.87-5.59-12.46-12.46-12.46s-12.46,5.59-12.46,12.46c0,.75.07,1.49.2,2.2-1.91,2.23-3.06,5.13-3.06,8.28v3.49c-6.82,2.55-13.22,6.65-18.61,12.05-9.58,9.58-15.07,22.32-15.07,34.95,0,26.02,22.91,47.99,50.03,47.99s47.99-21.53,47.99-47.99c0-21.95-14.4-41.14-33.69-47.66Z"/><circle class="cls-2" cx="53.07" cy="72.64" r="39.46"/><path class="cls-3" d="m53.66,116.01c-11.3,0-22.62-4.52-31.06-12.41-8.74-8.16-13.55-18.88-13.55-30.17s4.92-22.55,13.49-31.12c8.57-8.57,19.91-13.49,31.12-13.49s22,4.81,30.17,13.55c7.89,8.44,12.41,19.76,12.41,31.06,0,23.48-19.1,42.57-42.57,42.57Zm0-82.03c-20.65,0-39.46,18.81-39.46,39.46s18.07,37.42,39.46,37.42,37.42-16.79,37.42-37.42-17.14-39.46-37.42-39.46Z"/><path class="cls-3" d="m53.32,102.3c-16.57,0-30.56-13.38-30.56-29.21,0-7.69,3.37-15.46,9.23-21.33,5.87-5.87,13.64-9.23,21.33-9.23,15.83,0,29.21,14,29.21,30.56s-13.1,29.21-29.21,29.21Zm0-54.62c-13.3,0-25.41,12.11-25.41,25.41s11.64,24.06,25.41,24.06,24.06-10.79,24.06-24.06-11.02-25.41-24.06-25.41Z"/><path class="cls-3" d="m59.97,33.93h-14.66c-1.42,0-2.58-1.15-2.58-2.58v-8.41c0-4.05,3.3-7.35,7.35-7.35h5.11c4.05,0,7.35,3.3,7.35,7.35v8.41c0,1.42-1.15,2.58-2.58,2.58Zm-12.08-5.15h9.51v-5.83c0-1.21-.99-2.2-2.2-2.2h-5.11c-1.21,0-2.2.99-2.2,2.2v5.83Z"/><path class="cls-3" d="m52.5,89.91c-1.42,0-2.58-1.15-2.58-2.58v-31.21c0-1.42,1.15-2.58,2.58-2.58s2.58,1.15,2.58,2.58v31.21c0,1.42-1.15,2.58-2.58,2.58Z"/><path class="cls-3" d="m44.92,87.8c-.44,0-.88-.11-1.29-.35-1.23-.71-1.65-2.29-.94-3.52l15.6-27.03c.71-1.23,2.29-1.65,3.52-.94,1.23.71,1.65,2.29.94,3.52l-15.6,27.03c-.48.83-1.34,1.29-2.23,1.29Z"/><path class="cls-3" d="m39.42,82.19c-.89,0-1.76-.46-2.23-1.29-.71-1.23-.29-2.81.94-3.52l27.03-15.6c1.23-.71,2.81-.29,3.52.94.71,1.23.29,2.81-.94,3.52l-27.03,15.6c-.41.23-.85.35-1.29.35Z"/><path class="cls-3" d="m68.67,74.58h-31.21c-1.42,0-2.58-1.15-2.58-2.58s1.15-2.58,2.58-2.58h31.21c1.42,0,2.58,1.15,2.58,2.58s-1.15,2.58-2.58,2.58Z"/><path class="cls-3" d="m66.6,82.61c-.44,0-.88-.11-1.29-.35l-27.03-15.6c-1.23-.71-1.65-2.29-.94-3.52.71-1.23,2.29-1.65,3.52-.94l27.03,15.6c1.23.71,1.65,2.29.94,3.52-.48.83-1.34,1.29-2.23,1.29Z"/><path class="cls-3" d="m60.79,88.53c-.89,0-1.76-.46-2.23-1.29l-15.6-27.03c-.71-1.23-.29-2.81.94-3.52,1.23-.71,2.81-.29,3.52.94l15.6,27.03c.71,1.23.29,2.81-.94,3.52-.41.23-.85.35-1.29.35Z"/><path class="cls-3" d="m52.65,19.5c-3.88,0-7.04-3.16-7.04-7.04s3.16-7.04,7.04-7.04,7.04,3.16,7.04,7.04-3.16,7.04-7.04,7.04Zm0-8.93c-1.04,0-1.89.85-1.89,1.89s.85,1.89,1.89,1.89,1.89-.85,1.89-1.89-.85-1.89-1.89-1.89Z"/><path class="cls-1" d="m81.6,91.93c1.91-.9,3.39,1.87,1.25,2.99-2.14,1.12-3.66-1.85-1.25-2.99Z"/><path class="cls-1" d="m78.35,49.63c-.48,3.02-4.99,2.52-4.59-.95.4-3.47,5.2-2.86,4.59.95Z"/><path class="cls-1" d="m20.25,61.31c-1.76-.89-.57-3.56,1.48-2.63,2.05.93.73,3.75-1.48,2.63Z"/><path class="cls-1" d="m39.93,107.76c-1.67.32-2.26-2.13-.38-2.58s2.48,2.17.38,2.58Z"/><path class="cls-1" d="m63.63,104.63c-1.52,1.55-3.93-.59-2.27-2.44,1.66-1.84,4.19.48,2.27,2.44Z"/><path class="cls-1" d="m40.64,41.26c-.98,1.72-3.59.39-2.56-1.62,1.03-2.01,3.8-.55,2.56,1.62Z"/></g></g></g></svg>