<?xml version="1.0" encoding="UTF-8"?><svg xmlns="http://www.w3.org/2000/svg" viewBox="0 0 93.94 121.19"><defs><style>.cls-1{mix-blend-mode:multiply;}.cls-1,.cls-2,.cls-3,.cls-4,.cls-5{stroke-width:0px;}.cls-1,.cls-5{fill:#007600;}.cls-6{isolation:isolate;}.cls-2{fill:#fff;}.cls-3{fill:#00252e;}.cls-4{fill:#001920;}</style></defs><g class="cls-6"><g id="Layer_2"><g id="Layer_2-2"><path class="cls-4" d="m39.75,121.19c-6.96,0-12.82-4.77-13.95-10.99l-12.02-.72c-5.7-.14-10.72-3.41-12.79-8.35-1.99-4.75-.94-10.03,2.74-13.78l2.2-2.24c-.64-.85-1.17-1.78-1.59-2.77-1.99-4.75-.94-10.03,2.74-13.78l3.62-3.68c-.73-.93-1.33-1.94-1.79-3.04-1.99-4.75-.94-10.03,2.74-13.78l18.87-19.19c-2.38-3.19-3.06-7.28-1.81-11.14,1.27-3.9,4.27-6.83,8.14-7.99,2.3-3.32,6.01-5.27,10.11-5.27s7.82,1.95,10.11,5.27c3.87,1.16,6.87,4.09,8.14,7.99,1.14,3.5.68,7.2-1.2,10.24,2.7,2.41,4.67,4.24,5.86,5.45,3.4,3.48,11.22,13.1,12.85,15.11,3.3,3.7,4.18,8.79,2.29,13.3-.46,1.1-1.06,2.11-1.79,3.04l3.62,3.68c3.68,3.74,4.73,9.02,2.74,13.78-.41.99-.95,1.92-1.59,2.77l2.2,2.24c3.68,3.74,4.73,9.02,2.74,13.78-2.13,5.07-7.3,8.35-13.17,8.35h-11.53c-.79,6.58-6.79,11.71-14.06,11.71h-14.43Z"/><path class="cls-3" d="m48.43,0c-4.02,0-7.62,2.24-9.4,5.84l-.46.93-1.02.15c-3.98.58-7.22,3.31-8.46,7.13s-.23,7.94,2.65,10.74l.74.72-.17,1.02c-.52,3.05.32,6.16,2.3,8.52,2,2.38,4.93,3.74,8.02,3.74,1.68,0,3.37-.42,4.88-1.21l.91-.48.91.48c1.51.79,3.19,1.21,4.88,1.21,3.09,0,6.02-1.36,8.02-3.74,1.99-2.36,2.83-5.46,2.3-8.52l-.17-1.02.74-.72c2.88-2.8,3.89-6.92,2.65-10.74-1.24-3.82-4.48-6.55-8.46-7.13l-1.02-.15-.46-.93c-1.78-3.6-5.38-5.84-9.4-5.84h0Z"/><path class="cls-3" d="m29.25,104.49c.08,6.01,5.41,10.88,11.96,10.88h14.43c6.6,0,11.96-4.94,11.96-11.01v-.7h13.63c4.99,0,9.38-2.75,11.16-7.02,1.65-3.93.77-8.3-2.28-11.4l-3.63-3.69c1.09-1.04,1.97-2.28,2.56-3.69,1.65-3.93.77-8.3-2.28-11.4l-5.08-5.17c1.2-1.08,2.16-2.4,2.8-3.92,1.58-3.78.84-7.96-1.94-11.04-1.54-1.9-9.39-11.57-12.75-15-1.57-1.6-4.37-4.14-7.21-6.65,0-.02,0-.03,0-.05,2.38-2.69,3.17-6.39,2.04-9.85-1.12-3.46-3.94-5.99-7.44-6.77-1.82-3.09-5.1-4.99-8.74-4.99s-6.92,1.89-8.74,4.99c-3.51.77-6.32,3.31-7.44,6.77-1.12,3.46-.34,7.17,2.04,9.85-.05.47-.06.94-.03,1.41l-19.59,19.92c-3.05,3.1-3.93,7.47-2.28,11.4.63,1.51,1.6,2.84,2.8,3.92l-5.08,5.17c-3.05,3.1-3.93,7.47-2.28,11.4.59,1.41,1.47,2.66,2.56,3.69l-3.63,3.69c-3.05,3.11-3.93,7.47-2.28,11.4,1.75,4.18,6,6.91,10.87,7.01l13.92.83Z"/><polygon class="cls-5" points="42.07 28.81 19.01 54.08 21.23 55.86 28.99 56.74 14.58 73.81 16.13 76.7 24.78 76.92 11.92 91.11 12.81 94.43 36.97 97.54 37.86 106.18 59.14 107.29 59.81 95.98 83.97 95.1 85.3 91.11 71.33 76.7 81.09 76.25 81.53 72.26 66.9 55.64 76.66 54.75 75.77 50.09 54.49 28.37 42.07 28.81"/><path class="cls-2" d="m86.25,89.05l-9.43-9.59h1.06c2.8,0,5.22-1.45,6.16-3.69.79-1.88.35-3.99-1.15-5.51l-11.1-11.29h1.52c2.8,0,5.22-1.45,6.16-3.69.77-1.84.37-3.89-1.05-5.41-.9-1.12-9.23-11.39-12.52-14.75-.81-.83-1.99-1.94-3.36-3.18-2.29-2.09-6.93.55-3.17,4.08,1.16,1.06,2.16,2,2.84,2.7,3.24,3.31,12.18,14.36,12.27,14.47.05.07.11.13.17.19-.17.17-.61.44-1.34.44h-7.67c-1.04,0-1.97.62-2.38,1.58-.4.96-.19,2.06.54,2.8l15.41,15.67c-.17.17-.61.44-1.34.44h-7.21c-1.04,0-1.97.62-2.38,1.58-.4.96-.19,2.06.54,2.8l13.74,13.97h0c-.17.17-.61.44-1.34.44h-21.62c-1.42,0-2.58,1.15-2.58,2.58v8.64c-.11.16-.61.5-1.39.5h-14.43c-.78,0-1.28-.33-1.39-.5v-7.35c0-1.36-1.06-2.49-2.42-2.57l-21.62-1.29c-.05,0-.1,0-.15,0-.74,0-1.18-.27-1.34-.44l13.74-13.97c.73-.74.94-1.84.54-2.8-.4-.96-1.34-1.58-2.38-1.58h-7.21c-.74,0-1.18-.27-1.34-.44l15.41-15.67c.73-.74.94-1.84.54-2.8-.4-.96-1.34-1.58-2.38-1.58h-7.67c-.74,0-1.18-.27-1.34-.44l17.22-17.51c1.98-2.29-1.1-6.56-4.49-2.78l-16.4,16.67c-1.49,1.52-1.93,3.63-1.15,5.51.94,2.24,3.36,3.69,6.16,3.69h1.52l-11.1,11.29c-1.49,1.52-1.93,3.63-1.15,5.51.94,2.24,3.36,3.69,6.16,3.69h1.06l-9.43,9.59c-1.49,1.52-1.93,3.63-1.15,5.51.93,2.22,3.31,3.66,6.08,3.69l19.13,1.14v4.98c0,3.13,2.87,5.59,6.54,5.59h14.43c3.67,0,6.54-2.46,6.54-5.59v-6.12h19.05c2.8,0,5.22-1.45,6.16-3.69.79-1.88.35-3.99-1.15-5.51Z"/><path class="cls-3" d="m50.36,12.23l1.02,2.06c.31.64.92,1.08,1.62,1.18l2.27.33c1.77.26,2.47,2.43,1.19,3.67l-1.64,1.6c-.51.49-.74,1.21-.62,1.91l.39,2.26c.3,1.76-1.54,3.1-3.12,2.27l-2.03-1.07c-.63-.33-1.38-.33-2,0l-2.03,1.07c-1.58.83-3.43-.51-3.12-2.27l.39-2.26c.12-.7-.11-1.41-.62-1.91l-1.64-1.6c-1.28-1.25-.57-3.42,1.19-3.67l2.27-.33c.7-.1,1.31-.54,1.62-1.18l1.02-2.06c.79-1.6,3.07-1.6,3.86,0Z"/><path class="cls-2" d="m48.43,11.03c.77,0,1.54.4,1.93,1.2l1.02,2.06c.31.64.92,1.08,1.62,1.18l2.27.33c1.77.26,2.47,2.43,1.19,3.67l-1.64,1.6c-.51.49-.74,1.21-.62,1.91l.39,2.26c.24,1.39-.87,2.52-2.12,2.52-.33,0-.67-.08-1-.25l-2.03-1.07c-.31-.16-.66-.25-1-.25s-.69.08-1,.25l-2.03,1.07c-.33.17-.67.25-1,.25-1.25,0-2.36-1.13-2.12-2.52l.39-2.26c.12-.7-.11-1.41-.62-1.91l-1.64-1.6c-1.28-1.25-.57-3.42,1.19-3.67l2.27-.33c.7-.1,1.31-.54,1.62-1.18l1.02-2.06c.39-.8,1.16-1.2,1.93-1.2m0-5.15c-2.8,0-5.31,1.56-6.55,4.07l-.32.65-.71.1c-2.77.4-5.03,2.31-5.9,4.97-.87,2.66-.16,5.53,1.85,7.49l.52.5-.12.71c-.36,2.13.22,4.29,1.61,5.93,1.4,1.66,3.44,2.61,5.59,2.61,1.17,0,2.35-.29,3.4-.84l.64-.34.64.34c1.05.55,2.23.84,3.4.84,2.16,0,4.19-.95,5.59-2.61,1.39-1.64,1.97-3.81,1.61-5.93l-.12-.71.52-.5c2.01-1.95,2.71-4.82,1.85-7.49-.87-2.66-3.12-4.57-5.9-4.97l-.71-.1-.32-.65c-1.24-2.51-3.75-4.07-6.55-4.07h0Z"/><path class="cls-2" d="m45.06,53.48c-3.88,0-7.04-3.16-7.04-7.04s3.16-7.04,7.04-7.04,7.04,3.16,7.04,7.04-3.16,7.04-7.04,7.04Zm0-8.93c-1.04,0-1.89.85-1.89,1.89s.85,1.89,1.89,1.89,1.89-.85,1.89-1.89-.85-1.89-1.89-1.89Z"/><path class="cls-2" d="m53.49,72.25c-3.88,0-7.04-3.16-7.04-7.04s3.16-7.04,7.04-7.04,7.04,3.16,7.04,7.04-3.16,7.04-7.04,7.04Zm0-8.93c-1.04,0-1.89.85-1.89,1.89s.85,1.89,1.89,1.89,1.89-.85,1.89-1.89-.85-1.89-1.89-1.89Z"/><path class="cls-2" d="m39.74,87.5c-3.88,0-7.04-3.16-7.04-7.04s3.16-7.04,7.04-7.04,7.04,3.16,7.04,7.04-3.16,7.04-7.04,7.04Zm0-8.93c-1.04,0-1.89.85-1.89,1.89s.85,1.89,1.89,1.89,1.89-.85,1.89-1.89-.85-1.89-1.89-1.89Z"/><path class="cls-1" d="m59.82,86.06c-2.43.69-3.62-2.86-.88-3.77,2.74-.91,3.95,2.9.88,3.77Z"/><path class="cls-1" d="m40.77,62.47c1.28,2.85-2.85,4.95-4.46,1.76-1.6-3.19,2.84-5.36,4.46-1.76Z"/><path class="cls-1" d="m62.09,48.61c-1.25,2.3-4.74.61-3.43-2.07,1.31-2.69,5.01-.83,3.43,2.07Z"/></g></g></g></svg>