<?xml version="1.0" encoding="UTF-8"?><svg xmlns="http://www.w3.org/2000/svg" viewBox="0 0 74.19 113.56"><defs><style>.cls-1{mix-blend-mode:multiply;}.cls-1,.cls-2{fill:#c80021;}.cls-1,.cls-2,.cls-3,.cls-4,.cls-5,.cls-6{stroke-width:0px;}.cls-7{isolation:isolate;}.cls-3{fill:#fff;}.cls-4{fill:#ededed;}.cls-5{fill:#00252e;}.cls-6{fill:#001920;}</style></defs><g class="cls-7"><g id="Layer_2"><g id="Layer_2-2"><path class="cls-6" d="m52.68,113.56c-11.86,0-21.51-9.65-21.51-21.51v-34.29c-2.98,1.51-6.26,2.29-9.67,2.29C9.65,60.05,0,50.41,0,38.55,0,18.09,16.64,1.45,37.09,1.45s37.09,16.64,37.09,37.09v53.51c0,11.86-9.65,21.51-21.51,21.51Z"/><path class="cls-5" d="m38.55,0C19.3,0,3.63,15.66,3.63,34.91c0,10.66,8.67,19.33,19.33,19.33,4.46,0,8.57-1.52,11.85-4.07v38.25c0,10.66,8.67,19.33,19.33,19.33s19.33-8.67,19.33-19.33v-53.51C73.46,15.66,57.8,0,38.55,0Z"/><path class="cls-2" d="m13.08,28.97l21.28,7.98s-4.43,11.53-13.52,9.31c-9.09-2.22-7.76-17.29-7.76-17.29Z"/><polygon class="cls-4" points="13.08 28.97 34.36 36.95 36.36 30.96 22.61 12.78 13.08 28.97"/><polygon class="cls-2" points="22.61 12.78 36.36 30.96 41.24 8.13 22.61 12.78"/><polygon class="cls-4" points="61.41 20.1 36.36 30.96 41.24 8.13 54.54 12.34 61.41 20.1"/><polygon class="cls-2" points="64.74 38.72 61.41 20.1 36.36 30.96 64.74 38.72"/><polygon class="cls-4" points="65.62 55.79 64.74 38.72 42.79 32.29 42.34 48.7 65.62 55.79"/><polygon class="cls-2" points="65.18 70.87 65.62 55.79 42.34 48.7 42.79 62.44 65.18 70.87"/><polygon class="cls-4" points="64.29 84.17 65.18 70.87 42.79 62.44 42.79 77.74 64.29 84.17"/><path class="cls-2" d="m64.29,84.17s2.22,14.41-9.53,14.85-11.97-21.28-11.97-21.28l21.5,6.43Z"/><path class="cls-3" d="m54.14,103.36c-8.24,0-14.94-6.7-14.94-14.94v-53.51c0-.35-.3-.65-.65-.65s-.65.3-.65.65c0,8.24-6.7,14.94-14.94,14.94s-14.94-6.7-14.94-14.94c0-16.83,13.69-30.52,30.52-30.52s30.52,13.69,30.52,30.52v53.51c0,8.24-6.7,14.94-14.94,14.94Zm-15.59-76.3c4.34,0,7.86,3.53,7.86,7.86v53.51c0,4.26,3.47,7.73,7.73,7.73s7.73-3.47,7.73-7.73v-53.51c0-12.85-10.46-23.31-23.31-23.31s-23.31,10.46-23.31,23.31c0,4.26,3.47,7.73,7.73,7.73s7.73-3.47,7.73-7.73,3.53-7.86,7.86-7.86Z"/><path class="cls-1" d="m55.5,91.37c-1.52,1.92-4.48-.19-2.84-2.46,1.64-2.27,4.76.03,2.84,2.46Z"/><path class="cls-1" d="m57.43,28.31c1.51.58.77,2.86-.99,2.28-1.76-.58-.92-3,.99-2.28Z"/></g></g></g></svg>