<?xml version="1.0" encoding="UTF-8"?><svg xmlns="http://www.w3.org/2000/svg" viewBox="0 0 108.05 135.36"><defs><style>.cls-1{mix-blend-mode:multiply;}.cls-1,.cls-2{fill:#ff5e14;}.cls-1,.cls-2,.cls-3,.cls-4,.cls-5{stroke-width:0px;}.cls-6{isolation:isolate;}.cls-3{fill:#fff;}.cls-4{fill:#00252e;}.cls-5{fill:#001920;}</style></defs><g class="cls-6"><g id="Layer_2"><g id="Layer_2-2"><path class="cls-5" d="m76.6,135.36c-6.34,0-15.16-3-22.58-16.62-7.41,13.62-16.24,16.62-22.58,16.62-4.68,0-9.2-1.65-13.44-4.9-4.17-3.2-6.66-7.49-7.19-12.39-1.08-9.85,5.96-18.24,10.62-23.8.62-.73,1.2-1.43,1.56-1.9,2.53-3.27,3.15-6.93,3.13-9.8l-10.32-3.79C2.96,74.06-1.23,63.24.3,54.61c1.73-9.72,10.21-16.51,20.61-16.51.26,0,.53,0,.79.01-1.07-4.64-.99-9.5.26-14.22C25.59,10.26,38,1.45,53.59,1.45c.15,0,.29,0,.44,0,.15,0,.29,0,.44,0,15.59,0,28,8.81,31.62,22.44,1.25,4.72,1.34,9.58.26,14.22.26,0,.53-.01.79-.01,10.41,0,18.88,6.79,20.61,16.51,1.54,8.63-2.66,19.45-15.5,24.17l-10.32,3.79c-.02,2.86.6,6.53,3.13,9.8.37.47.95,1.17,1.56,1.9,4.66,5.55,11.7,13.94,10.62,23.8-.54,4.9-3.02,9.19-7.19,12.39-4.24,3.25-8.76,4.9-13.44,4.9Z"/><path class="cls-4" d="m18.01,73.1l2.07.76s.03.01.04.01l9.58,3.52c.25,3.27-.11,8.26-3.52,12.67-.39.51-.99,1.22-1.62,1.97-4.42,5.27-11.1,13.23-10.12,22.16.47,4.3,2.67,8.07,6.35,10.9,3.85,2.95,7.92,4.45,12.11,4.45,6.33,0,15.31-3.4,22.58-19.33,7.27,15.93,16.24,19.33,22.58,19.33,4.19,0,8.27-1.5,12.11-4.45,3.69-2.83,5.88-6.6,6.35-10.9.98-8.93-5.7-16.89-10.12-22.16-.63-.75-1.23-1.46-1.62-1.97-3.41-4.41-3.77-9.4-3.52-12.67l11.69-4.29c11.66-4.28,15.48-14,14.11-21.74-1.54-8.66-9.13-14.71-18.47-14.71-1.24,0-2.5.1-3.78.31,1.8-5.04,2.09-10.61.62-16.14C82.07,8.17,70.49,0,55.92,0c-.15,0-.29,0-.44,0-.15,0-.29,0-.44,0-14.57,0-26.15,8.17-29.51,20.82-1.47,5.52-1.17,11.1.62,16.14-1.28-.21-2.54-.31-3.78-.31-9.33,0-16.92,6.05-18.47,14.71-1.38,7.74,2.45,17.46,14.11,21.74Z"/><path class="cls-2" d="m55.88,8.25c15.63.18,21.95,8.31,21.62,21.28-.33,12.97-9.31,14.3-9.31,17.29s26.94-8.65,30.26,5.65c3.33,14.3-23.94,16.29-24.61,20.29s-1.33,13.03,7.98,26.94c9.31,13.91,6.78,19.19,0,21.62s-14.63-4.99-17.96-11.97c-3.33-6.98-4.99-13.63-8.31-14.3s-12.18,35.47-29.26,25.94,22.28-32.26,10.31-49.22c-12.97-7.65-27.58-7.39-23.94-21.95,2.99-11.97,25.94,1.33,29.6-2.99-11.97-11.97-15.96-38.91,13.63-38.57Z"/><path class="cls-3" d="m78.09,124.13c-1.01,0-2.03-.13-3.04-.4-7.35-1.92-12.35-10.4-15.26-17.17-2.36-5.51-3.67-7.46-4.31-8.15-.64.68-1.95,2.63-4.31,8.15-2.9,6.77-7.91,15.25-15.26,17.17-3.96,1.03-7.94.05-11.82-2.94-2.52-1.94-3.96-4.35-4.27-7.19-.72-6.63,5.06-13.52,8.89-18.09.7-.83,1.3-1.55,1.75-2.14,5.98-7.73,4.78-16.79,4.11-19.97l-14.69-5.4c-9.53-3.5-12.31-11.53-10.12-17.66,2.11-5.91,9.06-10.64,19.35-7.08,5.36,1.86,8.52,2.38,10.31,2.47-7.63-5.39-11.08-14.63-8.61-23.68,2.23-8.17,9.87-16.83,24.68-16.65,14.8-.18,22.45,8.48,24.68,16.65,2.47,9.05-.98,18.29-8.61,23.68,1.79-.09,4.95-.62,10.31-2.47,10.29-3.56,17.24,1.17,19.35,7.08,2.18,6.13-.59,14.16-10.12,17.66l-14.69,5.4c-.67,3.17-1.87,12.23,4.11,19.97.46.59,1.06,1.31,1.75,2.14,3.83,4.56,9.61,11.46,8.89,18.09-.31,2.83-1.75,5.25-4.27,7.19-2.89,2.22-5.83,3.34-8.78,3.34Zm-22.61-31.11c3.46,0,5.85,4.05,9.04,11.51,3.46,8.08,7.66,13.13,11.82,14.22,2.37.62,4.79-.05,7.38-2.04,1.38-1.06,2.13-2.26,2.28-3.66.49-4.44-4.65-10.56-7.71-14.22-.73-.87-1.36-1.63-1.88-2.3-9.04-11.69-4.84-25.28-4.65-25.85.24-.76.82-1.36,1.56-1.63l15.97-5.87c6.69-2.46,8.34-7.47,7.05-11.09-1.32-3.71-5.8-6.37-12.82-3.94-10.72,3.71-16.77,3.69-18.47-.07-.89-1.97-.01-4.42,2.01-5.57,7.96-4.55,9.81-12.86,8.11-19.07-1.72-6.31-7.81-13-19.67-12.85-.02,0-.05,0-.07,0-11.87-.16-17.95,6.54-19.67,12.85-1.7,6.22.16,14.53,8.11,19.07,2.02,1.16,2.9,3.6,2.01,5.57-1.71,3.76-7.75,3.79-18.47.07-7.02-2.43-11.49.23-12.81,3.94-1.29,3.62.36,8.64,7.05,11.09l15.97,5.87c.75.27,1.32.88,1.56,1.63.18.57,4.38,14.16-4.65,25.85-.52.67-1.15,1.43-1.88,2.3-3.07,3.66-8.2,9.77-7.71,14.22.15,1.4.9,2.6,2.28,3.66,2.6,1.99,5.01,2.66,7.38,2.04,4.16-1.09,8.36-6.14,11.82-14.22,3.2-7.46,5.59-11.51,9.04-11.51Z"/><path class="cls-3" d="m24.84,62.3c-.21,0-.43-.03-.65-.08-1.38-.36-2.2-1.76-1.84-3.14l2.47-8.31c.36-1.38,1.76-2.2,3.14-1.84,1.38.36,2.2,1.76,1.84,3.14l-2.47,8.31c-.3,1.16-1.35,1.93-2.49,1.93Z"/><path class="cls-3" d="m82.87,49.38c.17-.12.37-.23.58-.31,1.33-.51,2.82.16,3.33,1.48l2.82,8.19c.51,1.33-.15,2.82-1.48,3.33-1.33.51-2.82-.16-3.33-1.48l-2.82-8.19c-.43-1.12-.02-2.35.91-3.02Z"/><path class="cls-3" d="m29.76,103.47c.05-.21.14-.41.25-.61.7-1.24,2.27-1.68,3.51-.99l7.41,4.5c1.24.7,1.68,2.26.99,3.51-.7,1.24-2.27,1.68-3.51.99l-7.41-4.5c-1.04-.59-1.52-1.79-1.23-2.9Z"/><path class="cls-3" d="m68.58,110.02c-.15-.16-.27-.34-.38-.53-.67-1.26-.19-2.81,1.06-3.48l7.78-3.81c1.26-.67,2.81-.19,3.48,1.06.67,1.26.19,2.81-1.06,3.48l-7.78,3.81c-1.06.56-2.33.32-3.11-.53Z"/><path class="cls-3" d="m55.48,65.86c-3.88,0-7.04-3.16-7.04-7.04s3.16-7.04,7.04-7.04,7.04,3.16,7.04,7.04-3.16,7.04-7.04,7.04Zm0-8.93c-1.04,0-1.89.85-1.89,1.89s.85,1.89,1.89,1.89,1.89-.85,1.89-1.89-.85-1.89-1.89-1.89Z"/><path class="cls-3" d="m49.77,24.7c0,2.46-2,4.46-4.46,4.46s-4.46-2-4.46-4.46,2-4.46,4.46-4.46,4.46,2,4.46,4.46Z"/><path class="cls-3" d="m71.21,24.7c0,2.46-2,4.46-4.46,4.46s-4.46-2-4.46-4.46,2-4.46,4.46-4.46,4.46,2,4.46,4.46Z"/><path class="cls-3" d="m55.48,85.67c-3.88,0-7.04-3.16-7.04-7.04s3.16-7.04,7.04-7.04,7.04,3.16,7.04,7.04-3.16,7.04-7.04,7.04Zm0-8.93c-1.04,0-1.89.85-1.89,1.89s.85,1.89,1.89,1.89,1.89-.85,1.89-1.89-.85-1.89-1.89-1.89Z"/><path class="cls-3" d="m54.34,40.27c-.29,0-.58-.01-.86-.03-3.08-.25-5.32-1.75-6.14-4.13-.46-1.35.25-2.81,1.6-3.27,1.35-.46,2.81.25,3.27,1.6.09.26.67.57,1.6.66,1.92.19,3.62-.63,3.86-1.04.67-1.25,2.23-1.72,3.49-1.05,1.25.67,1.72,2.23,1.05,3.49-1.37,2.56-4.84,3.78-7.87,3.78Z"/><path class="cls-1" d="m64.93,89.16c2.91.45,2.46,4.8-.89,4.43-3.35-.37-2.79-5,.89-4.43Z"/><path class="cls-1" d="m38.96,60.81c-1.79-1.68.57-4.46,2.71-2.63,2.13,1.83-.44,4.76-2.71,2.63Z"/><path class="cls-1" d="m43.05,97.69c-2.09.26-2.64-2.82-.26-3.23,2.38-.41,2.9,2.89.26,3.23Z"/><path class="cls-1" d="m44.19,68.1c2.03-.55,3,2.41.71,3.14-2.29.73-3.27-2.45-.71-3.14Z"/><path class="cls-1" d="m68.71,37.64c-2.2,1.53-4.62-1.62-2.19-3.47,2.43-1.85,4.96,1.55,2.19,3.47Z"/><path class="cls-1" d="m68.25,62.07c1.98-1.04,3.67,1.82,1.46,3.11-2.21,1.29-3.96-1.79-1.46-3.11Z"/></g></g></g></svg>