<?xml version="1.0" encoding="UTF-8"?><svg xmlns="http://www.w3.org/2000/svg" viewBox="0 0 91.78 115.78"><defs><style>.cls-1{mix-blend-mode:multiply;}.cls-1,.cls-2,.cls-3,.cls-4,.cls-5,.cls-6{stroke-width:0px;}.cls-1,.cls-6{fill:#008c9d;}.cls-7{isolation:isolate;}.cls-2{fill:#ff5e14;}.cls-3{fill:#fff;}.cls-4{fill:#00252e;}.cls-5{fill:#001920;}</style></defs><g class="cls-7"><g id="Layer_2"><g id="Layer_2-2"><path class="cls-5" d="m10.18,115.78c-5.61,0-10.18-4.56-10.18-10.18V35.63c0-2.64,1.01-5.14,2.81-7.02-.32-3.32-.09-6.66.7-9.95,1.65-6.88,5.56-12.39,10.73-15.12,2.63-1.39,5.58-2.09,8.78-2.09,4.65,0,9.67,1.52,14.51,4.4,1.47.87,2.93,1.87,4.36,2.97,1.07-.18,2.16-.27,3.23-.27,1.7,0,3.38.22,5.02.65,6.45-4.81,12.6-7.25,18.31-7.25.87,0,1.75.06,2.6.17,9.77,1.3,16.61,9,17.85,20.1.29,2.61.22,5.32-.2,7.91.9,1.4,1.44,2.98,1.58,4.65.62,7.39,1.05,14.9,1.28,22.31.52,16.38.08,32.99-1.28,49.36-.44,5.23-4.89,9.33-10.14,9.33H10.18Z"/><path class="cls-4" d="m11.63,109.96h69.97c4.16,0,7.62-3.19,7.97-7.33,1.36-16.29,1.79-32.81,1.28-49.11-.23-7.37-.66-14.84-1.28-22.19-.14-1.63-.76-3.11-1.72-4.31.54-2.72.64-5.56.34-8.19-1.12-10.05-7.24-17.02-15.97-18.18-6.11-.81-12.88,1.65-20.18,7.32-1.72-.56-3.55-.87-5.46-.87-1.3,0-2.58.15-3.8.42-1.59-1.29-3.23-2.43-4.9-3.43C30.27-.42,22.55-1.24,16.71,1.84c-4.62,2.44-8.13,7.43-9.63,13.69-.82,3.44-.98,6.95-.52,10.28-1.79,1.47-2.92,3.69-2.92,6.18v69.97c0,4.42,3.58,7.99,7.99,7.99Z"/><path class="cls-6" d="m10.93,32.08l1.11,70.06,69.61.44s4.66-61.41-.22-70.5H10.93Z"/><path class="cls-1" d="m20.35,89.42c-.97-2.4,2.51-4.01,3.74-1.32,1.23,2.69-2.51,4.35-3.74,1.32Z"/><path class="cls-1" d="m25,46.46c-1.56-2.08,1.41-4.55,3.3-2.25,1.89,2.3-1.32,4.88-3.3,2.25Z"/><path class="cls-1" d="m66.29,49.99c-2.03-.82-.97-3.88,1.39-3.05,2.36.83,1.17,4.08-1.39,3.05Z"/><path class="cls-1" d="m71.3,89.87c-1.48,1.96-4.5-.09-2.91-2.41,1.6-2.32,4.78-.07,2.91,2.41Z"/><path class="cls-1" d="m30.69,82.91c-1.36,1.92-4.3.05-2.85-2.21,1.45-2.26,4.56-.22,2.85,2.21Z"/><polygon class="cls-2" points="39.53 39.18 39.31 57.8 17.8 59.79 18.47 72.87 39.97 73.54 39.97 93.49 52.83 93.93 52.44 71.95 75.22 72.21 74.56 59.57 53.27 58.02 52.83 38.51 39.53 39.18"/><path class="cls-1" d="m63.47,79.75c1.47-.8,2.76,1.32,1.12,2.3s-2.98-1.3-1.12-2.3Z"/><path class="cls-1" d="m63.36,40.48c-.41-1.91,2.38-2.66,2.95-.5.57,2.16-2.43,2.91-2.95.5Z"/><path class="cls-1" d="m18.7,49.51c.5-2.93,4.87-2.41,4.45.96-.42,3.37-5.08,2.74-4.45-.96Z"/><path class="cls-3" d="m75.78,75.71H18.9c-1.42,0-2.58-1.15-2.58-2.58v-13.39c0-1.31.99-2.41,2.29-2.56,4.54-.51,9.16-.92,13.72-1.23,18.8-1.28,24.83-.86,43.74,1.23,1.3.14,2.29,1.25,2.29,2.56v13.39c0,1.42-1.15,2.58-2.58,2.58Zm-54.31-5.15h51.74v-8.5c-17.86-1.85-22.8-2.17-40.53-.97-3.72.25-7.48.58-11.2.97v8.51Z"/><path class="cls-2" d="m13.59,31.86s-.89-25.05,11.31-24.61,15.52,9.09,15.52,9.09c0,0,7.54-3.33,12.64.67,0,0,9.09-12.86,20.17-8.65,11.08,4.21,5.54,22.83,5.54,22.83l-65.18.67Z"/><path class="cls-3" d="m55.57,18.77c4.95-4.44,10.72-8.25,15.25-7.64,5.53.74,6.65,6.98,6.87,8.88.18,1.6.12,3.09-.09,4.4-1.22,3.56,3.86,4.11,4.77,2.2,0-.02.03.02.04.03.54-2.3.66-4.83.4-7.2-.83-7.45-5.16-12.59-11.3-13.41-5.49-.73-12.07,2.33-19.56,9.11,1.92-.03,3.73,1.36,3.63,3.64Z"/><path class="cls-3" d="m35.11,8.75c-5.95-3.53-11.73-4.3-15.87-2.12-3.24,1.71-5.75,5.41-6.89,10.16-.37,1.56-.58,3.13-.62,4.68-.04,1.44,1.13,2.62,2.57,2.62.02,0,.03,0,.05,0,1.38,0,2.5-1.11,2.54-2.49.03-1.2.19-2.41.48-3.61.78-3.26,2.38-5.8,4.28-6.81.77-.41,1.74-.62,2.84-.62,3.93,0,9.7,2.66,15.34,8.6.02-.13.05-.27.09-.4.44-1.59,2.35-3.06,4.07-2.66-2.79-3.02-5.8-5.52-8.87-7.34Z"/><path class="cls-3" d="m39.53,24.94c-.01-.4,0-.8.07-1.22.45-3.17,3.05-5.68,6.23-6.01,4.22-.43,7.79,2.88,7.79,7.01v.02c0,1.15.92,2.1,2.07,2.05.22-.01.43-.02.65-.02.16,0,.32,0,.48-.01,1.07-.02,1.94-.88,1.95-1.95,0-.03,0-.06,0-.09,0-6.72-5.47-12.19-12.19-12.19s-12.19,5.47-12.19,12.19c0,.14,0,.28,0,.41.04,1.29,1.08,2.33,2.37,2.36.11,0,.21,0,.32,0,1.41.03,2.5-1.15,2.46-2.56Z"/><path class="cls-3" d="m81.6,104.54H11.63c-1.42,0-2.58-1.15-2.58-2.58V32c0-1.42,1.15-2.58,2.58-2.58h69.97c1.34,0,2.45,1.03,2.57,2.36.61,7.26,1.03,14.63,1.26,21.91.51,16.09.08,32.41-1.26,48.49-.11,1.33-1.23,2.36-2.57,2.36Zm-67.39-5.15h65.02c1.18-15.12,1.53-30.43,1.05-45.54-.2-6.4-.56-12.88-1.05-19.28H14.2v64.82Z"/><path class="cls-3" d="m42.49,58.98v-17.69h8.24v17.66c.13,0,.26,0,.38,0,1.51-.01,3.18.03,4.77.31v-20.55c0-1.42-1.15-2.58-2.58-2.58h-13.39c-1.42,0-2.58,1.15-2.58,2.58v20.25c1.72,0,3.43,0,5.15,0Z"/><path class="cls-3" d="m52.44,71.95c-.57-.01-1.14-.03-1.71-.05v19.67h-8.24v-20.04c-1.72-.08-3.43-.16-5.15-.21v22.83c0,1.42,1.15,2.58,2.58,2.58h13.39c1.42,0,2.58-1.15,2.58-2.58v-22.26c-1.15.1-2.31.08-3.44.06Z"/></g></g></g></svg>