<?xml version="1.0" encoding="UTF-8"?><svg id="Layer_2" xmlns="http://www.w3.org/2000/svg" viewBox="0 0 97.08 107.83"><defs><style>.cls-1{fill:#8b4832;}.cls-1,.cls-2,.cls-3,.cls-4,.cls-5{stroke-width:0px;}.cls-2{fill:#fff;}.cls-3{fill:#00252e;}.cls-4{fill:#001920;}.cls-5{fill:#008c9d;}</style></defs><g id="Layer_2-2"><path class="cls-4" d="m48.52,107.83c-6.12,0-12.58-3.67-19.75-11.22-.36-.38-.67-.71-.94-1-.77-.81-1.27-1.35-1.52-1.53-.09-.06-.26-.11-.87-.26-.59-.15-1.39-.35-2.59-.74-1.96-.63-3.71-1.39-5.41-2.12-.7-.3-1.4-.61-2.13-.91C7.55,86.84-.68,82.45.04,70.91c.19-2.98.97-6.02,1.73-8.96.84-3.27,1.64-6.35,1.48-8.83-.15-2.33-.79-4.63-1.47-7.08-1.29-4.66-2.63-9.48-.71-14.93,2.74-7.76,8.65-9.78,14.91-11.92l.49-.17c.81-.28,1.94-.58,3.25-.93,1.88-.5,4.71-1.26,5.55-1.76.72-.43,1.3-1.17,2.03-2.11.45-.57.95-1.22,1.57-1.9,2.33-2.55,10.64-10.87,19.72-10.87,7.14,0,12.51,4.53,17.41,9.16.7.66,1.31,1.28,1.91,1.87,1.66,1.66,2.86,2.87,4.51,3.69,1.17.59,2.99,1.09,4.76,1.58,1.6.44,3.25.9,4.63,1.47,6.49,2.68,13.85,5.72,15.15,15.63.55,4.2-.58,8.35-1.66,12.37-.88,3.26-1.72,6.33-1.44,8.84.24,2.12.83,4.21,1.47,6.42,1.11,3.89,2.26,7.9,1.54,12.45-1.62,10.32-9.37,12.98-16.21,15.32-.62.21-1.47.48-2.45.78-1.97.61-4.68,1.45-5.72,1.97-1.14.57-1.25.69-1.87,1.41-.34.38-.8.91-1.52,1.63-4.73,4.7-11.88,11.79-20.55,11.79Z"/><path class="cls-3" d="m96.23,31.51c-1.11-8.43-6.9-11.04-13.82-13.9-2.79-1.15-7.06-1.86-9.54-3.12-2.61-1.32-4.23-3.38-6.93-5.93C61.56,4.42,56.54,0,50.03,0c-6.72,0-13.77,5.42-18.11,10.16-1.62,1.77-2.45,3.43-4.09,4.41-1.68,1-7.09,2.16-9.21,2.88-6.28,2.15-11.6,3.8-14.04,10.75-2.65,7.51,1.83,14.05,2.3,21.14.34,5.2-2.83,11.98-3.21,18.07-.63,9.95,6.15,13.78,13.93,17,2.53,1.04,4.75,2.13,7.37,2.97,4.7,1.5,3.06.12,6.84,4.1,4.57,4.81,11.1,10.54,18.16,10.54,7.53,0,14.03-6.2,19.02-11.16,2.1-2.09,1.73-2.33,3.96-3.44,1.72-.85,6.5-2.2,8.43-2.86,7.24-2.48,13.39-4.83,14.76-13.6,1.03-6.54-2.34-12.2-3.02-18.29-.69-6.15,4.05-14,3.11-21.17Z"/><path class="cls-4" d="m66.04,80.99c-1.7-1.07-.24-3.66,1.75-2.53,2,1.13.4,3.88-1.75,2.53Z"/><path class="cls-4" d="m12.65,52.71c-.22-2.59,3.61-3.1,3.99-.15.38,2.95-3.72,3.43-3.99.15Z"/><path class="cls-1" d="m58.15,39.66c-2.17.02-2.36-3.19.12-3.33,2.48-.13,2.62,3.3-.12,3.33Z"/><path class="cls-4" d="m33.91,21.05c1.27-1.32,3.31.47,1.93,2.04-1.39,1.57-3.53-.38-1.93-2.04Z"/><path class="cls-4" d="m29,79.56c.54,1.51-1.66,2.43-2.36.73-.7-1.7,1.67-2.64,2.36-.73Z"/><path class="cls-4" d="m83.22,53.59c-.2-2.01,2.77-2.45,3.1-.17.33,2.29-2.84,2.71-3.1.17Z"/><path class="cls-5" d="m22.09,33.13c-5.1,8.76,2.66,10.2,1,18.84-1.66,8.65-3.21,9.53-.89,14.96,2.33,5.43,9.87,5.1,13.86,7.43s7.43,9.53,13.86,9.31,7.43-5.32,12.53-9.09c5.1-3.77,11.2-1,15.52-6.76,4.32-5.76.55-10.64.33-16.85-.22-6.21.78-11.64-1-16.18-2.35-6.02-9.04-5.44-13.41-8.09-4.37-2.65-6.08-7.75-13.75-7.87-6.98-.11-10.2,7.54-13.97,8.65-7.77,2.28-11.08.51-14.08,5.65Z"/><path class="cls-2" d="m87,29.69c-.71-1.23-2.29-1.65-3.52-.94-1.4.81-3.15,1.82-5.11,2.95l.51-3.79c.19-1.41-.8-2.71-2.21-2.89-1.41-.19-2.71.8-2.89,2.21l-1.03,7.71c-1.02.59-2.06,1.18-3.09,1.78-.33.19-.66.38-.99.57l.7-4.63c.21-1.41-.75-2.72-2.16-2.93-1.41-.22-2.72.75-2.93,2.16l-1.32,8.69c-2.83,1.63-5.37,3.09-7.26,4.19-.76.44-1.82,1.05-3.09,1.78,0-3.54,0-7.44,0-11.36l6.81-4.87c1.16-.83,1.42-2.44.6-3.59-.83-1.16-2.44-1.42-3.59-.6l-3.81,2.73c0-1.87,0-3.69,0-5.42l6.26-4.03c1.2-.77,1.54-2.36.77-3.56-.77-1.2-2.36-1.54-3.56-.77l-3.47,2.23c0-2.78,0-5.03,0-6.42s-1.15-2.58-2.58-2.58-2.58,1.15-2.58,2.58c0,1.31,0,3.36,0,5.9l-3.03-2.33c-1.13-.87-2.74-.66-3.61.47-.87,1.13-.66,2.74.47,3.61l6.17,4.75c0,1.66,0,3.4,0,5.18l-3.57-2.85c-1.11-.89-2.73-.71-3.62.4-.89,1.11-.71,2.73.4,3.62l6.78,5.42c0,3.96,0,7.91,0,11.49-3.09-1.79-6.51-3.76-9.93-5.74l-.39-.23-.82-8.41c-.14-1.42-1.4-2.45-2.81-2.31-1.42.14-2.45,1.4-2.31,2.81l.46,4.74c-1.45-.84-2.86-1.65-4.21-2.43l-.36-7.44c-.07-1.42-1.28-2.52-2.7-2.45-1.42.07-2.52,1.28-2.45,2.7l.2,4.12c-2.41-1.39-4.35-2.52-5.56-3.21-1.23-.71-2.81-.29-3.52.94-.71,1.23-.29,2.81.94,3.52,1.13.65,2.91,1.68,5.11,2.95l-3.53,1.45c-1.32.54-1.94,2.05-1.4,3.36.41.99,1.37,1.6,2.38,1.6.33,0,.66-.06.98-.19l7.2-2.96c1.26.73,2.58,1.49,3.93,2.27l-4.19,1.64c-1.32.52-1.98,2.01-1.46,3.34.4,1.02,1.37,1.64,2.4,1.64.31,0,.63-.06.94-.18l8.02-3.13c.19.11.38.22.57.33,3.42,1.98,6.84,3.95,9.93,5.74-3.07,1.77-6.47,3.73-9.87,5.69-.17.1-.34.19-.5.29l-7.52-3.42c-1.29-.59-2.82-.02-3.41,1.28-.59,1.29-.02,2.82,1.28,3.41l4.16,1.89c-1.43.83-2.83,1.63-4.17,2.4l-6.62-3.41c-1.26-.65-2.82-.15-3.47,1.11-.65,1.26-.15,2.82,1.11,3.47l3.67,1.89c-2.41,1.39-4.36,2.51-5.56,3.21-1.23.71-1.65,2.29-.94,3.52.48.83,1.34,1.29,2.23,1.29.44,0,.88-.11,1.29-.35,1.13-.65,2.91-1.68,5.11-2.95l-.51,3.79c-.19,1.41.8,2.71,2.21,2.89.12.02.23.02.34.02,1.27,0,2.38-.94,2.55-2.23l1.03-7.72c1.31-.76,2.68-1.55,4.09-2.36l-.71,4.64c-.21,1.41.75,2.72,2.16,2.93.13.02.26.03.39.03,1.25,0,2.35-.91,2.54-2.19l1.33-8.7c.16-.09.32-.19.49-.28,3.4-1.96,6.8-3.92,9.87-5.69,0,1.48,0,2.71,0,3.59,0,2.05,0,4.76,0,7.77l-6.82,4.88c-1.16.83-1.42,2.44-.6,3.59.83,1.16,2.44,1.42,3.59.6l3.82-2.73c0,.64,0,1.28,0,1.93,0,1.17,0,2.34,0,3.49l-6.27,4.03c-1.2.77-1.54,2.36-.77,3.56.77,1.2,2.36,1.54,3.56.77l3.47-2.23c0,2.47,0,4.69,0,6.42,0,1.42,1.15,2.58,2.58,2.58s2.58-1.15,2.58-2.58c0-1.61,0-3.64,0-5.9l3.03,2.33c.47.36,1.02.54,1.57.54.77,0,1.53-.35,2.04-1,.87-1.13.66-2.74-.47-3.61l-6.16-4.75c0-1.2,0-2.42,0-3.64,0-.51,0-1.03,0-1.54l3.56,2.85c.47.38,1.04.56,1.61.56.76,0,1.5-.33,2.01-.97.89-1.11.71-2.73-.4-3.62l-6.77-5.42c0-3.07,0-5.84,0-7.92,0-.88,0-2.1,0-3.58,1.28.74,2.34,1.35,3.1,1.79,1.88,1.09,4.41,2.55,7.21,4.17l.82,8.42c.13,1.33,1.25,2.33,2.56,2.33.08,0,.17,0,.25-.01,1.42-.14,2.45-1.4,2.31-2.81l-.46-4.75c.39.22.77.45,1.16.67,1.02.59,2.04,1.18,3.05,1.77l.36,7.44c.07,1.38,1.2,2.45,2.57,2.45.04,0,.08,0,.13,0,1.42-.07,2.52-1.28,2.45-2.7l-.2-4.13c2.14,1.24,4.06,2.35,5.56,3.22.41.23.85.35,1.29.35.89,0,1.76-.46,2.23-1.29.71-1.23.29-2.81-.94-3.52-1.4-.81-3.15-1.82-5.11-2.95l3.53-1.45c1.32-.54,1.94-2.05,1.4-3.36-.54-1.32-2.05-1.94-3.36-1.4l-7.19,2.96c-1.05-.61-2.11-1.22-3.18-1.84-.25-.14-.5-.29-.75-.43l4.18-1.63c1.32-.52,1.98-2.01,1.46-3.34-.52-1.32-2.01-1.98-3.34-1.46l-8.01,3.13c-2.88-1.67-5.49-3.18-7.41-4.29-.76-.44-1.82-1.05-3.1-1.79,1.28-.74,2.34-1.35,3.1-1.79,1.89-1.09,4.44-2.56,7.26-4.19l7.53,3.42c.35.16.71.23,1.06.23.98,0,1.91-.56,2.35-1.51.59-1.3.02-2.82-1.28-3.41l-4.17-1.9c.4-.23.8-.46,1.21-.69.99-.57,1.99-1.14,2.97-1.71l6.63,3.41c.38.19.78.29,1.18.29.93,0,1.83-.51,2.29-1.4.65-1.26.15-2.82-1.11-3.47l-3.67-1.89c2.14-1.23,4.06-2.34,5.57-3.21,1.23-.71,1.65-2.29.94-3.52Z"/></g></svg>