<?xml version="1.0" encoding="UTF-8"?><svg xmlns="http://www.w3.org/2000/svg" viewBox="0 0 112.55 127.38"><defs><style>.cls-1,.cls-2{mix-blend-mode:multiply;}.cls-1,.cls-2,.cls-3,.cls-4,.cls-5,.cls-6,.cls-7{stroke-width:0px;}.cls-1,.cls-3{fill:#c80021;}.cls-2,.cls-7{fill:#007600;}.cls-8{isolation:isolate;}.cls-4{fill:#fff;}.cls-5{fill:#00252e;}.cls-6{fill:#001920;}</style></defs><g class="cls-8"><g id="Layer_2"><g id="Layer_2-2"><path class="cls-6" d="m81.66,127.38c-.3,0-.59-.01-.89-.03-4.01-.28-7.57-2.42-9.72-5.67-2.11,1.48-4.65,2.29-7.28,2.29-1.26,0-2.52-.19-3.73-.56-4.27-1.31-7.53-4.76-8.61-9.08-.53-.59-1.48-1.27-2.12-1.27-.09,0-.19.01-.29.03-.82.16-1.66.25-2.49.25-3.38,0-6.56-1.31-8.96-3.69-1.62-1.61-2.77-3.62-3.34-5.84-.29-.48-.57-.95-.83-1.41-2.05.67-4.18,1.01-6.36,1.01-5.51,0-10.68-2.16-14.56-6.08-3.84-3.89-5.95-9.04-5.91-14.51,0-.6.03-1.2.09-1.8-2.87-2.62-4.91-5.96-5.93-9.73-2.96-10.89,3.5-22.16,14.4-25.12.4-.11.82-.21,1.26-.29,1.48-1.85,3.51-4.81,4.04-10.18.29-3,1-6.8,3.92-9.58,1.45-1.38,3.17-2.38,5.05-2.96.01-.48,0-.98-.01-1.51-.21-4.87,2.32-9.35,6.59-11.69,1.87-1.03,3.99-1.57,6.12-1.57,1.72,0,3.4.34,4.96,1,1.69-4.16,5.52-7.19,10.01-7.83.59-.08,1.19-.13,1.79-.13,3.96,0,7.73,1.87,10.12,5.02.35.29,1.1.72,1.63.91,2.15-1.49,4.64-2.28,7.26-2.28,3.28,0,6.39,1.24,8.76,3.5,4.44,4.22,5.25,10.95,1.95,16.09-.31.72-1.72,4.24.02,5.93,4.4,4.26,5.14,11.05,1.77,16.16-2.2,3.32-5.78,5.4-9.72,5.67.25,2.63-.33,5.27-1.64,7.55.13,0,.25,0,.37,0,2.36,0,4.68.66,6.69,1.9,3.38,2.09,5.52,5.53,5.95,9.36.55-.07,1.11-.11,1.66-.11,3.92,0,7.69,1.86,10.08,4.96,2.81,3.65,3.42,8.51,1.62,12.74-.06.38-.13,1.16,0,1.91,5.45,2.63,8.29,8.63,6.82,14.54-1.42,5.67-6.49,9.64-12.33,9.64-.24,0-.48,0-.72-.02-.79.08-4.54.61-5.15,2.94-1.45,5.61-6.52,9.53-12.31,9.53Z"/><path class="cls-5" d="m105.39,88.88c-.27-.11-.5-.21-.71-1.24-.28-1.36-.07-2.69.02-3.08,1.6-3.55,1.13-7.65-1.26-10.75-1.98-2.58-5.1-4.11-8.35-4.11-.72,0-1.44.07-2.14.22-.61.13-1.17.2-1.67.22,0-.02,0-.04,0-.06.38-4.02-1.52-7.83-4.95-9.95-1.67-1.03-3.58-1.58-5.54-1.58s-5.71.61-4.15-.87c3.05-2.89,4.08-7.23,2.69-11.16.6.11,1.22.16,1.84.16,3.55,0,6.84-1.77,8.79-4.73,2.8-4.23,2.18-9.86-1.46-13.39-2.93-2.84-.78-7.78-.42-8.55,2.84-4.28,2.21-9.91-1.53-13.46-1.97-1.87-4.54-2.9-7.26-2.9-2.34,0-4.56.75-6.42,2.18-.25.19-.32.19-.47.19-1.2,0-3.05-1.15-3.62-1.7-1.98-2.71-5.14-4.32-8.51-4.32-.49,0-.99.04-1.48.1-3.97.56-7.33,3.4-8.56,7.22-.22.69-.44,1.19-.63,1.56-.02-.01-.03-.02-.05-.03-1.78-1.24-3.86-1.9-6.03-1.9-1.77,0-3.52.45-5.07,1.3-3.54,1.94-5.63,5.65-5.46,9.69.06,1.47,0,2.57-.11,3.36-2.09.33-4.04,1.29-5.6,2.78-2.24,2.13-2.95,5.14-3.25,8.21-.65,6.66-3.5,10.12-5.03,11.97-.63.1-1.25.23-1.87.39-9.73,2.64-15.5,12.71-12.86,22.44,1.03,3.8,3.23,7.05,6.13,9.4-.14.89-.21,1.79-.21,2.7-.03,4.89,1.85,9.49,5.28,12.96,3.46,3.5,8.08,5.43,13.01,5.43,2.58,0,5.08-.54,7.38-1.55.49.99,1.1,2.08,1.85,3.29.44,1.93,1.42,3.72,2.84,5.14,1.99,1.97,4.62,3.06,7.42,3.06.69,0,1.39-.07,2.06-.2.25-.05.49-.07.72-.07,1.83,0,3.57,1.67,4.14,2.48.77,3.74,3.56,6.84,7.23,7.96,1,.31,2.04.46,3.09.46,3.08,0,5.95-1.31,7.95-3.62,1.37,3.89,4.95,6.71,9.21,7,.24.02.49.03.74.03,4.8,0,8.99-3.25,10.2-7.89,1.02-3.95,6.46-4.52,7.22-4.58.25.02.5.03.75.03,4.84,0,9.04-3.28,10.22-7.99,1.27-5.06-1.31-10.22-6.11-12.26Z"/><circle class="cls-3" cx="21.9" cy="62.67" r="9.48"/><circle class="cls-3" cx="28.05" cy="79.63" r="9.48"/><path class="cls-7" d="m37.61,78.67s3.77,6.28,1.96,10.01c6.24-.48,9.05,4.98,8.41,8.32,9.71-1.94,16.95,6.77,17.25,10.63,7.08-8.91,17-4.29,17.89,3.41,2.77-10.67,14.56-12.77,18.17-12.45-8.95-3.8-7.74-15.24-6.19-18.35-9.12,1.89-15.12-2.43-14.3-11.15-6.56,4.09-13.89,5.84-16.79-.8-7.4,4.75-11.72,6.87-14.12,2.87-4.8,3.65-8.64,8.13-12.27,7.51Z"/><path class="cls-4" d="m103.29,93.84c-1.68-.71-2.78-1.87-3.46-3.63-1.16-3.03-.56-6.77-.13-7.68.88-1.77.68-3.88-.53-5.44-.99-1.28-2.5-2.01-4.08-2.01-.35,0-.7.04-1.05.11-1.06.22-2.06.33-2.98.33-1.33,0-3.13-.24-4.15-1.36-1.07-1.18-1.13-3.15-1-4.6.18-1.95-.75-3.84-2.42-4.87-.83-.51-1.77-.77-2.71-.77-.95,0-1.89.26-2.72.78-2.91,1.81-5.62,2.85-7.44,2.85-.98,0-1.41-.2-1.91-1.34-.6-1.38-1.78-2.43-3.23-2.87-.49-.15-.99-.22-1.5-.22-.98,0-1.94.28-2.78.82-3.56,2.28-6,3.64-7.28,4.04-.76-.97-1.86-1.65-3.08-1.88-.32-.06-.65-.09-.97-.09-1.12,0-2.22.36-3.12,1.05-1.3.99-2.49,1.99-3.63,2.96-.04.03-.07.06-.11.09-4.14,2.85.46,6.46,2.27,4.82,1.44-1.2,2.96-2.53,4.59-3.77.87,1.46,2,2.1,3.44,2.1,2.51,0,5.97-1.96,10.68-4.98,1.39,3.18,3.79,4.44,6.63,4.44,3.1,0,6.74-1.5,10.16-3.63-.7,7.37,3.47,11.59,10.28,11.59,1.26,0,2.6-.14,4.02-.44-1.55,3.11-2.77,14.55,6.19,18.35-.22-.02-.47-.03-.75-.03-4.27,0-14.81,2.46-17.41,12.48-.54-4.72-4.48-8.28-9.07-8.28-2.9,0-6.07,1.42-8.81,4.87-.27-3.48-6.18-10.91-14.46-10.91-.9,0-1.83.09-2.78.28.56-2.9-1.49-7.4-6.12-8.22-4.25-1.1-7.06,3.4-3.53,4.9.4.1.82.15,1.24.15.13,0,.26,0,.39-.02.12,0,.25-.01.36-.01.86,0,1.48.24,1.95.76.53.59.66,1.28.64,1.48-.32,1.68.22,3.4,1.43,4.61.97.97,2.28,1.5,3.63,1.5.34,0,.67-.03,1.01-.1.59-.12,1.19-.18,1.77-.18,5.42,0,8.99,4.91,9.34,6.25.2,2.07,1.62,3.82,3.62,4.43.5.15,1.01.23,1.51.23,1.54,0,3.04-.69,4.03-1.94,1.5-1.89,3.2-2.93,4.78-2.93,1.98,0,3.72,1.63,3.96,3.72.28,2.46,2.28,4.38,4.76,4.55.12,0,.24.01.36.01,2.33,0,4.39-1.57,4.98-3.86.76-2.92,2.62-5.19,5.52-6.74,2.77-1.48,5.64-1.88,6.91-1.88.17,0,.26,0,.3.01.15.01.31.02.46.02,2.34,0,4.42-1.59,4.99-3.9.61-2.46-.65-5-2.99-5.99Z"/><path class="cls-4" d="m81.8,90.11l-31.93-10.23c-1.37-.44-2.84.35-3.23,1.74,0,0,0,.01,0,.02-.38,1.34.37,2.74,1.7,3.16l31.92,10.22c1.32.42,2.73-.29,3.17-1.59l.02-.05c.46-1.36-.28-2.83-1.64-3.27Z"/><path class="cls-4" d="m76.29,101.21c-1.33,0-2.46-1.03-2.56-2.38l-.61-7.95c-.06-.79.25-1.57.84-2.11l7.74-7.02c1.05-.95,2.68-.88,3.64.18.96,1.05.88,2.68-.18,3.64l-6.81,6.17.51,6.69c.11,1.42-.95,2.66-2.37,2.76-.07,0-.13,0-.2,0Z"/><path class="cls-4" d="m63.1,99.23c-1.33,0-2.46-1.03-2.56-2.38l-.77-10.11c-.05-.67.16-1.34.6-1.86l6.96-8.27c.92-1.09,2.54-1.23,3.63-.31,1.09.92,1.23,2.54.31,3.63l-6.29,7.47.69,9.06c.11,1.42-.95,2.66-2.37,2.76-.07,0-.13,0-.2,0Z"/><path class="cls-4" d="m52.28,94.12c-1.24,0-2.34-.9-2.54-2.17l-1.35-8.53c-.11-.7.07-1.42.51-1.98l4.82-6.21c.87-1.12,2.49-1.33,3.61-.46,1.12.87,1.33,2.49.46,3.61l-4.13,5.33,1.17,7.43c.22,1.4-.74,2.72-2.14,2.95-.14.02-.27.03-.41.03Z"/><path class="cls-4" d="m28.49,92.18s-.05,0-.07,0c-3.44-.02-6.66-1.38-9.08-3.82-2.42-2.44-3.74-5.68-3.72-9.12.02-3.44,1.38-6.66,3.82-9.08,2.44-2.42,5.68-3.75,9.12-3.72,3.44.02,6.66,1.38,9.08,3.82,4.99,5.05,4.94,13.21-.1,18.2-2.43,2.4-5.64,3.72-9.05,3.72Zm0-20.59c-2.05,0-3.97.79-5.43,2.23-1.47,1.45-2.28,3.38-2.29,5.45-.01,2.06.78,4,2.23,5.47h0c1.45,1.47,3.38,2.28,5.45,2.29.01,0,.03,0,.04,0,2.05,0,3.97-.79,5.43-2.23,3.03-2.99,3.05-7.89.06-10.92-1.45-1.47-3.38-2.28-5.45-2.29-.01,0-.03,0-.04,0Z"/><path class="cls-7" d="m30.6,59.8s7.32-.19,9.68,3.22c2.66-5.66,8.79-5.42,11.38-3.22,3.09-9.41,14.24-11.42,17.74-9.78-4.26-10.55,4.64-16.91,11.78-13.89-7.92-7.66-3.94-18.96-1.89-21.94-7.71,5.93-17.08-.77-19.02-3.65-2.84,8.87-9.56,11.97-16.75,6.95.33,7.72-1.75,14.97-8.97,14.22.49,8.78.21,13.59-4.45,13.7.82,5.98,2.82,11.52.5,14.38Z"/><path class="cls-4" d="m84.76,32.43c-2.3-2.22-3.35-5.15-3.13-8.7.2-3.18,1.39-5.87,1.9-6.62,1.44-2.09,1.14-4.91-.69-6.66-.99-.94-2.27-1.42-3.55-1.42-1.1,0-2.21.35-3.14,1.07-1.14.88-2.37,1.31-3.75,1.31-3.63,0-7.22-2.85-7.86-3.75-.96-1.43-2.57-2.27-4.27-2.27-.24,0-.48.02-.73.05-1.95.28-3.58,1.65-4.18,3.53-.56,1.74-2.17,5.77-5.12,5.77-1.09,0-2.4-.51-3.78-1.47-.88-.61-1.91-.93-2.95-.93-.85,0-1.7.21-2.48.64-1.72.94-2.75,2.78-2.67,4.73.2,4.81-.74,7.57-1.61,8.48-.2.21-.46.42-1.21.42-.15,0-.31,0-.47-.03-.18-.02-.36-.03-.53-.03-1.32,0-2.59.5-3.55,1.42-1.09,1.04-1.67,2.51-1.59,4.01.23,4.22.21,7.01-.07,8.33-1.22.18-2.35.8-3.16,1.76-.89,1.05-1.32,2.41-1.2,3.78-.02,3.77,5.83,4.63,5.55,2.2-.16-.87-.31-1.75-.43-2.64,4.66-.12,4.94-4.92,4.45-13.7.35.04.68.05,1,.05,6.4,0,8.28-6.92,7.97-14.27,2.33,1.63,4.61,2.4,6.73,2.4,4.41,0,8.1-3.36,10.02-9.35,1.38,2.05,6.51,6.02,12.13,6.02,2.29,0,4.66-.66,6.89-2.37-2.06,2.98-6.04,14.28,1.89,21.94-1.21-.51-2.46-.75-3.7-.75-6.07,0-11.62,5.87-8.08,14.64-.71-.33-1.74-.52-2.96-.52-4.75,0-12.32,2.8-14.78,10.29-1.04-.88-2.64-1.45-4.36-1.45-2.21,0-4.6.94-6.25,3.33-.02.17-.04.33-.08.5-.05.21-.15.41-.24.61-.07.18-.15.39-.25.57-.11.18-.24.36-.37.53-3.04,3.38-.17,5.22,1.89,3.98,1.28-.45,2.36-1.4,2.95-2.66.54-1.15,1.31-1.7,2.35-1.7.53,0,.92.16,1.04.23.94.79,2.12,1.21,3.32,1.21.47,0,.93-.06,1.39-.19,1.65-.46,2.96-1.72,3.5-3.35,1.62-4.92,6.93-6.75,9.89-6.75.5,0,.78.05.87.07.67.3,1.38.44,2.09.44,1.29,0,2.57-.49,3.54-1.41,1.54-1.46,2.03-3.71,1.23-5.67-.96-2.38-.98-4.46-.04-5.85.72-1.07,1.97-1.71,3.34-1.71.58,0,1.15.12,1.69.35.65.28,1.33.41,2,.41,1.69,0,3.32-.83,4.3-2.31,1.37-2.07,1.07-4.82-.72-6.54Z"/><path class="cls-4" d="m64.8,24.69l-27.01,24.96c-1.04.96-1.1,2.6-.12,3.63.01.01.02.03.04.04.96,1.01,2.55,1.06,3.58.12l27.01-24.96c1.05-.97,1.1-2.61.11-3.64-.01-.01-.02-.02-.04-.04-.96-1-2.55-1.05-3.57-.11Z"/><path class="cls-4" d="m67.16,38.38c-.37,0-.74-.08-1.09-.24l-7.22-3.38c-.72-.34-1.24-.99-1.42-1.77l-2.29-10.2c-.31-1.39.56-2.77,1.95-3.08,1.39-.31,2.77.56,3.08,1.95l2.02,8.96,6.08,2.85c1.29.6,1.84,2.14,1.24,3.42-.44.93-1.37,1.48-2.33,1.48Z"/><path class="cls-4" d="m58.98,48.83c-.37,0-.74-.08-1.09-.24l-9.18-4.3c-.61-.29-1.09-.8-1.32-1.43l-3.77-10.14c-.5-1.33.18-2.82,1.52-3.31,1.33-.5,2.82.18,3.31,1.52l3.4,9.15,8.23,3.86c1.29.6,1.84,2.14,1.24,3.42-.44.93-1.37,1.48-2.33,1.48Z"/><path class="cls-4" d="m49.23,55.7c-.3,0-.6-.05-.9-.16l-8.08-3.02c-.67-.25-1.2-.76-1.47-1.42l-3.03-7.25c-.55-1.31.07-2.82,1.38-3.37,1.31-.55,2.82.07,3.37,1.38l2.6,6.22,7.04,2.63c1.33.5,2.01,1.98,1.51,3.31-.39,1.03-1.37,1.67-2.41,1.67Z"/><path class="cls-4" d="m34.35,58.94c-.9-3.32-3.04-6.09-6.02-7.8-2.98-1.71-6.45-2.16-9.77-1.25-6.85,1.86-10.91,8.94-9.05,15.79,1.33,4.89,5.32,8.36,9.99,9.27-.03-.22-.04-.46,0-.7.09-.78.28-1.47.55-2.08.03-.19.07-.39.13-.58.19-.62.51-1.15.91-1.6-3.06-.34-5.75-2.5-6.6-5.65-1.11-4.11,1.32-8.36,5.43-9.47.67-.18,1.36-.27,2.03-.27,1.33,0,2.64.35,3.83,1.03,1.79,1.03,3.07,2.69,3.61,4.68.54,1.99.27,4.07-.75,5.86-.25.44-.54.85-.87,1.22.39.01.78.07,1.17.18.01,0,.03,0,.05,0,1.56-.12,2.81,1,3.35,2.35.28-.38.54-.78.77-1.19,1.71-2.98,2.16-6.45,1.26-9.77Z"/><path class="cls-2" d="m88.52,92.59c2.8-.55,3.82,3.56.65,4.33-3.17.77-4.19-3.64-.65-4.33Z"/><path class="cls-5" d="m72.59,59.27c1.51,2.74-2.44,5.18-4.31,2.13-1.87-3.06,2.4-5.59,4.31-2.13Z"/><path class="cls-2" d="m67.3,19.84c.59,1.69-1.87,2.69-2.63.79-.76-1.9,1.89-2.93,2.63-.79Z"/><path class="cls-1" d="m30.75,76.32c1.54,1.42-.45,3.81-2.29,2.27-1.83-1.55.34-4.06,2.29-2.27Z"/></g></g></g></svg>