<?xml version="1.0" encoding="utf-8"?>
<!-- Generator: Adobe Illustrator 28.1.0, SVG Export Plug-In . SVG Version: 6.00 Build 0)  -->
<svg version="1.1" id="Layer_2_00000161604528500222991420000016857961993123340174_"
	 xmlns="http://www.w3.org/2000/svg" xmlns:xlink="http://www.w3.org/1999/xlink" x="0px" y="0px" viewBox="0 0 330.1 73.9"
	 style="enable-background:new 0 0 330.1 73.9;" xml:space="preserve">
<style type="text/css">
	.st0{fill:#FFFFFF;}
</style>
<path class="st0" d="M29.2,17.7c9.4,0.4,9.3-16.5,0.2-16.3C19.8,0.9,19.8,18.1,29.2,17.7 M27.3,4.8c0.9-1.4,1.7-1.3,2.4-1.2
	c3,0.7,2.5,8.5,1.7,10.3c-1.3,3.1-4.1,1.7-4.5-0.7C26.2,10.7,26.4,6.1,27.3,4.8"/>
<path class="st0" d="M12.6,64.2c0-8.7,0-18.4,0-27.2c0-10.5,7.9-14.5,12.5-11.6c1.9,1.5,1.8,3.8,1.9,6.3c0,0.6,0,6,0,6.4h0
	c0.1,19.9-0.6,28.2,1.6,30.8c5,6.5,16.5,3.4,19-4.9v2.4c2.9-1.1,7.7-1.1,11.4-0.8v-1.4c-1.9,0-3.3-0.5-4-1.4
	c-1.6-1.8-1.1-6.1-1.2-8.5h0c-0.1-3.3,0.3-17.3-0.4-19.8C51.6,24.1,34,27,33.2,36.9c-0.1-2.1,0.3-8.5-1.3-10.7
	c-2.1-3.9-8.1-4.7-12.3-3.1c-3.4,1.4-5.5,3.7-7,7.5v-2.4c-2.9,1.1-7.7,1.1-11.4,0.8v1.4c6.1-0.2,5.1,5.7,5.2,7.3v10.1
	c-0.2,11.9,1.4,14.9-5.2,15v1.4H12.6z M47.7,40.6v4.3h0c-0.1,10.2,0.8,17.3-2.6,21.6c-3,4.4-9,4.6-10.8,1.9
	c-1.8-2.9-0.9-8.4-1.1-11.8h0c0.1-3.7-0.3-16.1,0.4-17.9c2.4-9.9,11.7-10,13.3-6.1C47.9,34.8,47.6,37.9,47.7,40.6"/>
<g>
	<path class="st0" d="M77.5,42.5H75V29.2h2.5V42.5z"/>
	<path class="st0" d="M94.9,29.2v13.3h-2.2v-8.6c0-0.3,0-0.7,0.1-1.1l-4,7.6c-0.2,0.4-0.5,0.5-0.9,0.5h-0.3c-0.4,0-0.7-0.2-0.9-0.5
		l-4.1-7.6c0,0.2,0,0.4,0,0.6c0,0.2,0,0.4,0,0.5v8.6h-2.2V29.2h1.9c0.1,0,0.2,0,0.3,0c0.1,0,0.2,0,0.2,0s0.1,0.1,0.2,0.1
		c0.1,0.1,0.1,0.1,0.2,0.2l4,7.4c0.1,0.2,0.2,0.4,0.3,0.6c0.1,0.2,0.2,0.4,0.3,0.6c0.1-0.2,0.2-0.4,0.3-0.7c0.1-0.2,0.2-0.4,0.3-0.6
		l3.9-7.4c0-0.1,0.1-0.2,0.2-0.2c0.1-0.1,0.1-0.1,0.2-0.1s0.1,0,0.2,0c0.1,0,0.2,0,0.3,0H94.9z"/>
	<path class="st0" d="M109.3,42.5h-1.9c-0.2,0-0.4-0.1-0.5-0.2s-0.2-0.2-0.3-0.4l-1-2.7H100l-1,2.7c0,0.1-0.1,0.3-0.3,0.4
		c-0.1,0.1-0.3,0.2-0.5,0.2h-1.9l5.2-13.3h2.5L109.3,42.5z M104.9,37.4l-1.6-4.4c-0.1-0.2-0.2-0.4-0.2-0.7c-0.1-0.3-0.2-0.6-0.3-0.9
		c-0.1,0.3-0.2,0.6-0.2,0.9s-0.2,0.5-0.2,0.7l-1.6,4.4H104.9z"/>
	<path class="st0" d="M121.7,35.8v5.4c-0.7,0.5-1.4,0.9-2.2,1.1s-1.6,0.3-2.5,0.3c-1.1,0-2.1-0.2-3-0.5c-0.9-0.3-1.6-0.8-2.3-1.4
		s-1.1-1.3-1.4-2.2s-0.5-1.7-0.5-2.7c0-1,0.2-1.9,0.5-2.8c0.3-0.8,0.8-1.6,1.4-2.2s1.3-1.1,2.2-1.4c0.9-0.3,1.8-0.5,2.9-0.5
		c0.5,0,1,0,1.5,0.1s0.9,0.2,1.3,0.4c0.4,0.2,0.8,0.3,1.1,0.5s0.6,0.5,0.9,0.7l-0.7,1.1c-0.1,0.2-0.3,0.3-0.4,0.3
		c-0.2,0-0.4,0-0.6-0.1c-0.2-0.1-0.4-0.2-0.6-0.4c-0.2-0.1-0.4-0.2-0.7-0.3c-0.2-0.1-0.5-0.2-0.8-0.2s-0.7-0.1-1.1-0.1
		c-0.7,0-1.3,0.1-1.8,0.3c-0.5,0.2-1,0.5-1.4,0.9c-0.4,0.4-0.7,0.9-0.9,1.5s-0.3,1.2-0.3,1.9c0,0.8,0.1,1.4,0.3,2
		c0.2,0.6,0.5,1.1,0.9,1.5c0.4,0.4,0.9,0.7,1.4,0.9s1.2,0.3,1.9,0.3c0.5,0,0.9-0.1,1.3-0.2c0.4-0.1,0.8-0.2,1.1-0.4v-2.4h-1.7
		c-0.2,0-0.3,0-0.4-0.1c-0.1-0.1-0.1-0.2-0.1-0.3v-1.4H121.7z"/>
	<path class="st0" d="M136.8,35.8c0,1-0.2,1.9-0.5,2.7c-0.3,0.8-0.8,1.6-1.4,2.2c-0.6,0.6-1.3,1.1-2.1,1.4s-1.8,0.5-2.8,0.5
		c-1,0-1.9-0.2-2.8-0.5c-0.8-0.3-1.5-0.8-2.1-1.4c-0.6-0.6-1.1-1.3-1.4-2.2c-0.3-0.8-0.5-1.7-0.5-2.7s0.2-1.9,0.5-2.7
		c0.3-0.8,0.8-1.6,1.4-2.2c0.6-0.6,1.3-1.1,2.1-1.4c0.8-0.3,1.7-0.5,2.8-0.5c0.7,0,1.3,0.1,1.9,0.2c0.6,0.2,1.1,0.4,1.6,0.7
		c0.5,0.3,0.9,0.6,1.3,1s0.7,0.9,1,1.4c0.3,0.5,0.5,1,0.6,1.6C136.7,34.5,136.8,35.2,136.8,35.8z M134.2,35.8c0-0.7-0.1-1.4-0.3-2
		c-0.2-0.6-0.5-1.1-0.8-1.5c-0.4-0.4-0.8-0.7-1.3-0.9c-0.5-0.2-1.1-0.3-1.8-0.3s-1.2,0.1-1.8,0.3c-0.5,0.2-1,0.5-1.3,0.9
		c-0.4,0.4-0.6,0.9-0.8,1.5c-0.2,0.6-0.3,1.2-0.3,2s0.1,1.4,0.3,2c0.2,0.6,0.5,1.1,0.8,1.5c0.4,0.4,0.8,0.7,1.3,0.9
		c0.5,0.2,1.1,0.3,1.8,0.3s1.2-0.1,1.8-0.3c0.5-0.2,1-0.5,1.3-0.9s0.6-0.9,0.8-1.5C134.1,37.2,134.2,36.5,134.2,35.8z"/>
	<path class="st0" d="M157.9,29.2v13.3h-2.2v-8.6c0-0.3,0-0.7,0.1-1.1l-4,7.6c-0.2,0.4-0.5,0.5-0.9,0.5h-0.3c-0.4,0-0.7-0.2-0.9-0.5
		l-4.1-7.6c0,0.2,0,0.4,0,0.6c0,0.2,0,0.4,0,0.5v8.6h-2.2V29.2h1.9c0.1,0,0.2,0,0.3,0c0.1,0,0.2,0,0.2,0s0.1,0.1,0.2,0.1
		c0.1,0.1,0.1,0.1,0.2,0.2l4,7.4c0.1,0.2,0.2,0.4,0.3,0.6c0.1,0.2,0.2,0.4,0.3,0.6c0.1-0.2,0.2-0.4,0.3-0.7c0.1-0.2,0.2-0.4,0.3-0.6
		l3.9-7.4c0-0.1,0.1-0.2,0.2-0.2c0.1-0.1,0.1-0.1,0.2-0.1s0.1,0,0.2,0c0.1,0,0.2,0,0.3,0H157.9z"/>
	<path class="st0" d="M163.3,31.1v3.7h4.7v1.9h-4.7v3.8h5.9v2h-8.4V29.2h8.4v2H163.3z"/>
	<path class="st0" d="M183.2,35.8c0,1-0.2,1.9-0.5,2.7c-0.3,0.8-0.8,1.5-1.4,2.1c-0.6,0.6-1.3,1-2.1,1.4c-0.8,0.3-1.8,0.5-2.8,0.5
		h-5.1V29.2h5.1c1,0,1.9,0.2,2.8,0.5c0.8,0.3,1.5,0.8,2.1,1.4c0.6,0.6,1,1.3,1.4,2.1C183.1,33.9,183.2,34.8,183.2,35.8z M180.7,35.8
		c0-0.7-0.1-1.4-0.3-2c-0.2-0.6-0.5-1.1-0.8-1.5c-0.4-0.4-0.8-0.7-1.3-0.9c-0.5-0.2-1.1-0.3-1.8-0.3h-2.6v9.4h2.6
		c0.7,0,1.2-0.1,1.8-0.3c0.5-0.2,1-0.5,1.3-0.9s0.6-0.9,0.8-1.5S180.7,36.5,180.7,35.8z"/>
</g>
<g>
	<path class="st0" d="M84.5,60.8c0.1,0,0.2,0,0.3,0.1l0.7,0.8c-0.5,0.6-1.2,1.1-2,1.5c-0.8,0.4-1.7,0.5-2.8,0.5
		c-0.9,0-1.8-0.2-2.6-0.5c-0.8-0.3-1.4-0.8-2-1.4c-0.5-0.6-1-1.3-1.3-2.1s-0.5-1.7-0.5-2.7c0-1,0.2-1.9,0.5-2.7s0.8-1.5,1.3-2.1
		c0.6-0.6,1.2-1.1,2-1.4c0.8-0.3,1.7-0.5,2.6-0.5c0.9,0,1.8,0.2,2.5,0.5c0.7,0.3,1.4,0.7,1.9,1.2l-0.6,0.8c0,0.1-0.1,0.1-0.1,0.2
		c-0.1,0-0.1,0.1-0.2,0.1c-0.1,0-0.2-0.1-0.4-0.2c-0.2-0.1-0.4-0.3-0.6-0.4c-0.3-0.1-0.6-0.3-1-0.4c-0.4-0.1-0.9-0.2-1.4-0.2
		c-0.7,0-1.3,0.1-1.9,0.4s-1.1,0.6-1.5,1s-0.7,1-1,1.6c-0.2,0.6-0.3,1.4-0.3,2.2c0,0.8,0.1,1.6,0.4,2.2s0.6,1.2,1,1.6
		c0.4,0.4,0.9,0.8,1.4,1c0.6,0.2,1.2,0.4,1.8,0.4c0.4,0,0.7,0,1.1-0.1c0.3,0,0.6-0.1,0.9-0.2c0.3-0.1,0.5-0.2,0.7-0.4
		c0.2-0.2,0.5-0.3,0.7-0.5C84.3,60.8,84.4,60.8,84.5,60.8z"/>
	<path class="st0" d="M94.7,62.2c-0.2,0.2-0.4,0.5-0.7,0.6c-0.3,0.2-0.6,0.3-0.9,0.4c-0.3,0.1-0.7,0.2-1,0.3c-0.3,0.1-0.7,0.1-1,0.1
		c-0.6,0-1.2-0.1-1.8-0.3s-1-0.5-1.4-1c-0.4-0.4-0.7-0.9-0.9-1.6c-0.2-0.6-0.3-1.3-0.3-2.1c0-0.7,0.1-1.3,0.3-1.8
		c0.2-0.6,0.5-1.1,0.9-1.5s0.8-0.7,1.4-1c0.5-0.2,1.1-0.4,1.8-0.4c0.6,0,1.1,0.1,1.6,0.3c0.5,0.2,0.9,0.5,1.2,0.8
		c0.3,0.4,0.6,0.8,0.8,1.3c0.2,0.5,0.3,1.1,0.3,1.8c0,0.3,0,0.4-0.1,0.5s-0.2,0.1-0.3,0.1h-6.2c0,0.6,0.1,1.1,0.2,1.5
		c0.1,0.4,0.3,0.8,0.6,1.1c0.3,0.3,0.6,0.5,0.9,0.7s0.8,0.2,1.2,0.2c0.4,0,0.8,0,1.1-0.1c0.3-0.1,0.6-0.2,0.8-0.3
		c0.2-0.1,0.4-0.2,0.5-0.3c0.1-0.1,0.3-0.1,0.4-0.1c0.1,0,0.2,0.1,0.3,0.2L94.7,62.2z M93.4,57.8c0-0.4-0.1-0.7-0.2-1
		c-0.1-0.3-0.3-0.6-0.5-0.8c-0.2-0.2-0.5-0.4-0.8-0.5c-0.3-0.1-0.6-0.2-1-0.2c-0.8,0-1.4,0.2-1.9,0.7c-0.5,0.5-0.7,1.1-0.9,1.9H93.4
		z"/>
	<path class="st0" d="M98.4,55.5c0.2-0.2,0.4-0.4,0.6-0.6c0.2-0.2,0.5-0.3,0.7-0.5c0.3-0.1,0.5-0.2,0.8-0.3c0.3-0.1,0.6-0.1,0.9-0.1
		c0.5,0,1,0.1,1.3,0.3c0.4,0.2,0.7,0.4,1,0.7c0.3,0.3,0.5,0.7,0.6,1.1c0.1,0.4,0.2,0.9,0.2,1.4v5.9H103v-5.9c0-0.7-0.2-1.3-0.5-1.6
		c-0.3-0.4-0.8-0.6-1.5-0.6c-0.5,0-0.9,0.1-1.4,0.4s-0.8,0.5-1.2,0.9v6.9h-1.6v-9.3h1c0.2,0,0.4,0.1,0.4,0.3L98.4,55.5z"/>
	<path class="st0" d="M110,63.7c-0.7,0-1.3-0.2-1.7-0.6s-0.6-1-0.6-1.8v-5.7h-1.1c-0.1,0-0.2,0-0.2-0.1c-0.1-0.1-0.1-0.1-0.1-0.3
		v-0.7l1.5-0.2l0.4-2.9c0-0.1,0.1-0.2,0.1-0.2s0.1-0.1,0.3-0.1h0.8v3.2h2.7v1.2h-2.7v5.6c0,0.4,0.1,0.7,0.3,0.9
		c0.2,0.2,0.4,0.3,0.7,0.3c0.2,0,0.3,0,0.4-0.1s0.2-0.1,0.3-0.2c0.1-0.1,0.2-0.1,0.2-0.2s0.1-0.1,0.2-0.1c0.1,0,0.2,0.1,0.2,0.2
		l0.5,0.8c-0.3,0.3-0.6,0.5-1,0.6C110.8,63.6,110.4,63.7,110,63.7z"/>
	<path class="st0" d="M115.3,56.1c0.3-0.6,0.7-1.1,1.1-1.5s1-0.5,1.6-0.5c0.2,0,0.4,0,0.6,0.1s0.3,0.1,0.5,0.2l-0.1,1.2
		c0,0.2-0.1,0.2-0.3,0.2c-0.1,0-0.2,0-0.4-0.1c-0.2,0-0.4-0.1-0.6-0.1c-0.3,0-0.6,0-0.8,0.1c-0.2,0.1-0.4,0.2-0.6,0.4
		s-0.3,0.4-0.5,0.6c-0.1,0.2-0.3,0.5-0.4,0.9v5.9h-1.6v-9.3h0.9c0.2,0,0.3,0,0.4,0.1s0.1,0.2,0.1,0.3L115.3,56.1z"/>
	<path class="st0" d="M128.1,54.2v9.3h-1c-0.2,0-0.4-0.1-0.4-0.3l-0.1-1c-0.4,0.4-0.9,0.8-1.4,1.1c-0.5,0.3-1.1,0.4-1.7,0.4
		c-0.5,0-1-0.1-1.3-0.3c-0.4-0.2-0.7-0.4-1-0.7c-0.3-0.3-0.5-0.7-0.6-1.1c-0.1-0.4-0.2-0.9-0.2-1.4v-6h1.6v6c0,0.7,0.2,1.3,0.5,1.6
		c0.3,0.4,0.8,0.6,1.5,0.6c0.5,0,0.9-0.1,1.4-0.3c0.4-0.2,0.8-0.5,1.2-1v-6.9H128.1z"/>
	<path class="st0" d="M130.7,63.5v-9.3h1c0.2,0,0.4,0.1,0.4,0.3l0.1,1c0.3-0.4,0.7-0.8,1.2-1c0.4-0.3,0.9-0.4,1.5-0.4
		c0.6,0,1.1,0.2,1.5,0.5c0.4,0.3,0.7,0.8,0.8,1.4c0.1-0.3,0.3-0.6,0.5-0.9c0.2-0.2,0.4-0.4,0.7-0.6c0.3-0.2,0.5-0.3,0.8-0.4
		c0.3-0.1,0.6-0.1,0.9-0.1c0.5,0,0.9,0.1,1.3,0.2c0.4,0.2,0.7,0.4,1,0.7s0.5,0.7,0.6,1.1c0.1,0.4,0.2,0.9,0.2,1.5v5.9h-1.6v-5.9
		c0-0.7-0.2-1.3-0.5-1.7c-0.3-0.4-0.8-0.6-1.4-0.6c-0.3,0-0.5,0-0.8,0.1c-0.2,0.1-0.5,0.2-0.6,0.4c-0.2,0.2-0.3,0.4-0.4,0.7
		s-0.2,0.6-0.2,1v5.9h-1.6v-5.9c0-0.7-0.2-1.3-0.5-1.7c-0.3-0.4-0.7-0.6-1.3-0.6c-0.4,0-0.8,0.1-1.1,0.3s-0.7,0.5-0.9,0.9v7H130.7z"
		/>
	<path class="st0" d="M159.8,51c0,0.2-0.1,0.4-0.2,0.6l-7.5,10.5h7.5v1.5h-9.9v-0.7c0-0.1,0-0.2,0.1-0.3s0.1-0.2,0.1-0.2l7.5-10.5
		h-7.3v-1.5h9.7V51z"/>
	<path class="st0" d="M169.4,50v13.6h-1c-0.2,0-0.4-0.1-0.4-0.3l-0.1-1.1c-0.4,0.5-0.9,0.9-1.4,1.2c-0.5,0.3-1.1,0.4-1.8,0.4
		c-0.5,0-1-0.1-1.5-0.3c-0.4-0.2-0.8-0.5-1.1-0.9s-0.5-0.9-0.7-1.5c-0.2-0.6-0.2-1.3-0.2-2.1c0-0.7,0.1-1.3,0.3-1.9
		c0.2-0.6,0.4-1.1,0.8-1.5c0.3-0.4,0.8-0.8,1.3-1c0.5-0.2,1.1-0.4,1.7-0.4c0.6,0,1.1,0.1,1.5,0.3c0.4,0.2,0.8,0.5,1.1,0.8V50H169.4z
		 M167.8,56.4c-0.3-0.4-0.6-0.7-1-0.9c-0.4-0.2-0.8-0.2-1.2-0.2c-0.9,0-1.5,0.3-2,0.9c-0.5,0.6-0.7,1.5-0.7,2.7
		c0,0.6,0.1,1.1,0.2,1.6c0.1,0.4,0.3,0.8,0.5,1.1s0.5,0.5,0.7,0.6c0.3,0.1,0.6,0.2,1,0.2c0.5,0,1-0.1,1.4-0.4c0.4-0.2,0.8-0.6,1.1-1
		V56.4z"/>
	<path class="st0" d="M173.6,56.1c0.3-0.6,0.7-1.1,1.1-1.5s1-0.5,1.6-0.5c0.2,0,0.4,0,0.6,0.1c0.2,0,0.3,0.1,0.5,0.2l-0.1,1.2
		c0,0.2-0.1,0.2-0.3,0.2c-0.1,0-0.2,0-0.4-0.1c-0.2,0-0.4-0.1-0.6-0.1c-0.3,0-0.6,0-0.8,0.1c-0.2,0.1-0.4,0.2-0.6,0.4
		s-0.3,0.4-0.5,0.6c-0.1,0.2-0.3,0.5-0.4,0.9v5.9H172v-9.3h0.9c0.2,0,0.3,0,0.4,0.1s0.1,0.2,0.1,0.3L173.6,56.1z"/>
	<path class="st0" d="M182.6,54c0.7,0,1.3,0.1,1.8,0.3c0.5,0.2,1,0.5,1.4,1c0.4,0.4,0.7,0.9,0.9,1.5s0.3,1.3,0.3,2
		c0,0.7-0.1,1.4-0.3,2c-0.2,0.6-0.5,1.1-0.9,1.5c-0.4,0.4-0.9,0.7-1.4,1c-0.5,0.2-1.2,0.3-1.8,0.3c-0.7,0-1.3-0.1-1.9-0.3
		c-0.5-0.2-1-0.5-1.4-1c-0.4-0.4-0.7-0.9-0.9-1.5c-0.2-0.6-0.3-1.3-0.3-2c0-0.7,0.1-1.4,0.3-2s0.5-1.1,0.9-1.5
		c0.4-0.4,0.9-0.7,1.4-1C181.3,54.2,181.9,54,182.6,54z M182.6,62.4c0.9,0,1.6-0.3,2.1-0.9c0.5-0.6,0.7-1.5,0.7-2.6
		c0-1.1-0.2-2-0.7-2.6c-0.5-0.6-1.1-0.9-2.1-0.9c-0.5,0-0.9,0.1-1.2,0.2c-0.3,0.2-0.6,0.4-0.9,0.7s-0.4,0.7-0.5,1.1
		c-0.1,0.4-0.2,0.9-0.2,1.5c0,1.1,0.2,2,0.7,2.6C181,62.1,181.7,62.4,182.6,62.4z"/>
	<path class="st0" d="M202,54.2l-3,9.3h-1.3c-0.2,0-0.3-0.1-0.3-0.3l-2.1-6.3c0-0.1-0.1-0.3-0.1-0.4c0-0.1-0.1-0.3-0.1-0.4
		c0,0.1-0.1,0.3-0.1,0.4c0,0.1-0.1,0.3-0.1,0.4l-2.1,6.3c-0.1,0.2-0.2,0.3-0.4,0.3h-1.2l-3-9.3h1.3c0.1,0,0.2,0,0.3,0.1
		c0.1,0.1,0.1,0.1,0.2,0.2l1.8,6c0.1,0.4,0.2,0.9,0.2,1.3c0.1-0.2,0.1-0.4,0.2-0.6s0.1-0.4,0.2-0.6l2-6c0-0.1,0.1-0.2,0.2-0.2
		c0.1-0.1,0.2-0.1,0.3-0.1h0.7c0.1,0,0.2,0,0.3,0.1c0.1,0.1,0.1,0.1,0.2,0.2l1.9,6c0.1,0.2,0.1,0.4,0.2,0.6s0.1,0.4,0.2,0.6
		c0-0.2,0.1-0.4,0.1-0.6c0-0.2,0.1-0.4,0.2-0.6l1.8-6c0-0.1,0.1-0.2,0.2-0.2s0.2-0.1,0.3-0.1H202z"/>
	<path class="st0" d="M205.7,51.3c0,0.2,0,0.3-0.1,0.4c-0.1,0.1-0.2,0.3-0.3,0.4s-0.2,0.2-0.4,0.3c-0.1,0.1-0.3,0.1-0.5,0.1
		c-0.2,0-0.3,0-0.4-0.1c-0.1-0.1-0.3-0.1-0.4-0.3s-0.2-0.2-0.2-0.4c-0.1-0.1-0.1-0.3-0.1-0.4c0-0.2,0-0.3,0.1-0.5s0.1-0.3,0.2-0.4
		s0.2-0.2,0.4-0.3c0.1-0.1,0.3-0.1,0.4-0.1c0.2,0,0.3,0,0.5,0.1c0.1,0.1,0.3,0.1,0.4,0.3s0.2,0.2,0.3,0.4S205.7,51.1,205.7,51.3z
		 M205.3,54.2v9.3h-1.6v-9.3H205.3z"/>
	<path class="st0" d="M207.8,55.5c0.5-0.5,1.1-0.9,1.7-1.1c0.6-0.2,1.3-0.4,2-0.4c0.5,0,1,0.1,1.4,0.3s0.7,0.4,1,0.7
		c0.3,0.3,0.5,0.7,0.6,1.1c0.1,0.4,0.2,0.9,0.2,1.4v6H214c-0.2,0-0.3,0-0.4-0.1c-0.1-0.1-0.2-0.2-0.2-0.3l-0.2-0.9
		c-0.2,0.2-0.5,0.4-0.7,0.6c-0.2,0.2-0.5,0.3-0.7,0.4s-0.5,0.2-0.8,0.3s-0.6,0.1-1,0.1c-0.4,0-0.7-0.1-1-0.2
		c-0.3-0.1-0.6-0.3-0.8-0.5c-0.2-0.2-0.4-0.5-0.6-0.8c-0.1-0.3-0.2-0.7-0.2-1.1c0-0.4,0.1-0.7,0.3-1.1c0.2-0.3,0.5-0.6,1-0.9
		c0.5-0.3,1-0.5,1.8-0.6c0.7-0.2,1.6-0.3,2.7-0.3v-0.7c0-0.7-0.2-1.3-0.5-1.6c-0.3-0.4-0.8-0.6-1.4-0.6c-0.4,0-0.7,0.1-1,0.2
		s-0.5,0.2-0.7,0.3s-0.4,0.2-0.5,0.3c-0.1,0.1-0.3,0.2-0.4,0.2c-0.1,0-0.2,0-0.3-0.1s-0.1-0.1-0.2-0.2L207.8,55.5z M213.1,59.3
		c-0.8,0-1.4,0.1-1.9,0.2c-0.5,0.1-1,0.2-1.3,0.4s-0.6,0.3-0.7,0.5c-0.2,0.2-0.2,0.4-0.2,0.7c0,0.2,0,0.5,0.1,0.6
		c0.1,0.2,0.2,0.3,0.3,0.4c0.1,0.1,0.3,0.2,0.5,0.2c0.2,0.1,0.4,0.1,0.6,0.1c0.3,0,0.6,0,0.8-0.1c0.2-0.1,0.5-0.1,0.7-0.3
		s0.4-0.2,0.6-0.4c0.2-0.2,0.4-0.3,0.6-0.5V59.3z"/>
	<path class="st0" d="M226.2,50.3c0.8,0,1.6,0.1,2.2,0.3s1.1,0.5,1.5,0.8s0.7,0.8,0.9,1.3c0.2,0.5,0.3,1.1,0.3,1.7
		c0,0.6-0.1,1.2-0.3,1.7s-0.5,0.9-0.9,1.3s-0.9,0.7-1.5,0.9c-0.6,0.2-1.3,0.3-2.1,0.3h-2.1v4.9h-1.8V50.3H226.2z M226.2,57.2
		c0.5,0,1-0.1,1.3-0.2s0.7-0.3,1-0.6c0.3-0.2,0.5-0.5,0.6-0.9c0.1-0.3,0.2-0.7,0.2-1.1c0-0.8-0.3-1.5-0.8-2
		c-0.5-0.5-1.3-0.7-2.4-0.7h-2.1v5.4H226.2z"/>
	<path class="st0" d="M238.4,55.7c-0.1,0.1-0.2,0.2-0.3,0.2c-0.1,0-0.2,0-0.3-0.1c-0.1-0.1-0.3-0.1-0.4-0.2s-0.4-0.2-0.6-0.2
		s-0.5-0.1-0.8-0.1c-0.3,0-0.5,0-0.7,0.1c-0.2,0.1-0.4,0.2-0.6,0.3c-0.2,0.1-0.3,0.3-0.4,0.4c-0.1,0.2-0.1,0.3-0.1,0.5
		c0,0.2,0.1,0.4,0.2,0.6c0.1,0.2,0.3,0.3,0.5,0.4c0.2,0.1,0.5,0.2,0.8,0.3c0.3,0.1,0.6,0.2,0.9,0.3c0.3,0.1,0.6,0.2,0.9,0.3
		c0.3,0.1,0.5,0.3,0.8,0.5c0.2,0.2,0.4,0.4,0.5,0.7c0.1,0.3,0.2,0.6,0.2,1c0,0.4-0.1,0.8-0.2,1.2s-0.4,0.7-0.7,0.9
		c-0.3,0.3-0.7,0.5-1.1,0.6c-0.4,0.2-0.9,0.2-1.5,0.2c-0.7,0-1.2-0.1-1.8-0.3c-0.5-0.2-1-0.5-1.3-0.8l0.4-0.6c0-0.1,0.1-0.1,0.2-0.2
		s0.2-0.1,0.3-0.1c0.1,0,0.2,0,0.4,0.1c0.1,0.1,0.3,0.2,0.4,0.3s0.4,0.2,0.6,0.3c0.3,0.1,0.6,0.1,0.9,0.1c0.3,0,0.6,0,0.8-0.1
		s0.4-0.2,0.6-0.3c0.2-0.1,0.3-0.3,0.4-0.5c0.1-0.2,0.1-0.4,0.1-0.6c0-0.3-0.1-0.5-0.2-0.6c-0.1-0.2-0.3-0.3-0.5-0.4
		c-0.2-0.1-0.5-0.2-0.8-0.3c-0.3-0.1-0.6-0.2-0.9-0.3c-0.3-0.1-0.6-0.2-0.9-0.3c-0.3-0.1-0.6-0.3-0.8-0.5c-0.2-0.2-0.4-0.4-0.5-0.7
		c-0.1-0.3-0.2-0.6-0.2-1c0-0.4,0.1-0.7,0.2-1c0.1-0.3,0.4-0.6,0.6-0.9c0.3-0.2,0.6-0.4,1-0.6c0.4-0.1,0.9-0.2,1.4-0.2
		c0.6,0,1.2,0.1,1.7,0.3s0.9,0.5,1.3,0.8L238.4,55.7z"/>
	<path class="st0" d="M249,54.2l-5.2,12.1c-0.1,0.1-0.1,0.2-0.2,0.3c-0.1,0.1-0.2,0.1-0.4,0.1H242l1.7-3.7l-3.8-8.8h1.4
		c0.1,0,0.3,0,0.3,0.1c0.1,0.1,0.1,0.1,0.2,0.2l2.5,5.9c0.1,0.3,0.2,0.5,0.2,0.8c0.1-0.3,0.2-0.6,0.3-0.8l2.4-5.9
		c0-0.1,0.1-0.2,0.2-0.2c0.1-0.1,0.2-0.1,0.3-0.1H249z"/>
	<path class="st0" d="M256.9,55.9c0,0.1-0.1,0.1-0.1,0.2s-0.1,0.1-0.2,0.1c-0.1,0-0.2,0-0.3-0.1c-0.1-0.1-0.2-0.2-0.4-0.3
		c-0.2-0.1-0.4-0.2-0.6-0.3c-0.2-0.1-0.5-0.1-0.9-0.1c-0.5,0-0.9,0.1-1.2,0.2c-0.3,0.2-0.6,0.4-0.9,0.7c-0.2,0.3-0.4,0.7-0.5,1.1
		c-0.1,0.4-0.2,0.9-0.2,1.5c0,0.6,0.1,1.1,0.2,1.5c0.1,0.4,0.3,0.8,0.5,1.1s0.5,0.5,0.9,0.7s0.7,0.2,1.1,0.2c0.4,0,0.7,0,1-0.1
		c0.3-0.1,0.5-0.2,0.6-0.3s0.3-0.2,0.4-0.3c0.1-0.1,0.2-0.1,0.3-0.1c0.1,0,0.2,0.1,0.3,0.2l0.5,0.6c-0.2,0.3-0.4,0.5-0.7,0.6
		s-0.5,0.3-0.8,0.4c-0.3,0.1-0.6,0.2-0.9,0.3c-0.3,0.1-0.7,0.1-1,0.1c-0.6,0-1.1-0.1-1.6-0.3c-0.5-0.2-0.9-0.5-1.3-0.9
		c-0.4-0.4-0.7-0.9-0.9-1.5s-0.3-1.3-0.3-2c0-0.7,0.1-1.3,0.3-1.9c0.2-0.6,0.5-1.1,0.8-1.5s0.8-0.8,1.4-1c0.5-0.2,1.2-0.4,1.9-0.4
		c0.7,0,1.2,0.1,1.7,0.3c0.5,0.2,0.9,0.5,1.3,0.9L256.9,55.9z"/>
	<path class="st0" d="M260.9,55.4c0.4-0.4,0.8-0.8,1.3-1s1-0.4,1.7-0.4c0.5,0,1,0.1,1.3,0.3c0.4,0.2,0.7,0.4,1,0.7
		c0.3,0.3,0.5,0.7,0.6,1.1c0.1,0.4,0.2,0.9,0.2,1.4v5.9h-1.6v-5.9c0-0.7-0.2-1.3-0.5-1.6c-0.3-0.4-0.8-0.6-1.5-0.6
		c-0.5,0-0.9,0.1-1.4,0.4s-0.8,0.5-1.2,0.9v6.9h-1.6V50h1.6V55.4z"/>
	<path class="st0" d="M271.6,51.3c0,0.2,0,0.3-0.1,0.4c-0.1,0.1-0.2,0.3-0.3,0.4s-0.2,0.2-0.4,0.3c-0.1,0.1-0.3,0.1-0.5,0.1
		c-0.2,0-0.3,0-0.4-0.1c-0.1-0.1-0.3-0.1-0.4-0.3s-0.2-0.2-0.2-0.4c-0.1-0.1-0.1-0.3-0.1-0.4c0-0.2,0-0.3,0.1-0.5s0.1-0.3,0.2-0.4
		s0.2-0.2,0.4-0.3c0.1-0.1,0.3-0.1,0.4-0.1c0.2,0,0.3,0,0.5,0.1c0.1,0.1,0.3,0.1,0.4,0.3s0.2,0.2,0.3,0.4S271.6,51.1,271.6,51.3z
		 M271.2,54.2v9.3h-1.6v-9.3H271.2z"/>
	<path class="st0" d="M280.4,55.9c0,0.1-0.1,0.1-0.1,0.2s-0.1,0.1-0.2,0.1c-0.1,0-0.2,0-0.3-0.1c-0.1-0.1-0.2-0.2-0.4-0.3
		c-0.2-0.1-0.4-0.2-0.6-0.3c-0.2-0.1-0.5-0.1-0.9-0.1c-0.5,0-0.9,0.1-1.2,0.2c-0.3,0.2-0.6,0.4-0.9,0.7c-0.2,0.3-0.4,0.7-0.5,1.1
		c-0.1,0.4-0.2,0.9-0.2,1.5c0,0.6,0.1,1.1,0.2,1.5c0.1,0.4,0.3,0.8,0.5,1.1s0.5,0.5,0.9,0.7s0.7,0.2,1.1,0.2c0.4,0,0.7,0,1-0.1
		c0.3-0.1,0.5-0.2,0.6-0.3s0.3-0.2,0.4-0.3c0.1-0.1,0.2-0.1,0.3-0.1c0.1,0,0.2,0.1,0.3,0.2l0.5,0.6c-0.2,0.3-0.4,0.5-0.7,0.6
		s-0.5,0.3-0.8,0.4c-0.3,0.1-0.6,0.2-0.9,0.3c-0.3,0.1-0.7,0.1-1,0.1c-0.6,0-1.1-0.1-1.6-0.3c-0.5-0.2-0.9-0.5-1.3-0.9
		c-0.4-0.4-0.7-0.9-0.9-1.5s-0.3-1.3-0.3-2c0-0.7,0.1-1.3,0.3-1.9c0.2-0.6,0.5-1.1,0.8-1.5s0.8-0.8,1.4-1c0.5-0.2,1.2-0.4,1.9-0.4
		c0.7,0,1.2,0.1,1.7,0.3c0.5,0.2,0.9,0.5,1.3,0.9L280.4,55.9z"/>
	<path class="st0" d="M289.2,54.9c0,0.1,0,0.2-0.1,0.3s-0.1,0.2-0.2,0.3l-5.1,6.7h5.1v1.3h-7v-0.7c0-0.1,0-0.2,0.1-0.3
		c0-0.1,0.1-0.2,0.2-0.3l5.1-6.8h-5v-1.3h6.9V54.9z"/>
	<path class="st0" d="M292.6,55.5c0.2-0.2,0.4-0.4,0.6-0.6c0.2-0.2,0.5-0.3,0.7-0.5s0.5-0.2,0.8-0.3c0.3-0.1,0.6-0.1,0.9-0.1
		c0.5,0,1,0.1,1.3,0.3c0.4,0.2,0.7,0.4,1,0.7c0.3,0.3,0.5,0.7,0.6,1.1c0.1,0.4,0.2,0.9,0.2,1.4v5.9h-1.6v-5.9c0-0.7-0.2-1.3-0.5-1.6
		c-0.3-0.4-0.8-0.6-1.5-0.6c-0.5,0-0.9,0.1-1.4,0.4s-0.8,0.5-1.2,0.9v6.9h-1.6v-9.3h1c0.2,0,0.4,0.1,0.4,0.3L292.6,55.5z"/>
	<path class="st0" d="M308.9,62.2c-0.2,0.2-0.4,0.5-0.7,0.6c-0.3,0.2-0.6,0.3-0.9,0.4c-0.3,0.1-0.7,0.2-1,0.3
		c-0.3,0.1-0.7,0.1-1,0.1c-0.6,0-1.2-0.1-1.8-0.3c-0.5-0.2-1-0.5-1.4-1c-0.4-0.4-0.7-0.9-0.9-1.6c-0.2-0.6-0.3-1.3-0.3-2.1
		c0-0.7,0.1-1.3,0.3-1.8c0.2-0.6,0.5-1.1,0.9-1.5c0.4-0.4,0.8-0.7,1.4-1c0.5-0.2,1.1-0.4,1.8-0.4c0.6,0,1.1,0.1,1.6,0.3
		s0.9,0.5,1.2,0.8c0.3,0.4,0.6,0.8,0.8,1.3c0.2,0.5,0.3,1.1,0.3,1.8c0,0.3,0,0.4-0.1,0.5c-0.1,0.1-0.2,0.1-0.3,0.1h-6.2
		c0,0.6,0.1,1.1,0.2,1.5c0.1,0.4,0.3,0.8,0.6,1.1c0.3,0.3,0.6,0.5,0.9,0.7c0.4,0.1,0.8,0.2,1.2,0.2c0.4,0,0.8,0,1.1-0.1
		c0.3-0.1,0.6-0.2,0.8-0.3c0.2-0.1,0.4-0.2,0.5-0.3c0.1-0.1,0.3-0.1,0.4-0.1c0.1,0,0.2,0.1,0.3,0.2L308.9,62.2z M307.6,57.8
		c0-0.4-0.1-0.7-0.2-1c-0.1-0.3-0.3-0.6-0.5-0.8c-0.2-0.2-0.5-0.4-0.8-0.5c-0.3-0.1-0.6-0.2-1-0.2c-0.8,0-1.4,0.2-1.9,0.7
		c-0.5,0.5-0.7,1.1-0.9,1.9H307.6z"/>
	<path class="st0" d="M318.9,54.6v0.6c0,0.2-0.1,0.3-0.4,0.4l-1.1,0.1c0.2,0.4,0.3,0.9,0.3,1.3c0,0.5-0.1,0.9-0.3,1.2
		c-0.2,0.4-0.4,0.7-0.7,1c-0.3,0.3-0.7,0.5-1.1,0.6c-0.4,0.1-0.9,0.2-1.4,0.2c-0.4,0-0.8-0.1-1.2-0.2c-0.2,0.1-0.3,0.3-0.5,0.4
		c-0.1,0.1-0.2,0.3-0.2,0.4c0,0.2,0.1,0.4,0.3,0.5s0.4,0.2,0.7,0.2s0.6,0.1,1,0.1c0.4,0,0.8,0,1.2,0.1c0.4,0,0.8,0.1,1.2,0.1
		c0.4,0.1,0.7,0.2,1,0.3c0.3,0.2,0.5,0.4,0.7,0.6s0.3,0.6,0.3,1c0,0.4-0.1,0.8-0.3,1.2c-0.2,0.4-0.5,0.7-0.9,1
		c-0.4,0.3-0.8,0.5-1.4,0.7c-0.5,0.2-1.2,0.3-1.8,0.3s-1.3-0.1-1.8-0.2s-0.9-0.3-1.3-0.5c-0.3-0.2-0.6-0.5-0.8-0.8s-0.3-0.6-0.3-0.9
		c0-0.5,0.1-0.9,0.4-1.2c0.3-0.3,0.7-0.6,1.2-0.8c-0.3-0.1-0.5-0.3-0.7-0.5c-0.2-0.2-0.2-0.5-0.2-0.8c0-0.1,0-0.3,0.1-0.4
		c0-0.1,0.1-0.3,0.2-0.4s0.2-0.3,0.4-0.4s0.3-0.2,0.5-0.3c-0.5-0.3-0.8-0.6-1.1-1c-0.3-0.4-0.4-0.9-0.4-1.5c0-0.5,0.1-0.9,0.3-1.2
		c0.2-0.4,0.4-0.7,0.7-0.9c0.3-0.3,0.7-0.5,1.1-0.6c0.4-0.1,0.9-0.2,1.4-0.2c0.4,0,0.8,0,1.1,0.1c0.4,0.1,0.7,0.2,1,0.4H318.9z
		 M317.3,64c0-0.2-0.1-0.4-0.2-0.6c-0.1-0.1-0.3-0.3-0.5-0.3c-0.2-0.1-0.5-0.1-0.8-0.2c-0.3,0-0.6-0.1-0.9-0.1s-0.6,0-1-0.1
		c-0.3,0-0.7,0-1-0.1c-0.3,0.2-0.6,0.4-0.8,0.6c-0.2,0.2-0.3,0.5-0.3,0.9c0,0.2,0.1,0.4,0.2,0.6c0.1,0.2,0.3,0.3,0.5,0.5
		c0.2,0.1,0.5,0.2,0.8,0.3c0.3,0.1,0.7,0.1,1.2,0.1c0.4,0,0.8,0,1.2-0.1c0.3-0.1,0.6-0.2,0.9-0.3c0.2-0.1,0.4-0.3,0.6-0.5
		C317.2,64.5,317.3,64.3,317.3,64z M314.3,59c0.3,0,0.6,0,0.9-0.1s0.5-0.2,0.6-0.4s0.3-0.4,0.4-0.6c0.1-0.2,0.1-0.5,0.1-0.8
		c0-0.6-0.2-1-0.5-1.4c-0.3-0.3-0.8-0.5-1.5-0.5c-0.7,0-1.2,0.2-1.5,0.5c-0.3,0.3-0.5,0.8-0.5,1.4c0,0.3,0,0.5,0.1,0.8
		c0.1,0.2,0.2,0.4,0.4,0.6s0.4,0.3,0.6,0.4S314,59,314.3,59z"/>
	<path class="st0" d="M324.6,54c0.7,0,1.3,0.1,1.8,0.3c0.5,0.2,1,0.5,1.4,1c0.4,0.4,0.7,0.9,0.9,1.5s0.3,1.3,0.3,2
		c0,0.7-0.1,1.4-0.3,2c-0.2,0.6-0.5,1.1-0.9,1.5c-0.4,0.4-0.9,0.7-1.4,1c-0.5,0.2-1.2,0.3-1.8,0.3c-0.7,0-1.3-0.1-1.9-0.3
		c-0.5-0.2-1-0.5-1.4-1c-0.4-0.4-0.7-0.9-0.9-1.5c-0.2-0.6-0.3-1.3-0.3-2c0-0.7,0.1-1.4,0.3-2s0.5-1.1,0.9-1.5
		c0.4-0.4,0.9-0.7,1.4-1C323.3,54.2,323.9,54,324.6,54z M324.6,62.4c0.9,0,1.6-0.3,2.1-0.9c0.5-0.6,0.7-1.5,0.7-2.6
		c0-1.1-0.2-2-0.7-2.6c-0.5-0.6-1.1-0.9-2.1-0.9c-0.5,0-0.9,0.1-1.2,0.2c-0.3,0.2-0.6,0.4-0.9,0.7s-0.4,0.7-0.5,1.1
		c-0.1,0.4-0.2,0.9-0.2,1.5c0,1.1,0.2,2,0.7,2.6C322.9,62.1,323.6,62.4,324.6,62.4z"/>
</g>
</svg>
