<?xml version="1.0" encoding="UTF-8"?><svg id="Layer_2" xmlns="http://www.w3.org/2000/svg" viewBox="0 0 375.13 57.86"><defs><style>.cls-1{fill:#ff5e14;}.cls-1,.cls-2{stroke-width:0px;}.cls-2{fill:#fff;}</style></defs><g id="tlo"><polygon class="cls-2" points="155.44 0 155.44 34.05 168.84 18.06 180.63 18.06 180.63 18.63 164.4 36.79 182.89 57.14 182.89 57.86 171.02 57.86 155.44 39.86 155.44 57.86 145.59 57.86 145.59 0 155.44 0"/><polygon class="cls-2" points="304.17 0 304.17 34.05 317.57 18.06 329.36 18.06 329.36 18.63 313.13 36.79 331.62 57.14 331.62 57.86 319.75 57.86 304.17 39.86 304.17 57.86 294.32 57.86 294.32 0 304.17 0"/><path class="cls-2" d="m57.01,27.27c-2.83-2.66-6.05-3.55-9.85-3.55-4.68,0-7.27,1.45-7.27,3.96s2.34,4.04,7.43,4.36c7.51.48,17.03,2.18,17.03,12.76,0,7.02-5.73,13.08-17.11,13.08-6.3,0-12.59-1.05-18.41-7.1l4.84-7.02c2.83,3.15,9.28,5.49,13.72,5.57,3.71.08,7.19-1.86,7.19-4.76,0-2.74-2.26-3.88-7.91-4.2-7.51-.56-16.47-3.31-16.47-12.35s9.53-12.43,16.79-12.43c6.22,0,10.9,1.21,15.5,5.25l-5.49,6.46Z"/><path class="cls-2" d="m84.54,6.34v11.3h10.98v8.48h-11.06v17.19c0,3.79,2.1,5.65,5.17,5.65,1.53,0,3.31-.48,4.76-1.21l2.74,8.4c-2.83,1.13-5.17,1.61-8.15,1.7-8.64.32-14.29-4.6-14.29-14.53v-17.19h-7.43v-8.48h7.43V6.34h9.85Z"/><path class="cls-2" d="m108.61,37.11c0,6.05,3.63,11.71,10.82,11.71s10.82-5.65,10.82-11.71-4.2-11.79-10.82-11.79c-7.1,0-10.82,5.81-10.82,11.79m31.57,0c0,11.46-7.83,20.75-20.75,20.75s-20.67-9.28-20.67-20.75,7.91-20.75,20.59-20.75,20.83,9.37,20.83,20.75"/><path class="cls-2" d="m196.53,18.06l.73,4.6c3.07-4.93,7.19-5.65,11.22-5.65s8.07,1.61,10.25,3.79l-4.44,8.56c-2.02-1.7-3.87-2.58-7.1-2.58-5.17,0-9.93,2.74-9.93,10.09v20.99h-9.85V18.06h9.12Z"/><path class="cls-2" d="m227.07,37.11c0,6.05,3.63,11.71,10.82,11.71s10.82-5.65,10.82-11.71-4.2-11.79-10.82-11.79c-7.1,0-10.82,5.81-10.82,11.79m31.57,0c0,11.46-7.83,20.75-20.75,20.75s-20.67-9.28-20.67-20.75,7.91-20.75,20.59-20.75,20.83,9.37,20.83,20.75"/><path class="cls-2" d="m276.24,0v17.64h10.98v8.48h-11.06v17.2c0,3.79,2.1,5.65,5.17,5.65,1.53,0,3.31-.48,4.76-1.21l2.74,8.4c-2.83,1.13-5.17,1.61-8.15,1.7-8.64.32-14.29-4.6-14.29-14.53v-17.2h-7.43v-8.48h7.43l.2-17.64h9.65Z"/><path class="cls-2" d="m341.79,36.41c0,7.59,5.25,12.11,11.79,12.11,15.5,0,15.5-24.14,0-24.14-6.54,0-11.79,4.44-11.79,12.03m23.9-19.86h9.45v41.31h-9.29l-.48-7.33c-2.26,4.68-8.48,6.94-12.92,7.02-11.79.08-20.51-7.19-20.51-21.15s9.12-20.91,20.75-20.83c5.33,0,10.41,2.5,12.67,6.46l.32-5.49Z"/><path class="cls-1" d="m14.91,50.41c0,4.12-3.34,7.45-7.45,7.45s-7.45-3.34-7.45-7.45,3.34-7.45,7.45-7.45,7.45,3.34,7.45,7.45"/></g></svg>