<?xml version="1.0" encoding="UTF-8"?><svg id="Layer_2" xmlns="http://www.w3.org/2000/svg" viewBox="0 0 213.1 237.28"><defs><style>.cls-1,.cls-2{letter-spacing:.1em;}.cls-3{letter-spacing:.1em;}.cls-4,.cls-5{letter-spacing:.1em;}.cls-5,.cls-6{font-size:23.19px;}.cls-5,.cls-6,.cls-7,.cls-2{fill:#fff;font-family:Montserrat-Bold, Montserrat;font-weight:700;}.cls-8{letter-spacing:.07em;}.cls-9{letter-spacing:.1em;}.cls-10{letter-spacing:.09em;}.cls-11{letter-spacing:.09em;}.cls-7,.cls-2{font-size:17.57px;}.cls-12{fill:#001875;stroke-width:0px;}</style></defs><g id="Layer_7"><rect class="cls-12" x="86.05" y="23.13" width="40.99" height="213.1" rx="20.49" ry="20.49" transform="translate(236.23 23.13) rotate(90)"/><text class="cls-7" transform="translate(15.75 102.04)"><tspan class="cls-8" x="0" y="0">W</tspan><tspan class="cls-11" x="21.75" y="0">Y</tspan><tspan class="cls-1" x="35.26" y="0">NIK</tspan></text><text class="cls-5" transform="translate(89.45 138.25)"><tspan x="0" y="0">50</tspan></text><rect class="cls-12" x="86.05" y="110.23" width="40.99" height="213.1" rx="20.49" ry="20.49" transform="translate(323.33 110.23) rotate(90)"/><text class="cls-6" transform="translate(80.5 226.22)"><tspan class="cls-9" x="0" y="0">2</tspan><tspan class="cls-4" x="15.96" y="0">00</tspan></text><text class="cls-7" transform="translate(15.75 189.14)"><tspan class="cls-1" x="0" y="0">RE</tspan><tspan class="cls-8" x="28.22" y="0">K</tspan><tspan class="cls-1" x="42.54" y="0">ORD</tspan></text><rect class="cls-12" x="86.05" y="-63.97" width="40.99" height="213.1" rx="20.49" ry="20.49" transform="translate(149.12 -63.97) rotate(90)"/><text class="cls-6" transform="translate(65.57 50.97)"><tspan class="cls-10" x="0" y="0">0</tspan><tspan class="cls-3" x="17.93" y="0">2:00</tspan></text><text class="cls-2" transform="translate(15.75 14.93)"><tspan x="0" y="0">CZAS</tspan></text></g></svg>