<?xml version="1.0" encoding="UTF-8"?><svg id="Layer_2" xmlns="http://www.w3.org/2000/svg" viewBox="0 0 133.02 148.11"><defs><style>.cls-1,.cls-2{letter-spacing:.1em;}.cls-1,.cls-3{font-size:10.97px;}.cls-1,.cls-3,.cls-4,.cls-5{fill:#fff;font-family:Montserrat-Bold, Montserrat;font-weight:700;}.cls-6,.cls-4{letter-spacing:.1em;}.cls-7{letter-spacing:.1em;}.cls-4,.cls-5{font-size:14.48px;}.cls-8{letter-spacing:.08em;}.cls-9{letter-spacing:.07em;}.cls-10{letter-spacing:.1em;}.cls-11{letter-spacing:.09em;}.cls-12{letter-spacing:.09em;}.cls-13{fill:#001875;stroke-width:0px;}</style></defs><g id="Layer_7"><rect class="cls-13" x="53.72" y="14.44" width="25.58" height="133.02" rx="12.79" ry="12.79" transform="translate(147.46 14.44) rotate(90)"/><text class="cls-3" transform="translate(9.83 63.69)"><tspan class="cls-8" x="0" y="0">W</tspan><tspan class="cls-12" x="13.58" y="0">Y</tspan><tspan class="cls-7" x="22.01" y="0">NIK</tspan></text><text class="cls-4" transform="translate(55.84 86.3)"><tspan x="0" y="0">50</tspan></text><rect class="cls-13" x="53.72" y="68.81" width="25.58" height="133.02" rx="12.79" ry="12.79" transform="translate(201.83 68.81) rotate(90)"/><text class="cls-5" transform="translate(50.25 141.21)"><tspan class="cls-10" x="0" y="0">2</tspan><tspan class="cls-6" x="9.96" y="0">00</tspan></text><text class="cls-3" transform="translate(9.83 118.07)"><tspan class="cls-7" x="0" y="0">RE</tspan><tspan class="cls-9" x="17.61" y="0">K</tspan><tspan class="cls-2" x="26.55" y="0">ORD</tspan></text><rect class="cls-13" x="53.72" y="-39.93" width="25.58" height="133.02" rx="12.79" ry="12.79" transform="translate(93.08 -39.93) rotate(90)"/><text class="cls-5" transform="translate(40.93 31.82)"><tspan class="cls-11" x="0" y="0">0</tspan><tspan class="cls-6" x="11.19" y="0">2:00</tspan></text><text class="cls-1" transform="translate(9.83 9.32)"><tspan x="0" y="0">CZAS</tspan></text></g></svg>