<?xml version="1.0" encoding="UTF-8"?><svg xmlns="http://www.w3.org/2000/svg" viewBox="0 0 439.55 229.04"><defs><style>.cls-1{mix-blend-mode:multiply;}.cls-1,.cls-2{fill:#c80021;}.cls-1,.cls-2,.cls-3,.cls-4,.cls-5,.cls-6,.cls-7,.cls-8{stroke-width:0px;}.cls-9{stroke-dasharray:0 0 .48 2.91;stroke-width:.97px;}.cls-9,.cls-10{fill:none;stroke:#fff;stroke-linecap:round;stroke-linejoin:round;}.cls-10{stroke-width:2.83px;}.cls-11{isolation:isolate;}.cls-3{fill:#8b4832;}.cls-4{fill:#fff;}.cls-5{fill:#0041ff;}.cls-6{fill:#001875;}.cls-7{fill:#000322;}.cls-8{fill:#001b37;}</style></defs><g class="cls-11"><g id="Layer_2"><g id="Layer_7"><rect class="cls-6" x="120.96" y=".48" width="54.37" height="54.37" rx="7.83" ry="7.83" transform="translate(175.82 -120.48) rotate(90)"/><rect class="cls-6" x="120.96" y="58.26" width="54.37" height="54.37" rx="7.83" ry="7.83" transform="translate(233.6 -62.7) rotate(90)"/><rect class="cls-6" x="120.96" y="116.04" width="54.37" height="54.37" rx="7.83" ry="7.83" transform="translate(291.38 -4.93) rotate(90)"/><rect class="cls-6" x="120.96" y="174.18" width="54.37" height="54.37" rx="7.83" ry="7.83" transform="translate(349.52 53.21) rotate(90)"/><rect class="cls-6" x="0" y=".48" width="54.37" height="54.37" rx="7.83" ry="7.83" transform="translate(54.86 .48) rotate(90)"/><rect class="cls-6" x="0" y="58.26" width="54.37" height="54.37" rx="7.83" ry="7.83" transform="translate(112.64 58.26) rotate(90)"/><rect class="cls-6" x="0" y="116.04" width="54.37" height="54.37" rx="7.83" ry="7.83" transform="translate(170.41 116.04) rotate(90)"/><rect class="cls-6" x="0" y="174.18" width="54.37" height="54.37" rx="7.83" ry="7.83" transform="translate(228.55 174.18) rotate(90)"/><rect class="cls-6" x="385.18" y=".48" width="54.37" height="54.37" rx="7.83" ry="7.83" transform="translate(440.04 -384.69) rotate(90)"/><rect class="cls-6" x="385.18" y="58.26" width="54.37" height="54.37" rx="7.83" ry="7.83" transform="translate(497.81 -326.92) rotate(90)"/><rect class="cls-6" x="385.18" y="116.04" width="54.37" height="54.37" rx="7.83" ry="7.83" transform="translate(555.59 -269.14) rotate(90)"/><rect class="cls-6" x="385.18" y="174.18" width="54.37" height="54.37" rx="7.83" ry="7.83" transform="translate(613.73 -211) rotate(90)"/><rect class="cls-6" x="264.21" y=".48" width="54.37" height="54.37" rx="7.83" ry="7.83" transform="translate(319.07 -263.73) rotate(90)"/><rect class="cls-6" x="264.21" y="58.26" width="54.37" height="54.37" rx="7.83" ry="7.83" transform="translate(376.85 -205.95) rotate(90)"/><rect class="cls-6" x="264.21" y="116.04" width="54.37" height="54.37" rx="7.83" ry="7.83" transform="translate(434.63 -148.17) rotate(90)"/><rect class="cls-6" x="264.21" y="174.18" width="54.37" height="54.37" rx="7.83" ry="7.83" transform="translate(492.77 -90.03) rotate(90)"/><rect class="cls-6" x="60.48" y=".48" width="54.37" height="54.37" rx="7.83" ry="7.83" transform="translate(115.34 -60) rotate(90)"/><rect class="cls-6" x="60.48" y="58.26" width="54.37" height="54.37" rx="7.83" ry="7.83" transform="translate(173.12 -2.22) rotate(90)"/><rect class="cls-6" x="60.48" y="116.04" width="54.37" height="54.37" rx="7.83" ry="7.83" transform="translate(230.9 55.56) rotate(90)"/><rect class="cls-6" x="60.48" y="174.18" width="54.37" height="54.37" rx="7.83" ry="7.83" transform="translate(289.04 113.7) rotate(90)"/><path class="cls-7" d="m88.02,164.98c-9.68,0-17.85-7.86-17.85-17.15,0-4.52,1.96-9.06,5.37-12.48,1.77-1.77,3.88-3.18,6.15-4.1v-.68c0-1.1.36-2.17,1.01-3.04-.02-.18-.03-.36-.03-.54,0-2.76,2.25-5,5-5s5,2.25,5,5c0,.18-.01.36-.03.54.65.88,1.01,1.95,1.01,3.04v.44c6.81,2.55,11.52,9.39,11.52,16.82,0,9.46-7.7,17.15-17.15,17.15Z"/><path class="cls-8" d="m93.41,130.29v-.97c0-1.08-.4-2.07-1.05-2.83.04-.24.07-.5.07-.75,0-2.35-1.91-4.26-4.26-4.26s-4.26,1.91-4.26,4.26c0,.26.02.51.07.75-.65.76-1.05,1.75-1.05,2.83v1.19c-2.33.87-4.52,2.27-6.36,4.12-3.28,3.28-5.15,7.63-5.15,11.95,0,8.89,7.83,16.41,17.1,16.41s16.41-7.36,16.41-16.41c0-7.5-4.92-14.07-11.52-16.29Z"/><circle class="cls-2" cx="88.31" cy="146.31" r="13.49"/><path class="cls-4" d="m88.51,161.14c-3.86,0-7.73-1.55-10.62-4.24-2.99-2.79-4.63-6.45-4.63-10.31s1.68-7.71,4.61-10.64c2.93-2.93,6.81-4.61,10.64-4.61s7.52,1.65,10.31,4.63c2.7,2.89,4.24,6.76,4.24,10.62,0,8.03-6.53,14.56-14.56,14.56Zm0-28.05c-7.06,0-13.49,6.43-13.49,13.49s6.18,12.79,13.49,12.79,12.79-5.74,12.79-12.79-5.86-13.49-12.79-13.49Z"/><path class="cls-4" d="m88.4,156.45c-5.66,0-10.45-4.57-10.45-9.99,0-2.63,1.15-5.29,3.16-7.29,2.01-2.01,4.66-3.16,7.29-3.16,5.41,0,9.99,4.79,9.99,10.45s-4.48,9.99-9.99,9.99Zm0-18.67c-4.55,0-8.69,4.14-8.69,8.69s3.98,8.23,8.69,8.23,8.23-3.69,8.23-8.23-3.77-8.69-8.23-8.69Z"/><path class="cls-4" d="m90.67,133.07h-5.01c-.49,0-.88-.39-.88-.88v-2.87c0-1.39,1.13-2.51,2.51-2.51h1.75c1.39,0,2.51,1.13,2.51,2.51v2.87c0,.49-.39.88-.88.88Zm-4.13-1.76h3.25v-1.99c0-.41-.34-.75-.75-.75h-1.75c-.41,0-.75.34-.75.75v1.99Z"/><path class="cls-4" d="m88.12,152.21c-.49,0-.88-.39-.88-.88v-10.67c0-.49.39-.88.88-.88s.88.39.88.88v10.67c0,.49-.39.88-.88.88Z"/><path class="cls-4" d="m85.53,151.49c-.15,0-.3-.04-.44-.12-.42-.24-.57-.78-.32-1.2l5.33-9.24c.24-.42.78-.57,1.2-.32.42.24.57.78.32,1.2l-5.33,9.24c-.16.28-.46.44-.76.44Z"/><path class="cls-4" d="m83.65,149.57c-.3,0-.6-.16-.76-.44-.24-.42-.1-.96.32-1.2l9.24-5.33c.42-.24.96-.1,1.2.32.24.42.1.96-.32,1.2l-9.24,5.33c-.14.08-.29.12-.44.12Z"/><path class="cls-4" d="m93.65,146.97h-10.67c-.49,0-.88-.39-.88-.88s.39-.88.88-.88h10.67c.49,0,.88.39.88.88s-.39.88-.88.88Z"/><path class="cls-4" d="m92.94,149.72c-.15,0-.3-.04-.44-.12l-9.24-5.33c-.42-.24-.57-.78-.32-1.2.24-.42.78-.57,1.2-.32l9.24,5.33c.42.24.57.78.32,1.2-.16.28-.46.44-.76.44Z"/><path class="cls-4" d="m90.95,151.74c-.3,0-.6-.16-.76-.44l-5.33-9.24c-.24-.42-.1-.96.32-1.2.42-.24.96-.1,1.2.32l5.33,9.24c.24.42.1.96-.32,1.2-.14.08-.29.12-.44.12Z"/><path class="cls-4" d="m88.17,128.14c-1.33,0-2.41-1.08-2.41-2.41s1.08-2.41,2.41-2.41,2.41,1.08,2.41,2.41-1.08,2.41-2.41,2.41Zm0-3.05c-.36,0-.65.29-.65.65s.29.65.65.65.65-.29.65-.65-.29-.65-.65-.65Z"/><path class="cls-1" d="m98.07,152.9c.65-.31,1.16.64.43,1.02-.73.38-1.25-.63-.43-1.02Z"/><path class="cls-1" d="m96.95,138.44c-.16,1.03-1.71.86-1.57-.32.14-1.19,1.78-.98,1.57.32Z"/><path class="cls-1" d="m77.09,142.44c-.6-.3-.19-1.22.51-.9.7.32.25,1.28-.51.9Z"/><path class="cls-1" d="m83.82,158.32c-.57.11-.77-.73-.13-.88s.85.74.13.88Z"/><path class="cls-1" d="m91.92,157.25c-.52.53-1.34-.2-.77-.83.57-.63,1.43.17.77.83Z"/><path class="cls-1" d="m84.06,135.58c-.34.59-1.23.13-.88-.55.35-.69,1.3-.19.88.55Z"/><path class="cls-7" d="m88.02,49.42c-9.68,0-17.85-7.86-17.85-17.15,0-4.52,1.96-9.06,5.37-12.48,1.77-1.77,3.88-3.18,6.15-4.1v-.68c0-1.1.36-2.17,1.01-3.04-.02-.18-.03-.36-.03-.54,0-2.76,2.25-5,5-5s5,2.25,5,5c0,.18-.01.36-.03.54.65.88,1.01,1.95,1.01,3.04v.44c6.81,2.55,11.52,9.39,11.52,16.82,0,9.46-7.7,17.15-17.15,17.15Z"/><path class="cls-8" d="m93.41,14.73v-.97c0-1.08-.4-2.07-1.05-2.83.04-.24.07-.5.07-.75,0-2.35-1.91-4.26-4.26-4.26s-4.26,1.91-4.26,4.26c0,.26.02.51.07.75-.65.76-1.05,1.75-1.05,2.83v1.19c-2.33.87-4.52,2.27-6.36,4.12-3.28,3.28-5.15,7.63-5.15,11.95,0,8.89,7.83,16.41,17.1,16.41s16.41-7.36,16.41-16.41c0-7.5-4.92-14.07-11.52-16.29Z"/><circle class="cls-2" cx="88.31" cy="30.76" r="13.49"/><path class="cls-4" d="m88.51,45.58c-3.86,0-7.73-1.55-10.62-4.24-2.99-2.79-4.63-6.45-4.63-10.31s1.68-7.71,4.61-10.64c2.93-2.93,6.81-4.61,10.64-4.61s7.52,1.65,10.31,4.63c2.7,2.89,4.24,6.76,4.24,10.62,0,8.03-6.53,14.56-14.56,14.56Zm0-28.05c-7.06,0-13.49,6.43-13.49,13.49s6.18,12.79,13.49,12.79,12.79-5.74,12.79-12.79-5.86-13.49-12.79-13.49Z"/><path class="cls-4" d="m88.4,40.9c-5.66,0-10.45-4.57-10.45-9.99,0-2.63,1.15-5.29,3.16-7.29,2.01-2.01,4.66-3.16,7.29-3.16,5.41,0,9.99,4.79,9.99,10.45s-4.48,9.99-9.99,9.99Zm0-18.67c-4.55,0-8.69,4.14-8.69,8.69s3.98,8.23,8.69,8.23,8.23-3.69,8.23-8.23-3.77-8.69-8.23-8.69Z"/><path class="cls-4" d="m90.67,17.52h-5.01c-.49,0-.88-.39-.88-.88v-2.87c0-1.39,1.13-2.51,2.51-2.51h1.75c1.39,0,2.51,1.13,2.51,2.51v2.87c0,.49-.39.88-.88.88Zm-4.13-1.76h3.25v-1.99c0-.41-.34-.75-.75-.75h-1.75c-.41,0-.75.34-.75.75v1.99Z"/><path class="cls-4" d="m88.12,36.66c-.49,0-.88-.39-.88-.88v-10.67c0-.49.39-.88.88-.88s.88.39.88.88v10.67c0,.49-.39.88-.88.88Z"/><path class="cls-4" d="m85.53,35.94c-.15,0-.3-.04-.44-.12-.42-.24-.57-.78-.32-1.2l5.33-9.24c.24-.42.78-.57,1.2-.32.42.24.57.78.32,1.2l-5.33,9.24c-.16.28-.46.44-.76.44Z"/><path class="cls-4" d="m83.65,34.02c-.3,0-.6-.16-.76-.44-.24-.42-.1-.96.32-1.2l9.24-5.33c.42-.24.96-.1,1.2.32.24.42.1.96-.32,1.2l-9.24,5.33c-.14.08-.29.12-.44.12Z"/><path class="cls-4" d="m93.65,31.42h-10.67c-.49,0-.88-.39-.88-.88s.39-.88.88-.88h10.67c.49,0,.88.39.88.88s-.39.88-.88.88Z"/><path class="cls-4" d="m92.94,34.16c-.15,0-.3-.04-.44-.12l-9.24-5.33c-.42-.24-.57-.78-.32-1.2.24-.42.78-.57,1.2-.32l9.24,5.33c.42.24.57.78.32,1.2-.16.28-.46.44-.76.44Z"/><path class="cls-4" d="m90.95,36.19c-.3,0-.6-.16-.76-.44l-5.33-9.24c-.24-.42-.1-.96.32-1.2.42-.24.96-.1,1.2.32l5.33,9.24c.24.42.1.96-.32,1.2-.14.08-.29.12-.44.12Z"/><path class="cls-4" d="m88.17,12.59c-1.33,0-2.41-1.08-2.41-2.41s1.08-2.41,2.41-2.41,2.41,1.08,2.41,2.41-1.08,2.41-2.41,2.41Zm0-3.05c-.36,0-.65.29-.65.65s.29.65.65.65.65-.29.65-.65-.29-.65-.65-.65Z"/><path class="cls-1" d="m98.07,37.35c.65-.31,1.16.64.43,1.02-.73.38-1.25-.63-.43-1.02Z"/><path class="cls-1" d="m96.95,22.89c-.16,1.03-1.71.86-1.57-.32.14-1.19,1.78-.98,1.57.32Z"/><path class="cls-1" d="m77.09,26.88c-.6-.3-.19-1.22.51-.9.7.32.25,1.28-.51.9Z"/><path class="cls-1" d="m83.82,42.76c-.57.11-.77-.73-.13-.88s.85.74.13.88Z"/><path class="cls-1" d="m91.92,41.69c-.52.53-1.34-.2-.77-.83.57-.63,1.43.17.77.83Z"/><path class="cls-1" d="m84.06,20.03c-.34.59-1.23.13-.88-.55.35-.69,1.3-.19.88.55Z"/><path class="cls-7" d="m88.02,223.12c-9.68,0-17.85-7.86-17.85-17.15,0-4.52,1.96-9.06,5.37-12.48,1.77-1.77,3.88-3.18,6.15-4.1v-.68c0-1.1.36-2.17,1.01-3.04-.02-.18-.03-.36-.03-.54,0-2.76,2.25-5,5-5s5,2.25,5,5c0,.18-.01.36-.03.54.65.88,1.01,1.95,1.01,3.04v.44c6.81,2.55,11.52,9.39,11.52,16.82,0,9.46-7.7,17.15-17.15,17.15Z"/><path class="cls-8" d="m93.41,188.43v-.97c0-1.08-.4-2.07-1.05-2.83.04-.24.07-.5.07-.75,0-2.35-1.91-4.26-4.26-4.26s-4.26,1.91-4.26,4.26c0,.26.02.51.07.75-.65.76-1.05,1.75-1.05,2.83v1.19c-2.33.87-4.52,2.27-6.36,4.12-3.28,3.28-5.15,7.63-5.15,11.95,0,8.89,7.83,16.41,17.1,16.41s16.41-7.36,16.41-16.41c0-7.5-4.92-14.07-11.52-16.29Z"/><circle class="cls-2" cx="88.31" cy="204.45" r="13.49"/><path class="cls-4" d="m88.51,219.28c-3.86,0-7.73-1.55-10.62-4.24-2.99-2.79-4.63-6.45-4.63-10.31s1.68-7.71,4.61-10.64c2.93-2.93,6.81-4.61,10.64-4.61s7.52,1.65,10.31,4.63c2.7,2.89,4.24,6.76,4.24,10.62,0,8.03-6.53,14.56-14.56,14.56Zm0-28.05c-7.06,0-13.49,6.43-13.49,13.49s6.18,12.79,13.49,12.79,12.79-5.74,12.79-12.79-5.86-13.49-12.79-13.49Z"/><path class="cls-4" d="m88.4,214.59c-5.66,0-10.45-4.57-10.45-9.99,0-2.63,1.15-5.29,3.16-7.29,2.01-2.01,4.66-3.16,7.29-3.16,5.41,0,9.99,4.79,9.99,10.45s-4.48,9.99-9.99,9.99Zm0-18.67c-4.55,0-8.69,4.14-8.69,8.69s3.98,8.23,8.69,8.23,8.23-3.69,8.23-8.23-3.77-8.69-8.23-8.69Z"/><path class="cls-4" d="m90.67,191.22h-5.01c-.49,0-.88-.39-.88-.88v-2.87c0-1.39,1.13-2.51,2.51-2.51h1.75c1.39,0,2.51,1.13,2.51,2.51v2.87c0,.49-.39.88-.88.88Zm-4.13-1.76h3.25v-1.99c0-.41-.34-.75-.75-.75h-1.75c-.41,0-.75.34-.75.75v1.99Z"/><path class="cls-4" d="m88.12,210.35c-.49,0-.88-.39-.88-.88v-10.67c0-.49.39-.88.88-.88s.88.39.88.88v10.67c0,.49-.39.88-.88.88Z"/><path class="cls-4" d="m85.53,209.63c-.15,0-.3-.04-.44-.12-.42-.24-.57-.78-.32-1.2l5.33-9.24c.24-.42.78-.57,1.2-.32.42.24.57.78.32,1.2l-5.33,9.24c-.16.28-.46.44-.76.44Z"/><path class="cls-4" d="m83.65,207.71c-.3,0-.6-.16-.76-.44-.24-.42-.1-.96.32-1.2l9.24-5.33c.42-.24.96-.1,1.2.32.24.42.1.96-.32,1.2l-9.24,5.33c-.14.08-.29.12-.44.12Z"/><path class="cls-4" d="m93.65,205.11h-10.67c-.49,0-.88-.39-.88-.88s.39-.88.88-.88h10.67c.49,0,.88.39.88.88s-.39.88-.88.88Z"/><path class="cls-4" d="m92.94,207.86c-.15,0-.3-.04-.44-.12l-9.24-5.33c-.42-.24-.57-.78-.32-1.2.24-.42.78-.57,1.2-.32l9.24,5.33c.42.24.57.78.32,1.2-.16.28-.46.44-.76.44Z"/><path class="cls-4" d="m90.95,209.88c-.3,0-.6-.16-.76-.44l-5.33-9.24c-.24-.42-.1-.96.32-1.2.42-.24.96-.1,1.2.32l5.33,9.24c.24.42.1.96-.32,1.2-.14.08-.29.12-.44.12Z"/><path class="cls-4" d="m88.17,186.28c-1.33,0-2.41-1.08-2.41-2.41s1.08-2.41,2.41-2.41,2.41,1.08,2.41,2.41-1.08,2.41-2.41,2.41Zm0-3.05c-.36,0-.65.29-.65.65s.29.65.65.65.65-.29.65-.65-.29-.65-.65-.65Z"/><path class="cls-1" d="m98.07,211.04c.65-.31,1.16.64.43,1.02-.73.38-1.25-.63-.43-1.02Z"/><path class="cls-1" d="m96.95,196.58c-.16,1.03-1.71.86-1.57-.32.14-1.19,1.78-.98,1.57.32Z"/><path class="cls-1" d="m77.09,200.58c-.6-.3-.19-1.22.51-.9.7.32.25,1.28-.51.9Z"/><path class="cls-1" d="m83.82,216.46c-.57.11-.77-.73-.13-.88s.85.74.13.88Z"/><path class="cls-1" d="m91.92,215.39c-.52.53-1.34-.2-.77-.83.57-.63,1.43.17.77.83Z"/><path class="cls-1" d="m84.06,193.72c-.34.59-1.23.13-.88-.55.35-.69,1.3-.19.88.55Z"/><path class="cls-7" d="m87.66,103.88c-2.09,0-4.3-1.25-6.75-3.84-.12-.13-.23-.24-.32-.34-.26-.28-.43-.46-.52-.52-.03-.02-.09-.04-.3-.09-.2-.05-.48-.12-.89-.25-.67-.21-1.27-.47-1.85-.73-.24-.1-.48-.21-.73-.31-2.66-1.1-5.47-2.6-5.22-6.55.06-1.02.33-2.06.59-3.06.29-1.12.56-2.17.51-3.02-.05-.8-.27-1.58-.5-2.42-.44-1.59-.9-3.24-.24-5.1.94-2.65,2.96-3.34,5.1-4.08l.17-.06c.28-.09.66-.2,1.11-.32.64-.17,1.61-.43,1.9-.6.25-.15.44-.4.69-.72.15-.2.33-.42.54-.65.8-.87,3.64-3.72,6.74-3.72,2.44,0,4.28,1.55,5.95,3.13.24.23.45.44.65.64.57.57.98.98,1.54,1.26.4.2,1.02.37,1.63.54.55.15,1.11.31,1.58.5,2.22.92,4.73,1.96,5.18,5.34.19,1.43-.2,2.86-.57,4.23-.3,1.11-.59,2.17-.49,3.02.08.72.28,1.44.5,2.19.38,1.33.77,2.7.53,4.26-.55,3.53-3.2,4.44-5.54,5.24-.21.07-.5.16-.84.27-.68.21-1.6.5-1.95.67-.39.19-.43.24-.64.48-.12.13-.27.31-.52.56-1.62,1.61-4.06,4.03-7.03,4.03Z"/><path class="cls-8" d="m103.97,77.79c-.38-2.88-2.36-3.77-4.72-4.75-.95-.39-2.41-.64-3.26-1.07-.89-.45-1.45-1.15-2.37-2.03-1.5-1.42-3.21-2.93-5.44-2.93-2.3,0-4.71,1.85-6.19,3.47-.55.6-.84,1.17-1.4,1.51-.57.34-2.42.74-3.15.98-2.15.74-3.96,1.3-4.8,3.67-.9,2.57.63,4.8.79,7.23.12,1.78-.97,4.1-1.1,6.18-.21,3.4,2.1,4.71,4.76,5.81.86.36,1.62.73,2.52,1.02,1.61.51,1.05.04,2.34,1.4,1.56,1.65,3.79,3.6,6.21,3.6,2.57,0,4.79-2.12,6.5-3.81.72-.71.59-.8,1.35-1.17.59-.29,2.22-.75,2.88-.98,2.47-.85,4.58-1.65,5.05-4.65.35-2.23-.8-4.17-1.03-6.25-.23-2.1,1.38-4.79,1.06-7.24Z"/><path class="cls-7" d="m93.65,94.7c-.58-.36-.08-1.25.6-.87.68.39.14,1.33-.6.87Z"/><path class="cls-7" d="m75.4,85.04c-.07-.89,1.24-1.06,1.36-.05.13,1.01-1.27,1.17-1.36.05Z"/><path class="cls-3" d="m90.95,80.58c-.74,0-.81-1.09.04-1.14.85-.05.9,1.13-.04,1.14Z"/><path class="cls-7" d="m82.67,74.21c.43-.45,1.13.16.66.7-.47.54-1.21-.13-.66-.7Z"/><path class="cls-7" d="m80.99,94.22c.19.52-.57.83-.81.25s.57-.9.81-.25Z"/><path class="cls-7" d="m99.52,85.34c-.07-.69.95-.84,1.06-.06.11.78-.97.93-1.06.06Z"/><path class="cls-5" d="m78.63,78.34c-1.74,2.99.91,3.49.34,6.44s-1.1,3.26-.3,5.12,3.37,1.74,4.74,2.54,2.54,3.26,4.74,3.18c2.2-.08,2.54-1.82,4.28-3.11s3.83-.34,5.31-2.31.19-3.64.11-5.76c-.08-2.12.27-3.98-.34-5.53-.8-2.06-3.09-1.86-4.59-2.77s-2.08-2.65-4.7-2.69c-2.39-.04-3.49,2.58-4.77,2.96-2.66.78-3.79.17-4.81,1.93Z"/><path class="cls-4" d="m100.82,77.16c-.24-.42-.78-.57-1.2-.32-.48.28-1.08.62-1.75,1.01l.17-1.29c.06-.48-.27-.92-.76-.99-.48-.06-.92.27-.99.76l-.35,2.64c-.35.2-.7.4-1.06.61-.11.07-.23.13-.34.2l.24-1.58c.07-.48-.26-.93-.74-1-.48-.07-.93.26-1,.74l-.45,2.97c-.97.56-1.84,1.06-2.48,1.43-.26.15-.62.36-1.06.61,0-1.21,0-2.54,0-3.88l2.33-1.67c.4-.28.49-.83.2-1.23-.28-.4-.83-.49-1.23-.2l-1.3.93c0-.64,0-1.26,0-1.85l2.14-1.38c.41-.26.53-.81.26-1.22-.26-.41-.81-.53-1.22-.26l-1.19.76c0-.95,0-1.72,0-2.2s-.39-.88-.88-.88-.88.39-.88.88c0,.45,0,1.15,0,2.02l-1.03-.8c-.39-.3-.94-.23-1.23.16-.3.39-.23.94.16,1.23l2.11,1.63c0,.57,0,1.16,0,1.77l-1.22-.98c-.38-.3-.93-.24-1.24.14-.3.38-.24.93.14,1.24l2.32,1.85c0,1.35,0,2.7,0,3.93-1.06-.61-2.23-1.29-3.4-1.96l-.13-.08-.28-2.87c-.05-.48-.48-.84-.96-.79-.48.05-.84.48-.79.96l.16,1.62c-.49-.29-.98-.57-1.44-.83l-.12-2.54c-.02-.49-.44-.86-.92-.84-.49.02-.86.44-.84.92l.07,1.41c-.82-.48-1.49-.86-1.9-1.1-.42-.24-.96-.1-1.2.32-.24.42-.1.96.32,1.2.39.22.99.57,1.75,1.01l-1.21.5c-.45.19-.66.7-.48,1.15.14.34.47.55.81.55.11,0,.23-.02.33-.07l2.46-1.01c.43.25.88.51,1.34.78l-1.43.56c-.45.18-.68.69-.5,1.14.14.35.47.56.82.56.11,0,.21-.02.32-.06l2.74-1.07c.07.04.13.08.2.11,1.17.68,2.34,1.35,3.39,1.96-1.05.61-2.21,1.27-3.37,1.94-.06.03-.11.07-.17.1l-2.57-1.17c-.44-.2-.96,0-1.17.44-.2.44,0,.96.44,1.17l1.42.65c-.49.28-.97.56-1.43.82l-2.26-1.17c-.43-.22-.96-.05-1.19.38-.22.43-.05.96.38,1.19l1.26.65c-.82.47-1.49.86-1.9,1.1-.42.24-.57.78-.32,1.2.16.28.46.44.76.44.15,0,.3-.04.44-.12.39-.22,1-.57,1.75-1.01l-.17,1.29c-.06.48.27.92.76.99.04,0,.08,0,.12,0,.43,0,.81-.32.87-.76l.35-2.64c.45-.26.92-.53,1.4-.81l-.24,1.59c-.07.48.26.93.74,1,.04,0,.09.01.13.01.43,0,.8-.31.87-.75l.45-2.98c.06-.03.11-.06.17-.1,1.16-.67,2.32-1.34,3.38-1.95,0,.51,0,.93,0,1.23,0,.7,0,1.63,0,2.66l-2.33,1.67c-.4.28-.49.83-.2,1.23.28.4.83.49,1.23.2l1.31-.93c0,.22,0,.44,0,.66,0,.4,0,.8,0,1.19l-2.14,1.38c-.41.26-.53.81-.26,1.22.26.41.81.53,1.22.26l1.19-.76c0,.85,0,1.6,0,2.2,0,.49.39.88.88.88s.88-.39.88-.88c0-.55,0-1.24,0-2.02l1.03.8c.16.12.35.18.54.18.26,0,.52-.12.7-.34.3-.39.23-.94-.16-1.23l-2.11-1.62c0-.41,0-.83,0-1.25,0-.18,0-.35,0-.53l1.22.97c.16.13.36.19.55.19.26,0,.51-.11.69-.33.3-.38.24-.93-.14-1.24l-2.31-1.85c0-1.05,0-2,0-2.71,0-.3,0-.72,0-1.22.44.25.8.46,1.06.61.64.37,1.51.87,2.47,1.43l.28,2.88c.04.45.43.8.88.8.03,0,.06,0,.09,0,.48-.05.84-.48.79-.96l-.16-1.62c.13.08.26.15.4.23.35.2.7.4,1.04.6l.12,2.54c.02.47.41.84.88.84.01,0,.03,0,.04,0,.49-.02.86-.44.84-.92l-.07-1.41c.73.42,1.39.8,1.9,1.1.14.08.29.12.44.12.3,0,.6-.16.76-.44.24-.42.1-.96-.32-1.2-.48-.28-1.08-.62-1.75-1.01l1.21-.5c.45-.19.66-.7.48-1.15-.19-.45-.7-.66-1.15-.48l-2.46,1.01c-.36-.21-.72-.42-1.09-.63-.09-.05-.17-.1-.25-.15l1.43-.56c.45-.18.68-.69.5-1.14-.18-.45-.69-.68-1.14-.5l-2.74,1.07c-.99-.57-1.88-1.09-2.53-1.47-.26-.15-.62-.36-1.06-.61.44-.25.8-.46,1.06-.61.65-.37,1.52-.87,2.48-1.43l2.57,1.17c.12.05.24.08.36.08.33,0,.65-.19.8-.52.2-.44,0-.96-.44-1.17l-1.43-.65c.14-.08.27-.16.41-.24.34-.2.68-.39,1.01-.58l2.27,1.17c.13.07.27.1.4.1.32,0,.63-.17.78-.48.22-.43.05-.96-.38-1.19l-1.26-.65c.73-.42,1.39-.8,1.9-1.1.42-.24.57-.78.32-1.2Z"/><rect class="cls-9" x="60.48" y=".48" width="54.37" height="228.07" rx="7.83" ry="7.83"/><rect class="cls-6" x="324.69" y=".48" width="54.37" height="54.37" rx="7.83" ry="7.83" transform="translate(379.55 -324.21) rotate(90)"/><rect class="cls-5" x="324.69" y="58.26" width="54.37" height="54.37" rx="7.83" ry="7.83" transform="translate(437.33 -266.43) rotate(90)"/><rect class="cls-5" x="324.69" y="116.04" width="54.37" height="54.37" rx="7.83" ry="7.83" transform="translate(495.11 -208.66) rotate(90)"/><rect class="cls-5" x="324.69" y="174.18" width="54.37" height="54.37" rx="7.83" ry="7.83" transform="translate(553.25 -150.52) rotate(90)"/><path class="cls-7" d="m352.23,164.98c-9.68,0-17.85-7.86-17.85-17.15,0-4.52,1.96-9.06,5.37-12.48,1.77-1.77,3.88-3.18,6.15-4.1v-.68c0-1.1.36-2.17,1.01-3.04-.02-.18-.03-.36-.03-.54,0-2.76,2.25-5,5-5s5,2.25,5,5c0,.18-.01.36-.03.54.65.88,1.01,1.95,1.01,3.04v.44c6.81,2.55,11.52,9.39,11.52,16.82,0,9.46-7.7,17.15-17.15,17.15Z"/><path class="cls-8" d="m357.62,130.29v-.97c0-1.08-.4-2.07-1.05-2.83.04-.24.07-.5.07-.75,0-2.35-1.91-4.26-4.26-4.26s-4.26,1.91-4.26,4.26c0,.26.02.51.07.75-.65.76-1.05,1.75-1.05,2.83v1.19c-2.33.87-4.52,2.27-6.36,4.12-3.28,3.28-5.15,7.63-5.15,11.95,0,8.89,7.83,16.41,17.1,16.41s16.41-7.36,16.41-16.41c0-7.5-4.92-14.07-11.52-16.29Z"/><circle class="cls-2" cx="352.52" cy="146.31" r="13.49"/><path class="cls-4" d="m352.73,161.14c-3.86,0-7.73-1.55-10.62-4.24-2.99-2.79-4.63-6.45-4.63-10.31s1.68-7.71,4.61-10.64c2.93-2.93,6.81-4.61,10.64-4.61s7.52,1.65,10.31,4.63c2.7,2.89,4.24,6.76,4.24,10.62,0,8.03-6.53,14.56-14.56,14.56Zm0-28.05c-7.06,0-13.49,6.43-13.49,13.49s6.18,12.79,13.49,12.79,12.79-5.74,12.79-12.79-5.86-13.49-12.79-13.49Z"/><path class="cls-4" d="m352.61,156.45c-5.66,0-10.45-4.57-10.45-9.99,0-2.63,1.15-5.29,3.16-7.29,2.01-2.01,4.66-3.16,7.29-3.16,5.41,0,9.99,4.79,9.99,10.45s-4.48,9.99-9.99,9.99Zm0-18.67c-4.55,0-8.69,4.14-8.69,8.69s3.98,8.23,8.69,8.23,8.23-3.69,8.23-8.23-3.77-8.69-8.23-8.69Z"/><path class="cls-4" d="m354.88,133.07h-5.01c-.49,0-.88-.39-.88-.88v-2.87c0-1.39,1.13-2.51,2.51-2.51h1.75c1.39,0,2.51,1.13,2.51,2.51v2.87c0,.49-.39.88-.88.88Zm-4.13-1.76h3.25v-1.99c0-.41-.34-.75-.75-.75h-1.75c-.41,0-.75.34-.75.75v1.99Z"/><path class="cls-4" d="m352.33,152.21c-.49,0-.88-.39-.88-.88v-10.67c0-.49.39-.88.88-.88s.88.39.88.88v10.67c0,.49-.39.88-.88.88Z"/><path class="cls-4" d="m349.74,151.49c-.15,0-.3-.04-.44-.12-.42-.24-.57-.78-.32-1.2l5.33-9.24c.24-.42.78-.57,1.2-.32.42.24.57.78.32,1.2l-5.33,9.24c-.16.28-.46.44-.76.44Z"/><path class="cls-4" d="m347.86,149.57c-.3,0-.6-.16-.76-.44-.24-.42-.1-.96.32-1.2l9.24-5.33c.42-.24.96-.1,1.2.32.24.42.1.96-.32,1.2l-9.24,5.33c-.14.08-.29.12-.44.12Z"/><path class="cls-4" d="m357.86,146.97h-10.67c-.49,0-.88-.39-.88-.88s.39-.88.88-.88h10.67c.49,0,.88.39.88.88s-.39.88-.88.88Z"/><path class="cls-4" d="m357.15,149.72c-.15,0-.3-.04-.44-.12l-9.24-5.33c-.42-.24-.57-.78-.32-1.2.24-.42.78-.57,1.2-.32l9.24,5.33c.42.24.57.78.32,1.2-.16.28-.46.44-.76.44Z"/><path class="cls-4" d="m355.16,151.74c-.3,0-.6-.16-.76-.44l-5.33-9.24c-.24-.42-.1-.96.32-1.2.42-.24.96-.1,1.2.32l5.33,9.24c.24.42.1.96-.32,1.2-.14.08-.29.12-.44.12Z"/><path class="cls-4" d="m352.38,128.14c-1.33,0-2.41-1.08-2.41-2.41s1.08-2.41,2.41-2.41,2.41,1.08,2.41,2.41-1.08,2.41-2.41,2.41Zm0-3.05c-.36,0-.65.29-.65.65s.29.65.65.65.65-.29.65-.65-.29-.65-.65-.65Z"/><path class="cls-1" d="m362.28,152.9c.65-.31,1.16.64.43,1.02-.73.38-1.25-.63-.43-1.02Z"/><path class="cls-1" d="m361.17,138.44c-.16,1.03-1.71.86-1.57-.32.14-1.19,1.78-.98,1.57.32Z"/><path class="cls-1" d="m341.3,142.44c-.6-.3-.19-1.22.51-.9.7.32.25,1.28-.51.9Z"/><path class="cls-1" d="m348.03,158.32c-.57.11-.77-.73-.13-.88s.85.74.13.88Z"/><path class="cls-1" d="m356.14,157.25c-.52.53-1.34-.2-.77-.83.57-.63,1.43.17.77.83Z"/><path class="cls-1" d="m348.27,135.58c-.34.59-1.23.13-.88-.55.35-.69,1.3-.19.88.55Z"/><path class="cls-7" d="m352.23,223.12c-9.68,0-17.85-7.86-17.85-17.15,0-4.52,1.96-9.06,5.37-12.48,1.77-1.77,3.88-3.18,6.15-4.1v-.68c0-1.1.36-2.17,1.01-3.04-.02-.18-.03-.36-.03-.54,0-2.76,2.25-5,5-5s5,2.25,5,5c0,.18-.01.36-.03.54.65.88,1.01,1.95,1.01,3.04v.44c6.81,2.55,11.52,9.39,11.52,16.82,0,9.46-7.7,17.15-17.15,17.15Z"/><path class="cls-8" d="m357.62,188.43v-.97c0-1.08-.4-2.07-1.05-2.83.04-.24.07-.5.07-.75,0-2.35-1.91-4.26-4.26-4.26s-4.26,1.91-4.26,4.26c0,.26.02.51.07.75-.65.76-1.05,1.75-1.05,2.83v1.19c-2.33.87-4.52,2.27-6.36,4.12-3.28,3.28-5.15,7.63-5.15,11.95,0,8.89,7.83,16.41,17.1,16.41s16.41-7.36,16.41-16.41c0-7.5-4.92-14.07-11.52-16.29Z"/><circle class="cls-2" cx="352.52" cy="204.45" r="13.49"/><path class="cls-4" d="m352.73,219.28c-3.86,0-7.73-1.55-10.62-4.24-2.99-2.79-4.63-6.45-4.63-10.31s1.68-7.71,4.61-10.64c2.93-2.93,6.81-4.61,10.64-4.61s7.52,1.65,10.31,4.63c2.7,2.89,4.24,6.76,4.24,10.62,0,8.03-6.53,14.56-14.56,14.56Zm0-28.05c-7.06,0-13.49,6.43-13.49,13.49s6.18,12.79,13.49,12.79,12.79-5.74,12.79-12.79-5.86-13.49-12.79-13.49Z"/><path class="cls-4" d="m352.61,214.59c-5.66,0-10.45-4.57-10.45-9.99,0-2.63,1.15-5.29,3.16-7.29,2.01-2.01,4.66-3.16,7.29-3.16,5.41,0,9.99,4.79,9.99,10.45s-4.48,9.99-9.99,9.99Zm0-18.67c-4.55,0-8.69,4.14-8.69,8.69s3.98,8.23,8.69,8.23,8.23-3.69,8.23-8.23-3.77-8.69-8.23-8.69Z"/><path class="cls-4" d="m354.88,191.22h-5.01c-.49,0-.88-.39-.88-.88v-2.87c0-1.39,1.13-2.51,2.51-2.51h1.75c1.39,0,2.51,1.13,2.51,2.51v2.87c0,.49-.39.88-.88.88Zm-4.13-1.76h3.25v-1.99c0-.41-.34-.75-.75-.75h-1.75c-.41,0-.75.34-.75.75v1.99Z"/><path class="cls-4" d="m352.33,210.35c-.49,0-.88-.39-.88-.88v-10.67c0-.49.39-.88.88-.88s.88.39.88.88v10.67c0,.49-.39.88-.88.88Z"/><path class="cls-4" d="m349.74,209.63c-.15,0-.3-.04-.44-.12-.42-.24-.57-.78-.32-1.2l5.33-9.24c.24-.42.78-.57,1.2-.32.42.24.57.78.32,1.2l-5.33,9.24c-.16.28-.46.44-.76.44Z"/><path class="cls-4" d="m347.86,207.71c-.3,0-.6-.16-.76-.44-.24-.42-.1-.96.32-1.2l9.24-5.33c.42-.24.96-.1,1.2.32.24.42.1.96-.32,1.2l-9.24,5.33c-.14.08-.29.12-.44.12Z"/><path class="cls-4" d="m357.86,205.11h-10.67c-.49,0-.88-.39-.88-.88s.39-.88.88-.88h10.67c.49,0,.88.39.88.88s-.39.88-.88.88Z"/><path class="cls-4" d="m357.15,207.86c-.15,0-.3-.04-.44-.12l-9.24-5.33c-.42-.24-.57-.78-.32-1.2.24-.42.78-.57,1.2-.32l9.24,5.33c.42.24.57.78.32,1.2-.16.28-.46.44-.76.44Z"/><path class="cls-4" d="m355.16,209.88c-.3,0-.6-.16-.76-.44l-5.33-9.24c-.24-.42-.1-.96.32-1.2.42-.24.96-.1,1.2.32l5.33,9.24c.24.42.1.96-.32,1.2-.14.08-.29.12-.44.12Z"/><path class="cls-4" d="m352.38,186.28c-1.33,0-2.41-1.08-2.41-2.41s1.08-2.41,2.41-2.41,2.41,1.08,2.41,2.41-1.08,2.41-2.41,2.41Zm0-3.05c-.36,0-.65.29-.65.65s.29.65.65.65.65-.29.65-.65-.29-.65-.65-.65Z"/><path class="cls-1" d="m362.28,211.04c.65-.31,1.16.64.43,1.02-.73.38-1.25-.63-.43-1.02Z"/><path class="cls-1" d="m361.17,196.58c-.16,1.03-1.71.86-1.57-.32.14-1.19,1.78-.98,1.57.32Z"/><path class="cls-1" d="m341.3,200.58c-.6-.3-.19-1.22.51-.9.7.32.25,1.28-.51.9Z"/><path class="cls-1" d="m348.03,216.46c-.57.11-.77-.73-.13-.88s.85.74.13.88Z"/><path class="cls-1" d="m356.14,215.39c-.52.53-1.34-.2-.77-.83.57-.63,1.43.17.77.83Z"/><path class="cls-1" d="m348.27,193.72c-.34.59-1.23.13-.88-.55.35-.69,1.3-.19.88.55Z"/><path class="cls-7" d="m351.88,46.1c-2.09,0-4.3-1.25-6.75-3.84-.12-.13-.23-.24-.32-.34-.26-.28-.43-.46-.52-.52-.03-.02-.09-.04-.3-.09-.2-.05-.48-.12-.89-.25-.67-.21-1.27-.47-1.85-.73-.24-.1-.48-.21-.73-.31-2.66-1.1-5.47-2.6-5.22-6.55.06-1.02.33-2.06.59-3.06.29-1.12.56-2.17.51-3.02-.05-.8-.27-1.58-.5-2.42-.44-1.59-.9-3.24-.24-5.1.94-2.65,2.96-3.34,5.1-4.08l.17-.06c.28-.09.66-.2,1.11-.32.64-.17,1.61-.43,1.9-.6.25-.15.44-.4.69-.72.15-.2.33-.42.54-.65.8-.87,3.64-3.72,6.74-3.72,2.44,0,4.28,1.55,5.95,3.13.24.23.45.44.65.64.57.57.98.98,1.54,1.26.4.2,1.02.37,1.63.54.55.15,1.11.31,1.58.5,2.22.92,4.73,1.96,5.18,5.34.19,1.43-.2,2.86-.57,4.23-.3,1.11-.59,2.17-.49,3.02.08.72.28,1.44.5,2.19.38,1.33.77,2.7.53,4.26-.55,3.53-3.2,4.44-5.54,5.24-.21.07-.5.16-.84.27-.68.21-1.6.5-1.95.67-.39.19-.43.24-.64.48-.12.13-.27.31-.52.56-1.62,1.61-4.06,4.03-7.03,4.03Z"/><path class="cls-8" d="m368.19,20.01c-.38-2.88-2.36-3.77-4.72-4.75-.95-.39-2.41-.64-3.26-1.07-.89-.45-1.45-1.15-2.37-2.03-1.5-1.42-3.21-2.93-5.44-2.93-2.3,0-4.71,1.85-6.19,3.47-.55.6-.84,1.17-1.4,1.51-.57.34-2.42.74-3.15.98-2.15.74-3.96,1.3-4.8,3.67-.9,2.57.63,4.8.79,7.23.12,1.78-.97,4.1-1.1,6.18-.21,3.4,2.1,4.71,4.76,5.81.86.36,1.62.73,2.52,1.02,1.61.51,1.05.04,2.34,1.4,1.56,1.65,3.79,3.6,6.21,3.6,2.57,0,4.79-2.12,6.5-3.81.72-.71.59-.8,1.35-1.17.59-.29,2.22-.75,2.88-.98,2.47-.85,4.58-1.65,5.05-4.65.35-2.23-.8-4.17-1.03-6.25-.23-2.1,1.38-4.79,1.06-7.24Z"/><path class="cls-7" d="m357.86,36.93c-.58-.36-.08-1.25.6-.87.68.39.14,1.33-.6.87Z"/><path class="cls-7" d="m339.61,27.26c-.07-.89,1.24-1.06,1.36-.05.13,1.01-1.27,1.17-1.36.05Z"/><path class="cls-3" d="m355.17,22.8c-.74,0-.81-1.09.04-1.14.85-.05.9,1.13-.04,1.14Z"/><path class="cls-7" d="m346.88,16.43c.43-.45,1.13.16.66.7-.47.54-1.21-.13-.66-.7Z"/><path class="cls-7" d="m345.2,36.44c.19.52-.57.83-.81.25s.57-.9.81-.25Z"/><path class="cls-7" d="m363.74,27.56c-.07-.69.95-.84,1.06-.06.11.78-.97.93-1.06.06Z"/><path class="cls-5" d="m342.84,20.56c-1.74,2.99.91,3.49.34,6.44-.57,2.96-1.1,3.26-.3,5.12s3.37,1.74,4.74,2.54,2.54,3.26,4.74,3.18,2.54-1.82,4.28-3.11c1.74-1.29,3.83-.34,5.31-2.31,1.48-1.97.19-3.64.11-5.76-.08-2.12.27-3.98-.34-5.53-.8-2.06-3.09-1.86-4.59-2.77s-2.08-2.65-4.7-2.69c-2.39-.04-3.49,2.58-4.77,2.96-2.66.78-3.79.17-4.81,1.93Z"/><path class="cls-4" d="m365.03,19.39c-.24-.42-.78-.57-1.2-.32-.48.28-1.08.62-1.75,1.01l.17-1.29c.06-.48-.27-.92-.76-.99-.48-.06-.92.27-.99.76l-.35,2.64c-.35.2-.7.4-1.06.61-.11.07-.23.13-.34.2l.24-1.58c.07-.48-.26-.93-.74-1-.48-.07-.93.26-1,.74l-.45,2.97c-.97.56-1.84,1.06-2.48,1.43-.26.15-.62.36-1.06.61,0-1.21,0-2.54,0-3.88l2.33-1.67c.4-.28.49-.83.2-1.23-.28-.4-.83-.49-1.23-.2l-1.3.93c0-.64,0-1.26,0-1.85l2.14-1.38c.41-.26.53-.81.26-1.22-.26-.41-.81-.53-1.22-.26l-1.19.76c0-.95,0-1.72,0-2.2s-.39-.88-.88-.88-.88.39-.88.88c0,.45,0,1.15,0,2.02l-1.03-.8c-.39-.3-.94-.23-1.23.16-.3.39-.23.94.16,1.23l2.11,1.63c0,.57,0,1.16,0,1.77l-1.22-.98c-.38-.3-.93-.24-1.24.14-.3.38-.24.93.14,1.24l2.32,1.85c0,1.35,0,2.7,0,3.93-1.06-.61-2.23-1.29-3.4-1.96l-.13-.08-.28-2.87c-.05-.48-.48-.84-.96-.79-.48.05-.84.48-.79.96l.16,1.62c-.49-.29-.98-.57-1.44-.83l-.12-2.54c-.02-.49-.44-.86-.92-.84-.49.02-.86.44-.84.92l.07,1.41c-.82-.48-1.49-.86-1.9-1.1-.42-.24-.96-.1-1.2.32-.24.42-.1.96.32,1.2.39.22.99.57,1.75,1.01l-1.21.5c-.45.19-.66.7-.48,1.15.14.34.47.55.81.55.11,0,.23-.02.33-.07l2.46-1.01c.43.25.88.51,1.34.78l-1.43.56c-.45.18-.68.69-.5,1.14.14.35.47.56.82.56.11,0,.21-.02.32-.06l2.74-1.07c.07.04.13.08.2.11,1.17.68,2.34,1.35,3.39,1.96-1.05.61-2.21,1.27-3.37,1.94-.06.03-.11.07-.17.1l-2.57-1.17c-.44-.2-.96,0-1.17.44-.2.44,0,.96.44,1.17l1.42.65c-.49.28-.97.56-1.43.82l-2.26-1.17c-.43-.22-.96-.05-1.19.38-.22.43-.05.96.38,1.19l1.26.65c-.82.47-1.49.86-1.9,1.1-.42.24-.57.78-.32,1.2.16.28.46.44.76.44.15,0,.3-.04.44-.12.39-.22,1-.57,1.75-1.01l-.17,1.29c-.06.48.27.92.76.99.04,0,.08,0,.12,0,.43,0,.81-.32.87-.76l.35-2.64c.45-.26.92-.53,1.4-.81l-.24,1.59c-.07.48.26.93.74,1,.04,0,.09.01.13.01.43,0,.8-.31.87-.75l.45-2.98c.06-.03.11-.06.17-.1,1.16-.67,2.32-1.34,3.38-1.95,0,.51,0,.93,0,1.23,0,.7,0,1.63,0,2.66l-2.33,1.67c-.4.28-.49.83-.2,1.23.28.4.83.49,1.23.2l1.31-.93c0,.22,0,.44,0,.66,0,.4,0,.8,0,1.19l-2.14,1.38c-.41.26-.53.81-.26,1.22.26.41.81.53,1.22.26l1.19-.76c0,.85,0,1.6,0,2.2,0,.49.39.88.88.88s.88-.39.88-.88c0-.55,0-1.24,0-2.02l1.03.8c.16.12.35.18.54.18.26,0,.52-.12.7-.34.3-.39.23-.94-.16-1.23l-2.11-1.62c0-.41,0-.83,0-1.25,0-.18,0-.35,0-.53l1.22.97c.16.13.36.19.55.19.26,0,.51-.11.69-.33.3-.38.24-.93-.14-1.24l-2.31-1.85c0-1.05,0-2,0-2.71,0-.3,0-.72,0-1.22.44.25.8.46,1.06.61.64.37,1.51.87,2.47,1.43l.28,2.88c.04.45.43.8.88.8.03,0,.06,0,.09,0,.48-.05.84-.48.79-.96l-.16-1.62c.13.08.26.15.4.23.35.2.7.4,1.04.6l.12,2.54c.02.47.41.84.88.84.01,0,.03,0,.04,0,.49-.02.86-.44.84-.92l-.07-1.41c.73.42,1.39.8,1.9,1.1.14.08.29.12.44.12.3,0,.6-.16.76-.44.24-.42.1-.96-.32-1.2-.48-.28-1.08-.62-1.75-1.01l1.21-.5c.45-.19.66-.7.48-1.15-.19-.45-.7-.66-1.15-.48l-2.46,1.01c-.36-.21-.72-.42-1.09-.63-.09-.05-.17-.1-.25-.15l1.43-.56c.45-.18.68-.69.5-1.14-.18-.45-.69-.68-1.14-.5l-2.74,1.07c-.99-.57-1.88-1.09-2.53-1.47-.26-.15-.62-.36-1.06-.61.44-.25.8-.46,1.06-.61.65-.37,1.52-.87,2.48-1.43l2.57,1.17c.12.05.24.08.36.08.33,0,.65-.19.8-.52.2-.44,0-.96-.44-1.17l-1.43-.65c.14-.08.27-.16.41-.24.34-.2.68-.39,1.01-.58l2.27,1.17c.13.07.27.1.4.1.32,0,.63-.17.78-.48.22-.43.05-.96-.38-1.19l-1.26-.65c.73-.42,1.39-.8,1.9-1.1.42-.24.57-.78.32-1.2Z"/><path class="cls-7" d="m352.23,107.2c-9.68,0-17.85-7.86-17.85-17.15,0-4.52,1.96-9.06,5.37-12.48,1.77-1.77,3.88-3.18,6.15-4.1v-.68c0-1.1.36-2.17,1.01-3.04-.02-.18-.03-.36-.03-.54,0-2.76,2.25-5,5-5s5,2.25,5,5c0,.18-.01.36-.03.54.65.88,1.01,1.95,1.01,3.04v.44c6.81,2.55,11.52,9.39,11.52,16.82,0,9.46-7.7,17.15-17.15,17.15Z"/><path class="cls-8" d="m357.62,72.51v-.97c0-1.08-.4-2.07-1.05-2.83.04-.24.07-.5.07-.75,0-2.35-1.91-4.26-4.26-4.26s-4.26,1.91-4.26,4.26c0,.26.02.51.07.75-.65.76-1.05,1.75-1.05,2.83v1.19c-2.33.87-4.52,2.27-6.36,4.12-3.28,3.28-5.15,7.63-5.15,11.95,0,8.89,7.83,16.41,17.1,16.41s16.41-7.36,16.41-16.41c0-7.5-4.92-14.07-11.52-16.29Z"/><circle class="cls-2" cx="352.52" cy="88.53" r="13.49"/><path class="cls-4" d="m352.73,103.36c-3.86,0-7.73-1.55-10.62-4.24-2.99-2.79-4.63-6.45-4.63-10.31s1.68-7.71,4.61-10.64c2.93-2.93,6.81-4.61,10.64-4.61s7.52,1.65,10.31,4.63c2.7,2.89,4.24,6.76,4.24,10.62,0,8.03-6.53,14.56-14.56,14.56Zm0-28.05c-7.06,0-13.49,6.43-13.49,13.49s6.18,12.79,13.49,12.79,12.79-5.74,12.79-12.79-5.86-13.49-12.79-13.49Z"/><path class="cls-4" d="m352.61,98.67c-5.66,0-10.45-4.57-10.45-9.99,0-2.63,1.15-5.29,3.16-7.29,2.01-2.01,4.66-3.16,7.29-3.16,5.41,0,9.99,4.79,9.99,10.45s-4.48,9.99-9.99,9.99Zm0-18.67c-4.55,0-8.69,4.14-8.69,8.69s3.98,8.23,8.69,8.23,8.23-3.69,8.23-8.23-3.77-8.69-8.23-8.69Z"/><path class="cls-4" d="m354.88,75.3h-5.01c-.49,0-.88-.39-.88-.88v-2.87c0-1.39,1.13-2.51,2.51-2.51h1.75c1.39,0,2.51,1.13,2.51,2.51v2.87c0,.49-.39.88-.88.88Zm-4.13-1.76h3.25v-1.99c0-.41-.34-.75-.75-.75h-1.75c-.41,0-.75.34-.75.75v1.99Z"/><path class="cls-4" d="m352.33,94.44c-.49,0-.88-.39-.88-.88v-10.67c0-.49.39-.88.88-.88s.88.39.88.88v10.67c0,.49-.39.88-.88.88Z"/><path class="cls-4" d="m349.74,93.71c-.15,0-.3-.04-.44-.12-.42-.24-.57-.78-.32-1.2l5.33-9.24c.24-.42.78-.57,1.2-.32.42.24.57.78.32,1.2l-5.33,9.24c-.16.28-.46.44-.76.44Z"/><path class="cls-4" d="m347.86,91.8c-.3,0-.6-.16-.76-.44-.24-.42-.1-.96.32-1.2l9.24-5.33c.42-.24.96-.1,1.2.32.24.42.1.96-.32,1.2l-9.24,5.33c-.14.08-.29.12-.44.12Z"/><path class="cls-4" d="m357.86,89.19h-10.67c-.49,0-.88-.39-.88-.88s.39-.88.88-.88h10.67c.49,0,.88.39.88.88s-.39.88-.88.88Z"/><path class="cls-4" d="m357.15,91.94c-.15,0-.3-.04-.44-.12l-9.24-5.33c-.42-.24-.57-.78-.32-1.2.24-.42.78-.57,1.2-.32l9.24,5.33c.42.24.57.78.32,1.2-.16.28-.46.44-.76.44Z"/><path class="cls-4" d="m355.16,93.96c-.3,0-.6-.16-.76-.44l-5.33-9.24c-.24-.42-.1-.96.32-1.2.42-.24.96-.1,1.2.32l5.33,9.24c.24.42.1.96-.32,1.2-.14.08-.29.12-.44.12Z"/><path class="cls-4" d="m352.38,70.36c-1.33,0-2.41-1.08-2.41-2.41s1.08-2.41,2.41-2.41,2.41,1.08,2.41,2.41-1.08,2.41-2.41,2.41Zm0-3.05c-.36,0-.65.29-.65.65s.29.65.65.65.65-.29.65-.65-.29-.65-.65-.65Z"/><path class="cls-1" d="m362.28,95.13c.65-.31,1.16.64.43,1.02-.73.38-1.25-.63-.43-1.02Z"/><path class="cls-1" d="m361.17,80.67c-.16,1.03-1.71.86-1.57-.32.14-1.19,1.78-.98,1.57.32Z"/><path class="cls-1" d="m341.3,84.66c-.6-.3-.19-1.22.51-.9.7.32.25,1.28-.51.9Z"/><path class="cls-1" d="m348.03,100.54c-.57.11-.77-.73-.13-.88s.85.74.13.88Z"/><path class="cls-1" d="m356.14,99.47c-.52.53-1.34-.2-.77-.83.57-.63,1.43.17.77.83Z"/><path class="cls-1" d="m348.27,77.8c-.34.59-1.23.13-.88-.55.35-.69,1.3-.19.88.55Z"/><path class="cls-10" d="m138.18,28.88c15.43,0,27.94,12.51,27.94,27.94s-12.51,27.94-27.94,27.94"/><polygon class="cls-4" points="145.7 38.15 147.24 36.49 139.05 28.88 147.24 21.26 145.7 19.6 135.72 28.88 145.7 38.15"/><path class="cls-10" d="m37.16,84.76c-15.43,0-27.94-12.51-27.94-27.94s12.51-27.94,27.94-27.94"/><polygon class="cls-4" points="29.64 75.49 28.09 77.15 36.29 84.76 28.09 92.38 29.64 94.04 39.62 84.76 29.64 75.49"/><line class="cls-10" x1="188.87" y1="123.78" x2="247.83" y2="123.78"/><polygon class="cls-4" points="240.32 133.05 238.77 131.39 246.96 123.78 238.77 116.17 240.32 114.51 250.29 123.78 240.32 133.05"/></g></g></g></svg>