<?xml version="1.0" encoding="UTF-8"?><svg xmlns="http://www.w3.org/2000/svg" viewBox="0 0 302.2 157.47"><defs><style>.cls-1{mix-blend-mode:multiply;}.cls-1,.cls-2{fill:#c80021;}.cls-1,.cls-2,.cls-3,.cls-4,.cls-5,.cls-6,.cls-7,.cls-8{stroke-width:0px;}.cls-9{stroke-dasharray:0 0 .33 2;stroke-width:.67px;}.cls-9,.cls-10,.cls-11{fill:none;stroke:#fff;stroke-linecap:round;stroke-linejoin:round;}.cls-10{stroke-width:1.05px;}.cls-11{stroke-width:1.05px;}.cls-12{opacity:.5;}.cls-13{isolation:isolate;}.cls-3{fill:#8b4832;}.cls-4{fill:#fff;}.cls-5{fill:#0041ff;}.cls-6{fill:#001875;}.cls-7{fill:#000322;}.cls-8{fill:#001b37;}</style></defs><g class="cls-13"><g id="Layer_2"><g id="Layer_7"><g class="cls-12"><rect class="cls-6" x="83.17" y=".33" width="37.38" height="37.38" rx="5.38" ry="5.38" transform="translate(120.88 -82.83) rotate(90)"/><rect class="cls-6" x="83.17" y="40.06" width="37.38" height="37.38" rx="5.38" ry="5.38" transform="translate(160.6 -43.11) rotate(90)"/><rect class="cls-6" x="83.17" y="79.78" width="37.38" height="37.38" rx="5.38" ry="5.38" transform="translate(200.33 -3.39) rotate(90)"/><rect class="cls-6" x="83.17" y="119.75" width="37.38" height="37.38" rx="5.38" ry="5.38" transform="translate(240.3 36.59) rotate(90)"/></g><g class="cls-12"><rect class="cls-6" x="0" y=".33" width="37.38" height="37.38" rx="5.38" ry="5.38" transform="translate(37.72 .33) rotate(90)"/><rect class="cls-6" x="0" y="40.06" width="37.38" height="37.38" rx="5.38" ry="5.38" transform="translate(77.44 40.06) rotate(90)"/><rect class="cls-6" x="0" y="79.78" width="37.38" height="37.38" rx="5.38" ry="5.38" transform="translate(117.16 79.78) rotate(90)"/><rect class="cls-6" x="0" y="119.75" width="37.38" height="37.38" rx="5.38" ry="5.38" transform="translate(157.13 119.75) rotate(90)"/></g><g class="cls-12"><rect class="cls-6" x="264.82" y=".33" width="37.38" height="37.38" rx="5.38" ry="5.38" transform="translate(302.53 -264.48) rotate(90)"/><rect class="cls-6" x="264.82" y="40.06" width="37.38" height="37.38" rx="5.38" ry="5.38" transform="translate(342.26 -224.76) rotate(90)"/><rect class="cls-6" x="264.82" y="79.78" width="37.38" height="37.38" rx="5.38" ry="5.38" transform="translate(381.98 -185.04) rotate(90)"/><rect class="cls-6" x="264.82" y="119.75" width="37.38" height="37.38" rx="5.38" ry="5.38" transform="translate(421.95 -145.07) rotate(90)"/></g><g class="cls-12"><rect class="cls-6" x="181.65" y=".33" width="37.38" height="37.38" rx="5.38" ry="5.38" transform="translate(219.37 -181.32) rotate(90)"/><rect class="cls-6" x="181.65" y="40.06" width="37.38" height="37.38" rx="5.38" ry="5.38" transform="translate(259.09 -141.59) rotate(90)"/><rect class="cls-6" x="181.65" y="79.78" width="37.38" height="37.38" rx="5.38" ry="5.38" transform="translate(298.81 -101.87) rotate(90)"/><rect class="cls-6" x="181.65" y="119.75" width="37.38" height="37.38" rx="5.38" ry="5.38" transform="translate(338.79 -61.9) rotate(90)"/></g><rect class="cls-6" x="41.58" y=".33" width="37.38" height="37.38" rx="5.38" ry="5.38" transform="translate(79.3 -41.25) rotate(90)"/><rect class="cls-6" x="41.58" y="40.06" width="37.38" height="37.38" rx="5.38" ry="5.38" transform="translate(119.02 -1.53) rotate(90)"/><rect class="cls-6" x="41.58" y="79.78" width="37.38" height="37.38" rx="5.38" ry="5.38" transform="translate(158.74 38.2) rotate(90)"/><rect class="cls-6" x="41.58" y="119.75" width="37.38" height="37.38" rx="5.38" ry="5.38" transform="translate(198.72 78.17) rotate(90)"/><path class="cls-7" d="m60.51,113.42c-6.65,0-12.27-5.4-12.27-11.79,0-3.1,1.35-6.23,3.69-8.58,1.21-1.21,2.67-2.18,4.22-2.82v-.47c0-.75.25-1.49.69-2.09-.01-.12-.02-.25-.02-.37,0-1.9,1.54-3.44,3.44-3.44s3.44,1.54,3.44,3.44c0,.12,0,.25-.02.37.45.6.69,1.34.69,2.09v.3c4.68,1.75,7.92,6.45,7.92,11.56,0,6.5-5.29,11.79-11.79,11.79Z"/><path class="cls-8" d="m64.22,89.57v-.66c0-.74-.27-1.42-.72-1.95.03-.17.05-.34.05-.52,0-1.61-1.31-2.93-2.93-2.93s-2.93,1.31-2.93,2.93c0,.18.02.35.05.52-.45.52-.72,1.2-.72,1.95v.82c-1.6.6-3.11,1.56-4.38,2.83-2.25,2.25-3.54,5.25-3.54,8.22,0,6.11,5.39,11.28,11.76,11.28s11.28-5.06,11.28-11.28c0-5.16-3.39-9.67-7.92-11.2Z"/><circle class="cls-2" cx="60.72" cy="100.59" r="9.28"/><path class="cls-4" d="m60.86,110.78c-2.66,0-5.32-1.06-7.3-2.92-2.05-1.92-3.18-4.44-3.18-7.09s1.16-5.3,3.17-7.32c2.01-2.01,4.68-3.17,7.32-3.17s5.17,1.13,7.09,3.18c1.85,1.98,2.92,4.64,2.92,7.3,0,5.52-4.49,10.01-10.01,10.01Zm0-19.28c-4.85,0-9.27,4.42-9.27,9.27s4.25,8.8,9.27,8.8,8.8-3.95,8.8-8.8-4.03-9.27-8.8-9.27Z"/><path class="cls-4" d="m60.78,107.56c-3.89,0-7.18-3.14-7.18-6.87,0-1.81.79-3.63,2.17-5.01,1.38-1.38,3.21-2.17,5.01-2.17,3.72,0,6.87,3.29,6.87,7.18s-3.08,6.87-6.87,6.87Zm0-12.84c-3.13,0-5.97,2.85-5.97,5.97s2.74,5.66,5.97,5.66,5.66-2.54,5.66-5.66-2.59-5.97-5.66-5.97Z"/><path class="cls-4" d="m62.34,91.49h-3.45c-.33,0-.61-.27-.61-.61v-1.98c0-.95.77-1.73,1.73-1.73h1.2c.95,0,1.73.77,1.73,1.73v1.98c0,.33-.27.61-.61.61Zm-2.84-1.21h2.23v-1.37c0-.28-.23-.52-.52-.52h-1.2c-.28,0-.52.23-.52.52v1.37Z"/><path class="cls-4" d="m60.58,104.65c-.33,0-.61-.27-.61-.61v-7.34c0-.33.27-.61.61-.61s.61.27.61.61v7.34c0,.33-.27.61-.61.61Z"/><path class="cls-4" d="m58.8,104.15c-.1,0-.21-.03-.3-.08-.29-.17-.39-.54-.22-.83l3.67-6.35c.17-.29.54-.39.83-.22.29.17.39.54.22.83l-3.67,6.35c-.11.19-.32.3-.52.3Z"/><path class="cls-4" d="m57.51,102.83c-.21,0-.41-.11-.52-.3-.17-.29-.07-.66.22-.83l6.35-3.67c.29-.17.66-.07.83.22.17.29.07.66-.22.83l-6.35,3.67c-.1.06-.2.08-.3.08Z"/><path class="cls-4" d="m64.38,101.04h-7.34c-.33,0-.61-.27-.61-.61s.27-.61.61-.61h7.34c.33,0,.61.27.61.61s-.27.61-.61.61Z"/><path class="cls-4" d="m63.9,102.93c-.1,0-.21-.03-.3-.08l-6.35-3.67c-.29-.17-.39-.54-.22-.83.17-.29.54-.39.83-.22l6.35,3.67c.29.17.39.54.22.83-.11.19-.32.3-.52.3Z"/><path class="cls-4" d="m62.53,104.32c-.21,0-.41-.11-.52-.3l-3.67-6.35c-.17-.29-.07-.66.22-.83.29-.17.66-.07.83.22l3.67,6.35c.17.29.07.66-.22.83-.1.06-.2.08-.3.08Z"/><path class="cls-4" d="m60.62,88.1c-.91,0-1.65-.74-1.65-1.65s.74-1.65,1.65-1.65,1.65.74,1.65,1.65-.74,1.65-1.65,1.65Zm0-2.1c-.24,0-.44.2-.44.44s.2.44.44.44.44-.2.44-.44-.2-.44-.44-.44Z"/><path class="cls-1" d="m67.42,105.12c.45-.21.8.44.29.7-.5.26-.86-.44-.29-.7Z"/><path class="cls-1" d="m66.66,95.18c-.11.71-1.17.59-1.08-.22.09-.82,1.22-.67,1.08.22Z"/><path class="cls-1" d="m53,97.93c-.41-.21-.13-.84.35-.62.48.22.17.88-.35.62Z"/><path class="cls-1" d="m57.63,108.84c-.39.08-.53-.5-.09-.61s.58.51.09.61Z"/><path class="cls-1" d="m63.2,108.11c-.36.36-.92-.14-.53-.57.39-.43.98.11.53.57Z"/><path class="cls-1" d="m57.79,93.21c-.23.4-.84.09-.6-.38.24-.47.89-.13.6.38Z"/><path class="cls-7" d="m60.51,33.98c-6.65,0-12.27-5.4-12.27-11.79,0-3.1,1.35-6.23,3.69-8.58,1.21-1.21,2.67-2.18,4.22-2.82v-.47c0-.75.25-1.49.69-2.09-.01-.12-.02-.25-.02-.37,0-1.9,1.54-3.44,3.44-3.44s3.44,1.54,3.44,3.44c0,.12,0,.25-.02.37.45.6.69,1.34.69,2.09v.3c4.68,1.75,7.92,6.45,7.92,11.56,0,6.5-5.29,11.79-11.79,11.79Z"/><path class="cls-8" d="m64.22,10.13v-.66c0-.74-.27-1.42-.72-1.95.03-.17.05-.34.05-.52,0-1.61-1.31-2.93-2.93-2.93s-2.93,1.31-2.93,2.93c0,.18.02.35.05.52-.45.52-.72,1.2-.72,1.95v.82c-1.6.6-3.11,1.56-4.38,2.83-2.25,2.25-3.54,5.25-3.54,8.22,0,6.11,5.39,11.28,11.76,11.28s11.28-5.06,11.28-11.28c0-5.16-3.39-9.67-7.92-11.2Z"/><circle class="cls-2" cx="60.72" cy="21.14" r="9.28"/><path class="cls-4" d="m60.86,31.34c-2.66,0-5.32-1.06-7.3-2.92-2.05-1.92-3.18-4.44-3.18-7.09s1.16-5.3,3.17-7.32c2.01-2.01,4.68-3.17,7.32-3.17s5.17,1.13,7.09,3.18c1.85,1.98,2.92,4.64,2.92,7.3,0,5.52-4.49,10.01-10.01,10.01Zm0-19.28c-4.85,0-9.27,4.42-9.27,9.27s4.25,8.8,9.27,8.8,8.8-3.95,8.8-8.8-4.03-9.27-8.8-9.27Z"/><path class="cls-4" d="m60.78,28.12c-3.89,0-7.18-3.14-7.18-6.87,0-1.81.79-3.63,2.17-5.01,1.38-1.38,3.21-2.17,5.01-2.17,3.72,0,6.87,3.29,6.87,7.18s-3.08,6.87-6.87,6.87Zm0-12.84c-3.13,0-5.97,2.85-5.97,5.97s2.74,5.66,5.97,5.66,5.66-2.54,5.66-5.66-2.59-5.97-5.66-5.97Z"/><path class="cls-4" d="m62.34,12.05h-3.45c-.33,0-.61-.27-.61-.61v-1.98c0-.95.77-1.73,1.73-1.73h1.2c.95,0,1.73.77,1.73,1.73v1.98c0,.33-.27.61-.61.61Zm-2.84-1.21h2.23v-1.37c0-.28-.23-.52-.52-.52h-1.2c-.28,0-.52.23-.52.52v1.37Z"/><path class="cls-4" d="m60.58,25.2c-.33,0-.61-.27-.61-.61v-7.34c0-.33.27-.61.61-.61s.61.27.61.61v7.34c0,.33-.27.61-.61.61Z"/><path class="cls-4" d="m58.8,24.71c-.1,0-.21-.03-.3-.08-.29-.17-.39-.54-.22-.83l3.67-6.35c.17-.29.54-.39.83-.22.29.17.39.54.22.83l-3.67,6.35c-.11.19-.32.3-.52.3Z"/><path class="cls-4" d="m57.51,23.39c-.21,0-.41-.11-.52-.3-.17-.29-.07-.66.22-.83l6.35-3.67c.29-.17.66-.07.83.22.17.29.07.66-.22.83l-6.35,3.67c-.1.06-.2.08-.3.08Z"/><path class="cls-4" d="m64.38,21.6h-7.34c-.33,0-.61-.27-.61-.61s.27-.61.61-.61h7.34c.33,0,.61.27.61.61s-.27.61-.61.61Z"/><path class="cls-4" d="m63.9,23.49c-.1,0-.21-.03-.3-.08l-6.35-3.67c-.29-.17-.39-.54-.22-.83.17-.29.54-.39.83-.22l6.35,3.67c.29.17.39.54.22.83-.11.19-.32.3-.52.3Z"/><path class="cls-4" d="m62.53,24.88c-.21,0-.41-.11-.52-.3l-3.67-6.35c-.17-.29-.07-.66.22-.83.29-.17.66-.07.83.22l3.67,6.35c.17.29.07.66-.22.83-.1.06-.2.08-.3.08Z"/><path class="cls-4" d="m60.62,8.65c-.91,0-1.65-.74-1.65-1.65s.74-1.65,1.65-1.65,1.65.74,1.65,1.65-.74,1.65-1.65,1.65Zm0-2.1c-.24,0-.44.2-.44.44s.2.44.44.44.44-.2.44-.44-.2-.44-.44-.44Z"/><path class="cls-1" d="m67.42,25.68c.45-.21.8.44.29.7-.5.26-.86-.44-.29-.7Z"/><path class="cls-1" d="m66.66,15.74c-.11.71-1.17.59-1.08-.22.09-.82,1.22-.67,1.08.22Z"/><path class="cls-1" d="m53,18.48c-.41-.21-.13-.84.35-.62.48.22.17.88-.35.62Z"/><path class="cls-1" d="m57.63,29.4c-.39.08-.53-.5-.09-.61s.58.51.09.61Z"/><path class="cls-1" d="m63.2,28.66c-.36.36-.92-.14-.53-.57.39-.43.98.11.53.57Z"/><path class="cls-1" d="m57.79,13.77c-.23.4-.84.09-.6-.38.24-.47.89-.13.6.38Z"/><path class="cls-7" d="m60.51,153.4c-6.65,0-12.27-5.4-12.27-11.79,0-3.1,1.35-6.23,3.69-8.58,1.21-1.21,2.67-2.18,4.22-2.82v-.47c0-.75.25-1.49.69-2.09-.01-.12-.02-.25-.02-.37,0-1.9,1.54-3.44,3.44-3.44s3.44,1.54,3.44,3.44c0,.12,0,.25-.02.37.45.6.69,1.34.69,2.09v.3c4.68,1.75,7.92,6.45,7.92,11.56,0,6.5-5.29,11.79-11.79,11.79Z"/><path class="cls-8" d="m64.22,129.55v-.66c0-.74-.27-1.42-.72-1.95.03-.17.05-.34.05-.52,0-1.61-1.31-2.93-2.93-2.93s-2.93,1.31-2.93,2.93c0,.18.02.35.05.52-.45.52-.72,1.2-.72,1.95v.82c-1.6.6-3.11,1.56-4.38,2.83-2.25,2.25-3.54,5.25-3.54,8.22,0,6.11,5.39,11.28,11.76,11.28s11.28-5.06,11.28-11.28c0-5.16-3.39-9.67-7.92-11.2Z"/><circle class="cls-2" cx="60.72" cy="140.56" r="9.28"/><path class="cls-4" d="m60.86,150.76c-2.66,0-5.32-1.06-7.3-2.92-2.05-1.92-3.18-4.44-3.18-7.09s1.16-5.3,3.17-7.32c2.01-2.01,4.68-3.17,7.32-3.17s5.17,1.13,7.09,3.18c1.85,1.98,2.92,4.64,2.92,7.3,0,5.52-4.49,10.01-10.01,10.01Zm0-19.28c-4.85,0-9.27,4.42-9.27,9.27s4.25,8.8,9.27,8.8,8.8-3.95,8.8-8.8-4.03-9.27-8.8-9.27Z"/><path class="cls-4" d="m60.78,147.54c-3.89,0-7.18-3.14-7.18-6.87,0-1.81.79-3.63,2.17-5.01,1.38-1.38,3.21-2.17,5.01-2.17,3.72,0,6.87,3.29,6.87,7.18s-3.08,6.87-6.87,6.87Zm0-12.84c-3.13,0-5.97,2.85-5.97,5.97s2.74,5.66,5.97,5.66,5.66-2.54,5.66-5.66-2.59-5.97-5.66-5.97Z"/><path class="cls-4" d="m62.34,131.46h-3.45c-.33,0-.61-.27-.61-.61v-1.98c0-.95.77-1.73,1.73-1.73h1.2c.95,0,1.73.77,1.73,1.73v1.98c0,.33-.27.61-.61.61Zm-2.84-1.21h2.23v-1.37c0-.28-.23-.52-.52-.52h-1.2c-.28,0-.52.23-.52.52v1.37Z"/><path class="cls-4" d="m60.58,144.62c-.33,0-.61-.27-.61-.61v-7.34c0-.33.27-.61.61-.61s.61.27.61.61v7.34c0,.33-.27.61-.61.61Z"/><path class="cls-4" d="m58.8,144.13c-.1,0-.21-.03-.3-.08-.29-.17-.39-.54-.22-.83l3.67-6.35c.17-.29.54-.39.83-.22.29.17.39.54.22.83l-3.67,6.35c-.11.19-.32.3-.52.3Z"/><path class="cls-4" d="m57.51,142.81c-.21,0-.41-.11-.52-.3-.17-.29-.07-.66.22-.83l6.35-3.67c.29-.17.66-.07.83.22.17.29.07.66-.22.83l-6.35,3.67c-.1.06-.2.08-.3.08Z"/><path class="cls-4" d="m64.38,141.02h-7.34c-.33,0-.61-.27-.61-.61s.27-.61.61-.61h7.34c.33,0,.61.27.61.61s-.27.61-.61.61Z"/><path class="cls-4" d="m63.9,142.91c-.1,0-.21-.03-.3-.08l-6.35-3.67c-.29-.17-.39-.54-.22-.83.17-.29.54-.39.83-.22l6.35,3.67c.29.17.39.54.22.83-.11.19-.32.3-.52.3Z"/><path class="cls-4" d="m62.53,144.3c-.21,0-.41-.11-.52-.3l-3.67-6.35c-.17-.29-.07-.66.22-.83.29-.17.66-.07.83.22l3.67,6.35c.17.29.07.66-.22.83-.1.06-.2.08-.3.08Z"/><path class="cls-4" d="m60.62,128.07c-.91,0-1.65-.74-1.65-1.65s.74-1.65,1.65-1.65,1.65.74,1.65,1.65-.74,1.65-1.65,1.65Zm0-2.1c-.24,0-.44.2-.44.44s.2.44.44.44.44-.2.44-.44-.2-.44-.44-.44Z"/><path class="cls-1" d="m67.42,145.1c.45-.21.8.44.29.7-.5.26-.86-.44-.29-.7Z"/><path class="cls-1" d="m66.66,135.15c-.11.71-1.17.59-1.08-.22.09-.82,1.22-.67,1.08.22Z"/><path class="cls-1" d="m53,137.9c-.41-.21-.13-.84.35-.62.48.22.17.88-.35.62Z"/><path class="cls-1" d="m57.63,148.82c-.39.08-.53-.5-.09-.61s.58.51.09.61Z"/><path class="cls-1" d="m63.2,148.08c-.36.36-.92-.14-.53-.57.39-.43.98.11.53.57Z"/><path class="cls-1" d="m57.79,133.19c-.23.4-.84.09-.6-.38.24-.47.89-.13.6.38Z"/><path class="cls-7" d="m60.27,71.42c-1.44,0-2.96-.86-4.64-2.64-.08-.09-.16-.17-.22-.23-.18-.19-.3-.32-.36-.36-.02-.01-.06-.03-.2-.06-.14-.03-.33-.08-.61-.17-.46-.15-.87-.33-1.27-.5-.16-.07-.33-.14-.5-.21-1.83-.75-3.76-1.79-3.59-4.5.04-.7.23-1.41.41-2.1.2-.77.39-1.49.35-2.08-.04-.55-.19-1.09-.35-1.66-.3-1.1-.62-2.23-.17-3.51.64-1.83,2.03-2.3,3.5-2.8l.11-.04c.19-.06.46-.14.76-.22.44-.12,1.11-.3,1.3-.41.17-.1.31-.28.48-.5.1-.13.22-.29.37-.45.55-.6,2.5-2.56,4.63-2.56,1.68,0,2.94,1.06,4.09,2.15.16.16.31.3.45.44.39.39.67.67,1.06.87.27.14.7.26,1.12.37.38.1.76.21,1.09.35,1.53.63,3.25,1.35,3.56,3.67.13.99-.14,1.96-.39,2.91-.21.77-.4,1.49-.34,2.08.06.5.2.99.34,1.51.26.91.53,1.86.36,2.93-.38,2.43-2.2,3.05-3.81,3.6-.14.05-.34.11-.58.18-.46.14-1.1.34-1.34.46-.27.13-.29.16-.44.33-.08.09-.19.21-.36.38-1.11,1.1-2.79,2.77-4.83,2.77Z"/><path class="cls-8" d="m71.48,53.48c-.26-1.98-1.62-2.59-3.25-3.27-.66-.27-1.66-.44-2.24-.73-.61-.31-1-.79-1.63-1.39-1.03-.98-2.21-2.01-3.74-2.01-1.58,0-3.24,1.27-4.26,2.39-.38.42-.58.81-.96,1.04-.4.24-1.67.51-2.16.68-1.48.51-2.73.89-3.3,2.53-.62,1.77.43,3.3.54,4.97.08,1.22-.66,2.82-.75,4.25-.15,2.34,1.44,3.24,3.27,4,.59.25,1.12.5,1.73.7,1.1.35.72.03,1.61.96,1.07,1.13,2.61,2.48,4.27,2.48,1.77,0,3.3-1.46,4.47-2.62.49-.49.41-.55.93-.81.4-.2,1.53-.52,1.98-.67,1.7-.58,3.15-1.14,3.47-3.2.24-1.54-.55-2.87-.71-4.3-.16-1.44.95-3.29.73-4.98Z"/><path class="cls-7" d="m64.39,65.11c-.4-.25-.06-.86.41-.59.47.27.09.91-.41.59Z"/><path class="cls-7" d="m51.84,58.46c-.05-.61.85-.73.94-.04.09.69-.87.81-.94.04Z"/><path class="cls-3" d="m62.53,55.4c-.51,0-.55-.75.03-.78.58-.03.62.78-.03.78Z"/><path class="cls-7" d="m56.83,51.02c.3-.31.78.11.45.48-.33.37-.83-.09-.45-.48Z"/><path class="cls-7" d="m55.68,64.78c.13.36-.39.57-.55.17s.39-.62.55-.17Z"/><path class="cls-7" d="m68.42,58.67c-.05-.47.65-.58.73-.04.08.54-.67.64-.73.04Z"/><path class="cls-5" d="m54.06,53.86c-1.2,2.06.63,2.4.23,4.43s-.76,2.24-.21,3.52,2.32,1.2,3.26,1.75,1.75,2.24,3.26,2.19,1.75-1.25,2.94-2.14,2.63-.23,3.65-1.59.13-2.5.08-3.96c-.05-1.46.18-2.74-.23-3.8-.55-1.42-2.13-1.28-3.15-1.9s-1.43-1.82-3.23-1.85c-1.64-.03-2.4,1.77-3.28,2.03-1.83.54-2.6.12-3.31,1.33Z"/><path class="cls-4" d="m69.31,53.05c-.17-.29-.54-.39-.83-.22-.33.19-.74.43-1.2.69l.12-.89c.04-.33-.19-.64-.52-.68-.33-.04-.64.19-.68.52l-.24,1.81c-.24.14-.48.28-.73.42-.08.04-.16.09-.23.13l.17-1.09c.05-.33-.18-.64-.51-.69-.33-.05-.64.18-.69.51l-.31,2.04c-.66.38-1.26.73-1.71.98-.18.1-.43.25-.73.42,0-.83,0-1.75,0-2.67l1.6-1.14c.27-.19.33-.57.14-.84-.19-.27-.57-.33-.84-.14l-.9.64c0-.44,0-.87,0-1.27l1.47-.95c.28-.18.36-.56.18-.84-.18-.28-.56-.36-.84-.18l-.82.53c0-.65,0-1.18,0-1.51s-.27-.61-.61-.61-.61.27-.61.61c0,.31,0,.79,0,1.39l-.71-.55c-.26-.2-.64-.15-.85.11-.2.26-.15.64.11.85l1.45,1.12c0,.39,0,.8,0,1.22l-.84-.67c-.26-.21-.64-.17-.85.09-.21.26-.17.64.09.85l1.59,1.28c0,.93,0,1.86,0,2.7-.73-.42-1.53-.88-2.33-1.35l-.09-.05-.19-1.98c-.03-.33-.33-.58-.66-.54-.33.03-.58.33-.54.66l.11,1.11c-.34-.2-.67-.39-.99-.57l-.08-1.75c-.02-.33-.3-.59-.63-.58-.33.02-.59.3-.58.63l.05.97c-.57-.33-1.02-.59-1.31-.76-.29-.17-.66-.07-.83.22-.17.29-.07.66.22.83.27.15.68.4,1.2.69l-.83.34c-.31.13-.46.48-.33.79.1.23.32.38.56.38.08,0,.15-.01.23-.05l1.69-.7c.3.17.61.35.92.53l-.98.38c-.31.12-.47.47-.34.78.09.24.32.39.56.39.07,0,.15-.01.22-.04l1.88-.74s.09.05.14.08c.8.47,1.61.93,2.33,1.35-.72.42-1.52.88-2.32,1.34-.04.02-.08.05-.12.07l-1.77-.8c-.3-.14-.66,0-.8.3-.14.3,0,.66.3.8l.98.44c-.34.19-.67.38-.98.56l-1.56-.8c-.3-.15-.66-.04-.82.26-.15.3-.04.66.26.82l.86.44c-.57.33-1.02.59-1.31.75-.29.17-.39.54-.22.83.11.19.32.3.52.3.1,0,.21-.03.3-.08.27-.15.68-.39,1.2-.69l-.12.89c-.04.33.19.64.52.68.03,0,.05,0,.08,0,.3,0,.56-.22.6-.53l.24-1.81c.31-.18.63-.36.96-.55l-.17,1.09c-.05.33.18.64.51.69.03,0,.06,0,.09,0,.29,0,.55-.21.6-.51l.31-2.05s.08-.04.11-.07c.8-.46,1.6-.92,2.32-1.34,0,.35,0,.64,0,.84,0,.48,0,1.12,0,1.83l-1.6,1.15c-.27.19-.33.57-.14.84.19.27.57.33.84.14l.9-.64c0,.15,0,.3,0,.45,0,.28,0,.55,0,.82l-1.47.95c-.28.18-.36.56-.18.84.18.28.56.36.84.18l.82-.53c0,.58,0,1.1,0,1.51,0,.33.27.61.61.61s.61-.27.61-.61c0-.38,0-.86,0-1.39l.71.55c.11.08.24.13.37.13.18,0,.36-.08.48-.24.2-.26.15-.64-.11-.85l-1.45-1.12c0-.28,0-.57,0-.86,0-.12,0-.24,0-.36l.84.67c.11.09.25.13.38.13.18,0,.35-.08.47-.23.21-.26.17-.64-.09-.85l-1.59-1.27c0-.72,0-1.37,0-1.86,0-.21,0-.49,0-.84.3.17.55.32.73.42.44.26,1.04.6,1.7.98l.19,1.98c.03.31.29.55.6.55.02,0,.04,0,.06,0,.33-.03.58-.33.54-.66l-.11-1.12c.09.05.18.11.27.16.24.14.48.28.72.42l.08,1.75c.02.32.28.58.6.58,0,0,.02,0,.03,0,.33-.02.59-.3.58-.63l-.05-.97c.5.29.95.55,1.31.76.1.06.2.08.3.08.21,0,.41-.11.52-.3.17-.29.07-.66-.22-.83-.33-.19-.74-.43-1.2-.69l.83-.34c.31-.13.46-.48.33-.79-.13-.31-.48-.46-.79-.33l-1.69.7c-.25-.14-.5-.29-.75-.43-.06-.03-.12-.07-.18-.1l.98-.38c.31-.12.47-.47.34-.78-.12-.31-.47-.47-.78-.34l-1.88.74c-.68-.39-1.29-.75-1.74-1.01-.18-.1-.43-.25-.73-.42.3-.17.55-.32.73-.42.44-.26,1.04-.6,1.71-.98l1.77.8c.08.04.17.05.25.05.23,0,.45-.13.55-.35.14-.3,0-.66-.3-.8l-.98-.45c.09-.05.19-.11.28-.16.23-.13.47-.27.7-.4l1.56.8c.09.05.18.07.28.07.22,0,.43-.12.54-.33.15-.3.04-.66-.26-.82l-.86-.44c.5-.29.95-.55,1.31-.75.29-.17.39-.54.22-.83Z"/><rect class="cls-9" x="41.58" y=".33" width="37.38" height="156.8" rx="5.38" ry="5.38"/><rect class="cls-6" x="223.23" y=".33" width="37.38" height="37.38" rx="5.38" ry="5.38" transform="translate(260.95 -222.9) rotate(90)"/><rect class="cls-5" x="223.23" y="40.06" width="37.38" height="37.38" rx="5.38" ry="5.38" transform="translate(300.67 -183.18) rotate(90)"/><rect class="cls-5" x="223.23" y="79.78" width="37.38" height="37.38" rx="5.38" ry="5.38" transform="translate(340.4 -143.45) rotate(90)"/><rect class="cls-5" x="223.23" y="119.75" width="37.38" height="37.38" rx="5.38" ry="5.38" transform="translate(380.37 -103.48) rotate(90)"/><path class="cls-7" d="m242.16,113.42c-6.65,0-12.27-5.4-12.27-11.79,0-3.1,1.35-6.23,3.69-8.58,1.21-1.21,2.67-2.18,4.22-2.82v-.47c0-.75.25-1.49.69-2.09-.01-.12-.02-.25-.02-.37,0-1.9,1.54-3.44,3.44-3.44s3.44,1.54,3.44,3.44c0,.12,0,.25-.02.37.45.6.69,1.34.69,2.09v.3c4.68,1.75,7.92,6.45,7.92,11.56,0,6.5-5.29,11.79-11.79,11.79Z"/><path class="cls-8" d="m245.87,89.57v-.66c0-.74-.27-1.42-.72-1.95.03-.17.05-.34.05-.52,0-1.61-1.31-2.93-2.93-2.93s-2.93,1.31-2.93,2.93c0,.18.02.35.05.52-.45.52-.72,1.2-.72,1.95v.82c-1.6.6-3.11,1.56-4.38,2.83-2.25,2.25-3.54,5.25-3.54,8.22,0,6.11,5.39,11.28,11.76,11.28s11.28-5.06,11.28-11.28c0-5.16-3.39-9.67-7.92-11.2Z"/><circle class="cls-2" cx="242.37" cy="100.59" r="9.28"/><path class="cls-4" d="m242.51,110.78c-2.66,0-5.32-1.06-7.3-2.92-2.05-1.92-3.18-4.44-3.18-7.09s1.16-5.3,3.17-7.32c2.01-2.01,4.68-3.17,7.32-3.17s5.17,1.13,7.09,3.18c1.85,1.98,2.92,4.64,2.92,7.3,0,5.52-4.49,10.01-10.01,10.01Zm0-19.28c-4.85,0-9.27,4.42-9.27,9.27s4.25,8.8,9.27,8.8,8.8-3.95,8.8-8.8-4.03-9.27-8.8-9.27Z"/><path class="cls-4" d="m242.43,107.56c-3.89,0-7.18-3.14-7.18-6.87,0-1.81.79-3.63,2.17-5.01,1.38-1.38,3.21-2.17,5.01-2.17,3.72,0,6.87,3.29,6.87,7.18s-3.08,6.87-6.87,6.87Zm0-12.84c-3.13,0-5.97,2.85-5.97,5.97s2.74,5.66,5.97,5.66,5.66-2.54,5.66-5.66-2.59-5.97-5.66-5.97Z"/><path class="cls-4" d="m243.99,91.49h-3.45c-.33,0-.61-.27-.61-.61v-1.98c0-.95.77-1.73,1.73-1.73h1.2c.95,0,1.73.77,1.73,1.73v1.98c0,.33-.27.61-.61.61Zm-2.84-1.21h2.23v-1.37c0-.28-.23-.52-.52-.52h-1.2c-.28,0-.52.23-.52.52v1.37Z"/><path class="cls-4" d="m242.23,104.65c-.33,0-.61-.27-.61-.61v-7.34c0-.33.27-.61.61-.61s.61.27.61.61v7.34c0,.33-.27.61-.61.61Z"/><path class="cls-4" d="m240.45,104.15c-.1,0-.21-.03-.3-.08-.29-.17-.39-.54-.22-.83l3.67-6.35c.17-.29.54-.39.83-.22.29.17.39.54.22.83l-3.67,6.35c-.11.19-.32.3-.52.3Z"/><path class="cls-4" d="m239.16,102.83c-.21,0-.41-.11-.52-.3-.17-.29-.07-.66.22-.83l6.35-3.67c.29-.17.66-.07.83.22.17.29.07.66-.22.83l-6.35,3.67c-.1.06-.2.08-.3.08Z"/><path class="cls-4" d="m246.03,101.04h-7.34c-.33,0-.61-.27-.61-.61s.27-.61.61-.61h7.34c.33,0,.61.27.61.61s-.27.61-.61.61Z"/><path class="cls-4" d="m245.55,102.93c-.1,0-.21-.03-.3-.08l-6.35-3.67c-.29-.17-.39-.54-.22-.83.17-.29.54-.39.83-.22l6.35,3.67c.29.17.39.54.22.83-.11.19-.32.3-.52.3Z"/><path class="cls-4" d="m244.18,104.32c-.21,0-.41-.11-.52-.3l-3.67-6.35c-.17-.29-.07-.66.22-.83.29-.17.66-.07.83.22l3.67,6.35c.17.29.07.66-.22.83-.1.06-.2.08-.3.08Z"/><path class="cls-4" d="m242.27,88.1c-.91,0-1.65-.74-1.65-1.65s.74-1.65,1.65-1.65,1.65.74,1.65,1.65-.74,1.65-1.65,1.65Zm0-2.1c-.24,0-.44.2-.44.44s.2.44.44.44.44-.2.44-.44-.2-.44-.44-.44Z"/><path class="cls-1" d="m249.07,105.12c.45-.21.8.44.29.7-.5.26-.86-.44-.29-.7Z"/><path class="cls-1" d="m248.31,95.18c-.11.71-1.17.59-1.08-.22.09-.82,1.22-.67,1.08.22Z"/><path class="cls-1" d="m234.65,97.93c-.41-.21-.13-.84.35-.62.48.22.17.88-.35.62Z"/><path class="cls-1" d="m239.28,108.84c-.39.08-.53-.5-.09-.61s.58.51.09.61Z"/><path class="cls-1" d="m244.85,108.11c-.36.36-.92-.14-.53-.57.39-.43.98.11.53.57Z"/><path class="cls-1" d="m239.44,93.21c-.23.4-.84.09-.6-.38.24-.47.89-.13.6.38Z"/><path class="cls-7" d="m242.16,153.4c-6.65,0-12.27-5.4-12.27-11.79,0-3.1,1.35-6.23,3.69-8.58,1.21-1.21,2.67-2.18,4.22-2.82v-.47c0-.75.25-1.49.69-2.09-.01-.12-.02-.25-.02-.37,0-1.9,1.54-3.44,3.44-3.44s3.44,1.54,3.44,3.44c0,.12,0,.25-.02.37.45.6.69,1.34.69,2.09v.3c4.68,1.75,7.92,6.45,7.92,11.56,0,6.5-5.29,11.79-11.79,11.79Z"/><path class="cls-8" d="m245.87,129.55v-.66c0-.74-.27-1.42-.72-1.95.03-.17.05-.34.05-.52,0-1.61-1.31-2.93-2.93-2.93s-2.93,1.31-2.93,2.93c0,.18.02.35.05.52-.45.52-.72,1.2-.72,1.95v.82c-1.6.6-3.11,1.56-4.38,2.83-2.25,2.25-3.54,5.25-3.54,8.22,0,6.11,5.39,11.28,11.76,11.28s11.28-5.06,11.28-11.28c0-5.16-3.39-9.67-7.92-11.2Z"/><circle class="cls-2" cx="242.37" cy="140.56" r="9.28"/><path class="cls-4" d="m242.51,150.76c-2.66,0-5.32-1.06-7.3-2.92-2.05-1.92-3.18-4.44-3.18-7.09s1.16-5.3,3.17-7.32c2.01-2.01,4.68-3.17,7.32-3.17s5.17,1.13,7.09,3.18c1.85,1.98,2.92,4.64,2.92,7.3,0,5.52-4.49,10.01-10.01,10.01Zm0-19.28c-4.85,0-9.27,4.42-9.27,9.27s4.25,8.8,9.27,8.8,8.8-3.95,8.8-8.8-4.03-9.27-8.8-9.27Z"/><path class="cls-4" d="m242.43,147.54c-3.89,0-7.18-3.14-7.18-6.87,0-1.81.79-3.63,2.17-5.01,1.38-1.38,3.21-2.17,5.01-2.17,3.72,0,6.87,3.29,6.87,7.18s-3.08,6.87-6.87,6.87Zm0-12.84c-3.13,0-5.97,2.85-5.97,5.97s2.74,5.66,5.97,5.66,5.66-2.54,5.66-5.66-2.59-5.97-5.66-5.97Z"/><path class="cls-4" d="m243.99,131.46h-3.45c-.33,0-.61-.27-.61-.61v-1.98c0-.95.77-1.73,1.73-1.73h1.2c.95,0,1.73.77,1.73,1.73v1.98c0,.33-.27.61-.61.61Zm-2.84-1.21h2.23v-1.37c0-.28-.23-.52-.52-.52h-1.2c-.28,0-.52.23-.52.52v1.37Z"/><path class="cls-4" d="m242.23,144.62c-.33,0-.61-.27-.61-.61v-7.34c0-.33.27-.61.61-.61s.61.27.61.61v7.34c0,.33-.27.61-.61.61Z"/><path class="cls-4" d="m240.45,144.13c-.1,0-.21-.03-.3-.08-.29-.17-.39-.54-.22-.83l3.67-6.35c.17-.29.54-.39.83-.22.29.17.39.54.22.83l-3.67,6.35c-.11.19-.32.3-.52.3Z"/><path class="cls-4" d="m239.16,142.81c-.21,0-.41-.11-.52-.3-.17-.29-.07-.66.22-.83l6.35-3.67c.29-.17.66-.07.83.22.17.29.07.66-.22.83l-6.35,3.67c-.1.06-.2.08-.3.08Z"/><path class="cls-4" d="m246.03,141.02h-7.34c-.33,0-.61-.27-.61-.61s.27-.61.61-.61h7.34c.33,0,.61.27.61.61s-.27.61-.61.61Z"/><path class="cls-4" d="m245.55,142.91c-.1,0-.21-.03-.3-.08l-6.35-3.67c-.29-.17-.39-.54-.22-.83.17-.29.54-.39.83-.22l6.35,3.67c.29.17.39.54.22.83-.11.19-.32.3-.52.3Z"/><path class="cls-4" d="m244.18,144.3c-.21,0-.41-.11-.52-.3l-3.67-6.35c-.17-.29-.07-.66.22-.83.29-.17.66-.07.83.22l3.67,6.35c.17.29.07.66-.22.83-.1.06-.2.08-.3.08Z"/><path class="cls-4" d="m242.27,128.07c-.91,0-1.65-.74-1.65-1.65s.74-1.65,1.65-1.65,1.65.74,1.65,1.65-.74,1.65-1.65,1.65Zm0-2.1c-.24,0-.44.2-.44.44s.2.44.44.44.44-.2.44-.44-.2-.44-.44-.44Z"/><path class="cls-1" d="m249.07,145.1c.45-.21.8.44.29.7-.5.26-.86-.44-.29-.7Z"/><path class="cls-1" d="m248.31,135.15c-.11.71-1.17.59-1.08-.22.09-.82,1.22-.67,1.08.22Z"/><path class="cls-1" d="m234.65,137.9c-.41-.21-.13-.84.35-.62.48.22.17.88-.35.62Z"/><path class="cls-1" d="m239.28,148.82c-.39.08-.53-.5-.09-.61s.58.51.09.61Z"/><path class="cls-1" d="m244.85,148.08c-.36.36-.92-.14-.53-.57.39-.43.98.11.53.57Z"/><path class="cls-1" d="m239.44,133.19c-.23.4-.84.09-.6-.38.24-.47.89-.13.6.38Z"/><path class="cls-7" d="m241.92,31.7c-1.44,0-2.96-.86-4.64-2.64-.08-.09-.16-.17-.22-.23-.18-.19-.3-.32-.36-.36-.02-.01-.06-.03-.2-.06-.14-.03-.33-.08-.61-.17-.46-.15-.87-.33-1.27-.5-.16-.07-.33-.14-.5-.21-1.83-.75-3.76-1.79-3.59-4.5.04-.7.23-1.41.41-2.1.2-.77.39-1.49.35-2.08-.04-.55-.19-1.09-.35-1.66-.3-1.1-.62-2.23-.17-3.51.64-1.83,2.03-2.3,3.5-2.8l.11-.04c.19-.06.46-.14.76-.22.44-.12,1.11-.3,1.3-.41.17-.1.31-.28.48-.5.1-.13.22-.29.37-.45.55-.6,2.5-2.56,4.63-2.56,1.68,0,2.94,1.06,4.09,2.15.16.16.31.3.45.44.39.39.67.67,1.06.87.27.14.7.26,1.12.37.38.1.76.21,1.09.35,1.53.63,3.25,1.35,3.56,3.67.13.99-.14,1.96-.39,2.91-.21.77-.4,1.49-.34,2.08.06.5.2.99.34,1.51.26.91.53,1.86.36,2.93-.38,2.43-2.2,3.05-3.81,3.6-.14.05-.34.11-.58.18-.46.14-1.1.34-1.34.46-.27.13-.29.16-.44.33-.08.09-.19.21-.36.38-1.11,1.1-2.79,2.77-4.83,2.77Z"/><path class="cls-8" d="m253.13,13.76c-.26-1.98-1.62-2.59-3.25-3.27-.66-.27-1.66-.44-2.24-.73-.61-.31-1-.79-1.63-1.39-1.03-.98-2.21-2.01-3.74-2.01-1.58,0-3.24,1.27-4.26,2.39-.38.42-.58.81-.96,1.04-.4.24-1.67.51-2.16.68-1.48.51-2.73.89-3.3,2.53-.62,1.77.43,3.3.54,4.97.08,1.22-.66,2.82-.75,4.25-.15,2.34,1.44,3.24,3.27,4,.59.25,1.12.5,1.73.7,1.1.35.72.03,1.61.96,1.07,1.13,2.61,2.48,4.27,2.48,1.77,0,3.3-1.46,4.47-2.62.49-.49.41-.55.93-.81.4-.2,1.53-.52,1.98-.67,1.7-.58,3.15-1.14,3.47-3.2.24-1.54-.55-2.87-.71-4.3-.16-1.44.95-3.29.73-4.98Z"/><path class="cls-7" d="m246.04,25.39c-.4-.25-.06-.86.41-.59.47.27.09.91-.41.59Z"/><path class="cls-7" d="m233.49,18.74c-.05-.61.85-.73.94-.04.09.69-.87.81-.94.04Z"/><path class="cls-3" d="m244.18,15.67c-.51,0-.55-.75.03-.78.58-.03.62.78-.03.78Z"/><path class="cls-7" d="m238.49,11.3c.3-.31.78.11.45.48-.33.37-.83-.09-.45-.48Z"/><path class="cls-7" d="m237.33,25.05c.13.36-.39.57-.55.17s.39-.62.55-.17Z"/><path class="cls-7" d="m250.08,18.95c-.05-.47.65-.58.73-.04.08.54-.67.64-.73.04Z"/><path class="cls-5" d="m235.71,14.14c-1.2,2.06.63,2.4.23,4.43s-.76,2.24-.21,3.52,2.32,1.2,3.26,1.75,1.75,2.24,3.26,2.19,1.75-1.25,2.94-2.14,2.63-.23,3.65-1.59.13-2.5.08-3.96c-.05-1.46.18-2.74-.23-3.8-.55-1.42-2.13-1.28-3.15-1.9s-1.43-1.82-3.23-1.85c-1.64-.03-2.4,1.77-3.28,2.03-1.83.54-2.6.12-3.31,1.33Z"/><path class="cls-4" d="m250.97,13.33c-.17-.29-.54-.39-.83-.22-.33.19-.74.43-1.2.69l.12-.89c.04-.33-.19-.64-.52-.68-.33-.04-.64.19-.68.52l-.24,1.81c-.24.14-.48.28-.73.42-.08.04-.16.09-.23.13l.17-1.09c.05-.33-.18-.64-.51-.69-.33-.05-.64.18-.69.51l-.31,2.04c-.66.38-1.26.73-1.71.98-.18.1-.43.25-.73.42,0-.83,0-1.75,0-2.67l1.6-1.14c.27-.19.33-.57.14-.84-.19-.27-.57-.33-.84-.14l-.9.64c0-.44,0-.87,0-1.27l1.47-.95c.28-.18.36-.56.18-.84-.18-.28-.56-.36-.84-.18l-.82.53c0-.65,0-1.18,0-1.51s-.27-.61-.61-.61-.61.27-.61.61c0,.31,0,.79,0,1.39l-.71-.55c-.26-.2-.64-.15-.85.11-.2.26-.15.64.11.85l1.45,1.12c0,.39,0,.8,0,1.22l-.84-.67c-.26-.21-.64-.17-.85.09-.21.26-.17.64.09.85l1.59,1.28c0,.93,0,1.86,0,2.7-.73-.42-1.53-.88-2.33-1.35l-.09-.05-.19-1.98c-.03-.33-.33-.58-.66-.54-.33.03-.58.33-.54.66l.11,1.11c-.34-.2-.67-.39-.99-.57l-.08-1.75c-.02-.33-.3-.59-.63-.58-.33.02-.59.3-.58.63l.05.97c-.57-.33-1.02-.59-1.31-.76-.29-.17-.66-.07-.83.22-.17.29-.07.66.22.83.27.15.68.4,1.2.69l-.83.34c-.31.13-.46.48-.33.79.1.23.32.38.56.38.08,0,.15-.01.23-.05l1.69-.7c.3.17.61.35.92.53l-.98.38c-.31.12-.47.47-.34.78.09.24.32.39.56.39.07,0,.15-.01.22-.04l1.88-.74s.09.05.14.08c.8.47,1.61.93,2.33,1.35-.72.42-1.52.88-2.32,1.34-.04.02-.08.05-.12.07l-1.77-.8c-.3-.14-.66,0-.8.3-.14.3,0,.66.3.8l.98.44c-.34.19-.67.38-.98.56l-1.56-.8c-.3-.15-.66-.04-.82.26-.15.3-.04.66.26.82l.86.44c-.57.33-1.02.59-1.31.75-.29.17-.39.54-.22.83.11.19.32.3.52.3.1,0,.21-.03.3-.08.27-.15.68-.39,1.2-.69l-.12.89c-.04.33.19.64.52.68.03,0,.05,0,.08,0,.3,0,.56-.22.6-.53l.24-1.81c.31-.18.63-.36.96-.55l-.17,1.09c-.05.33.18.64.51.69.03,0,.06,0,.09,0,.29,0,.55-.21.6-.51l.31-2.05s.08-.04.11-.07c.8-.46,1.6-.92,2.32-1.34,0,.35,0,.64,0,.84,0,.48,0,1.12,0,1.83l-1.6,1.15c-.27.19-.33.57-.14.84.19.27.57.33.84.14l.9-.64c0,.15,0,.3,0,.45,0,.28,0,.55,0,.82l-1.47.95c-.28.18-.36.56-.18.84.18.28.56.36.84.18l.82-.53c0,.58,0,1.1,0,1.51,0,.33.27.61.61.61s.61-.27.61-.61c0-.38,0-.86,0-1.39l.71.55c.11.08.24.13.37.13.18,0,.36-.08.48-.24.2-.26.15-.64-.11-.85l-1.45-1.12c0-.28,0-.57,0-.86,0-.12,0-.24,0-.36l.84.67c.11.09.25.13.38.13.18,0,.35-.08.47-.23.21-.26.17-.64-.09-.85l-1.59-1.27c0-.72,0-1.37,0-1.86,0-.21,0-.49,0-.84.3.17.55.32.73.42.44.26,1.04.6,1.7.98l.19,1.98c.03.31.29.55.6.55.02,0,.04,0,.06,0,.33-.03.58-.33.54-.66l-.11-1.12c.09.05.18.11.27.16.24.14.48.28.72.42l.08,1.75c.02.32.28.58.6.58,0,0,.02,0,.03,0,.33-.02.59-.3.58-.63l-.05-.97c.5.29.95.55,1.31.76.1.06.2.08.3.08.21,0,.41-.11.52-.3.17-.29.07-.66-.22-.83-.33-.19-.74-.43-1.2-.69l.83-.34c.31-.13.46-.48.33-.79-.13-.31-.48-.46-.79-.33l-1.69.7c-.25-.14-.5-.29-.75-.43-.06-.03-.12-.07-.18-.1l.98-.38c.31-.12.47-.47.34-.78-.12-.31-.47-.47-.78-.34l-1.88.74c-.68-.39-1.29-.75-1.74-1.01-.18-.1-.43-.25-.73-.42.3-.17.55-.32.73-.42.44-.26,1.04-.6,1.71-.98l1.77.8c.08.04.17.05.25.05.23,0,.45-.13.55-.35.14-.3,0-.66-.3-.8l-.98-.45c.09-.05.19-.11.28-.16.23-.13.47-.27.7-.4l1.56.8c.09.05.18.07.28.07.22,0,.43-.12.54-.33.15-.3.04-.66-.26-.82l-.86-.44c.5-.29.95-.55,1.31-.75.29-.17.39-.54.22-.83Z"/><path class="cls-7" d="m242.16,73.7c-6.65,0-12.27-5.4-12.27-11.79,0-3.1,1.35-6.23,3.69-8.58,1.21-1.21,2.67-2.18,4.22-2.82v-.47c0-.75.25-1.49.69-2.09-.01-.12-.02-.25-.02-.37,0-1.9,1.54-3.44,3.44-3.44s3.44,1.54,3.44,3.44c0,.12,0,.25-.02.37.45.6.69,1.34.69,2.09v.3c4.68,1.75,7.92,6.45,7.92,11.56,0,6.5-5.29,11.79-11.79,11.79Z"/><path class="cls-8" d="m245.87,49.85v-.66c0-.74-.27-1.42-.72-1.95.03-.17.05-.34.05-.52,0-1.61-1.31-2.93-2.93-2.93s-2.93,1.31-2.93,2.93c0,.18.02.35.05.52-.45.52-.72,1.2-.72,1.95v.82c-1.6.6-3.11,1.56-4.38,2.83-2.25,2.25-3.54,5.25-3.54,8.22,0,6.11,5.39,11.28,11.76,11.28s11.28-5.06,11.28-11.28c0-5.16-3.39-9.67-7.92-11.2Z"/><circle class="cls-2" cx="242.37" cy="60.87" r="9.28"/><path class="cls-4" d="m242.51,71.06c-2.66,0-5.32-1.06-7.3-2.92-2.05-1.92-3.18-4.44-3.18-7.09s1.16-5.3,3.17-7.32c2.01-2.01,4.68-3.17,7.32-3.17s5.17,1.13,7.09,3.18c1.85,1.98,2.92,4.64,2.92,7.3,0,5.52-4.49,10.01-10.01,10.01Zm0-19.28c-4.85,0-9.27,4.42-9.27,9.27s4.25,8.8,9.27,8.8,8.8-3.95,8.8-8.8-4.03-9.27-8.8-9.27Z"/><path class="cls-4" d="m242.43,67.84c-3.89,0-7.18-3.14-7.18-6.87,0-1.81.79-3.63,2.17-5.01,1.38-1.38,3.21-2.17,5.01-2.17,3.72,0,6.87,3.29,6.87,7.18s-3.08,6.87-6.87,6.87Zm0-12.84c-3.13,0-5.97,2.85-5.97,5.97s2.74,5.66,5.97,5.66,5.66-2.54,5.66-5.66-2.59-5.97-5.66-5.97Z"/><path class="cls-4" d="m243.99,51.77h-3.45c-.33,0-.61-.27-.61-.61v-1.98c0-.95.77-1.73,1.73-1.73h1.2c.95,0,1.73.77,1.73,1.73v1.98c0,.33-.27.61-.61.61Zm-2.84-1.21h2.23v-1.37c0-.28-.23-.52-.52-.52h-1.2c-.28,0-.52.23-.52.52v1.37Z"/><path class="cls-4" d="m242.23,64.93c-.33,0-.61-.27-.61-.61v-7.34c0-.33.27-.61.61-.61s.61.27.61.61v7.34c0,.33-.27.61-.61.61Z"/><path class="cls-4" d="m240.45,64.43c-.1,0-.21-.03-.3-.08-.29-.17-.39-.54-.22-.83l3.67-6.35c.17-.29.54-.39.83-.22.29.17.39.54.22.83l-3.67,6.35c-.11.19-.32.3-.52.3Z"/><path class="cls-4" d="m239.16,63.11c-.21,0-.41-.11-.52-.3-.17-.29-.07-.66.22-.83l6.35-3.67c.29-.17.66-.07.83.22.17.29.07.66-.22.83l-6.35,3.67c-.1.06-.2.08-.3.08Z"/><path class="cls-4" d="m246.03,61.32h-7.34c-.33,0-.61-.27-.61-.61s.27-.61.61-.61h7.34c.33,0,.61.27.61.61s-.27.61-.61.61Z"/><path class="cls-4" d="m245.55,63.21c-.1,0-.21-.03-.3-.08l-6.35-3.67c-.29-.17-.39-.54-.22-.83.17-.29.54-.39.83-.22l6.35,3.67c.29.17.39.54.22.83-.11.19-.32.3-.52.3Z"/><path class="cls-4" d="m244.18,64.6c-.21,0-.41-.11-.52-.3l-3.67-6.35c-.17-.29-.07-.66.22-.83.29-.17.66-.07.83.22l3.67,6.35c.17.29.07.66-.22.83-.1.06-.2.08-.3.08Z"/><path class="cls-4" d="m242.27,48.38c-.91,0-1.65-.74-1.65-1.65s.74-1.65,1.65-1.65,1.65.74,1.65,1.65-.74,1.65-1.65,1.65Zm0-2.1c-.24,0-.44.2-.44.44s.2.44.44.44.44-.2.44-.44-.2-.44-.44-.44Z"/><path class="cls-1" d="m249.07,65.4c.45-.21.8.44.29.7-.5.26-.86-.44-.29-.7Z"/><path class="cls-1" d="m248.31,55.46c-.11.71-1.17.59-1.08-.22.09-.82,1.22-.67,1.08.22Z"/><path class="cls-1" d="m234.65,58.21c-.41-.21-.13-.84.35-.62.48.22.17.88-.35.62Z"/><path class="cls-1" d="m239.28,69.12c-.39.08-.53-.5-.09-.61s.58.51.09.61Z"/><path class="cls-1" d="m244.85,68.39c-.36.36-.92-.14-.53-.57.39-.43.98.11.53.57Z"/><path class="cls-1" d="m239.44,53.49c-.23.4-.84.09-.6-.38.24-.47.89-.13.6.38Z"/><path class="cls-11" d="m95,19.85c10.61,0,19.21,8.6,19.21,19.21s-8.6,19.21-19.21,19.21"/><polygon class="cls-4" points="97.79 23.29 98.36 22.67 95.33 19.85 98.36 17.03 97.79 16.42 94.09 19.85 97.79 23.29"/><path class="cls-11" d="m25.55,58.28c-10.61,0-19.21-8.6-19.21-19.21s8.6-19.21,19.21-19.21"/><polygon class="cls-4" points="22.76 54.84 22.19 55.46 25.22 58.28 22.19 61.09 22.76 61.71 26.46 58.28 22.76 54.84"/><line class="cls-10" x1="129.85" y1="85.1" x2="171.17" y2="85.1"/><polygon class="cls-4" points="168.39 88.53 167.82 87.92 170.85 85.1 167.82 82.28 168.39 81.67 172.08 85.1 168.39 88.53"/></g></g></g></svg>